<svg xmlns="http://www.w3.org/2000/svg" xmlns:xlink="http://www.w3.org/1999/xlink" width="837px" height="368px" viewBox="0 0 837 368"><title>Aofl_corpsite_lineart_teacher_student</title><g id="Page-1" stroke="none" stroke-width="1" fill="none" fill-rule="evenodd"><g id="Aofl_corpsite_lineart_teacher_student" transform="translate(418.064521, 184.000000) scale(-1, 1) translate(-418.064521, -184.000000) "><rect id="Rectangle" x="103.129042" y="0" width="733" height="368"></rect><path d="M-1.8189894e-12,326 L-1.8189894e-12,324.305723 C1.99295285,324.30497 157.662378,324.222892 173.021461,324.142319 C188.788632,324.059488 192.28817,322.722892 195.09858,321.649096 C197.404014,320.768072 196.056606,315.054217 196.04634,315 L197.574033,315 C197.624723,315.280873 199.119134,321.894578 195.546449,323.259789 C192.638508,324.370482 190.706217,325.743375 173.027878,325.836596 C155.349539,325.929817 147.331144,325.999247 145.337549,326 L-1.8189894e-12,326 Z" id="Fill-4" fill="#85AFFB"></path><path d="M583.95045,110.038438 C581.201862,113.714996 581.515399,120.261958 584.826811,126.682275 C587.556124,131.973717 590.72426,133.898462 592.607409,133.938963 C593.548663,133.965963 594.245768,133.558385 594.690374,132.781801 C595.665679,131.074988 595.456226,127.222284 591.941786,121.529693 C589.415501,117.436556 586.75108,113.605709 583.95045,110.038438 M481.765688,141.481083 C481.10135,141.481083 480.456929,141.591657 479.847845,141.817946 C478.251248,142.41067 477.201413,143.746548 477.03822,145.391003 C476.898156,146.799526 477.26502,150.503728 483.672609,154.463791 C486.946757,156.486895 489.931783,158.116564 492.668806,159.424799 C493.326719,154.972299 492.900746,149.136349 487.817979,144.292985 C485.894995,142.46017 483.741999,141.481083 481.765688,141.481083 M461.462246,149.530426 C461.239301,149.530426 461.11016,149.575427 461.080605,149.628785 C461.003506,149.767002 460.485013,151.171024 465.858188,157.981562 C466.426152,158.701573 467.184295,159.603516 468.109486,160.57296 C468.872125,158.982506 468.493697,155.521308 467.945007,153.602349 C467.615408,152.445187 463.766871,149.784359 461.705109,149.545212 C461.61516,149.534926 461.534205,149.530426 461.462246,149.530426 M530.26882,164.563881 C530.139678,165.93576 530.317007,167.33464 530.582356,168.531659 C531.76583,173.882245 535.327172,178.71725 536.658419,179.097828 C537.164062,179.24183 537.526428,179.121614 537.807198,178.722393 C538.664927,177.49966 538.556988,173.526096 534.617859,168.068794 C533.26284,166.191622 531.821084,165.11739 530.26882,164.563881 M602.180565,187.578535 C601.207187,187.578535 600.423987,187.758538 599.902925,188.13333 C598.401417,189.213347 600.012791,192.037464 601.106315,193.624703 C605.99248,200.712959 616.562143,207.429638 622.868218,205.464393 C623.519064,205.262532 624.073536,204.966813 624.532277,204.579807 C623.819109,202.576632 622.732652,200.590172 621.283186,198.657712 C616.194637,191.867747 606.933733,187.578535 602.180565,187.578535 M542.983769,153.493704 C545.360353,153.493704 547.526842,154.404004 549.50765,156.221391 C554.799227,161.07504 560.694107,172.193432 557.234278,181.715584 C556.221708,184.501772 554.747185,187.020526 553.321492,189.456351 C549.940048,195.235086 547.269202,199.798802 551.677351,205.312033 L552.719475,206.617697 C558.974151,214.462608 561.62765,217.567015 564.526581,215.633912 C566.074349,214.600824 566.393668,213.077872 566.73162,211.46556 C567.119043,209.619888 567.557224,207.527997 570.161893,206.74627 C570.956658,206.507766 571.741785,206.419694 572.507638,206.460837 C572.638706,205.493964 572.805112,204.514235 573.011353,203.52229 C573.734158,200.038592 574.54884,196.394176 575.412352,192.536329 C580.085208,171.648923 585.382568,147.974687 580.149457,132.269436 C574.374082,114.931944 568.918668,98.5561824 541.639672,87.8935833 C529.848629,83.2855096 514.923501,81.9245593 499.614805,84.0614506 C486.980809,85.8254788 475.165351,89.9166871 469.513334,94.484903 C461.58175,100.894934 449.834396,116.611757 448.549409,131.481923 C447.87736,139.252905 450.030999,146.044799 454.951215,151.670532 C462.355312,160.137739 465.60376,161.478118 466.926655,161.426688 C466.027806,160.474601 465.287011,159.591302 464.724186,158.878362 C459.232793,151.918036 459.29383,149.864075 459.818105,148.924202 C460.024345,148.555197 460.558258,147.957973 461.871515,148.108404 C464.233321,148.382265 468.784104,151.273883 469.335363,153.204414 C469.354638,153.270629 470.871566,159.01915 469.162533,161.632406 C473.004645,165.337894 479.0171,169.420745 486.040199,168.190939 C489.096541,167.655431 490.790154,166.309266 490.97969,165.740971 C491.025307,165.603398 491.082489,165.439467 491.148023,165.252392 C491.481477,164.29452 492.01282,162.768995 492.404741,160.900823 C489.522514,159.541158 486.373653,157.833059 482.913182,155.694239 C477.913296,152.603976 475.24759,148.796915 475.599034,145.248286 C475.818124,143.04068 477.218761,141.25158 479.344772,140.461496 C482.296388,139.367335 485.836528,140.406852 488.815129,143.245754 C493.354346,147.571609 495.083939,153.203771 493.985275,160.037452 C503.242966,164.237947 509.567031,164.678312 514.652369,164.409593 C516.743043,164.299663 518.79581,163.88887 520.779831,163.491578 C523.67555,162.911712 526.490314,162.34856 529.120041,162.786996 C529.523527,161.323186 530.279742,160.095953 531.382261,159.140009 C535.726161,155.372806 539.571485,153.493704 542.983769,153.493704 M538.863457,210.759692 C538.286498,210.759692 535.870722,211.53499 531.267897,222.792884 C529.373826,227.42603 527.632668,231.11866 526.054704,234.101565 C528.884246,232.021889 531.28653,230.023214 532.599144,228.709836 C535.456313,225.850362 538.072548,217.662802 539.189202,214.166246 C539.331193,213.72331 539.448769,213.353019 539.541931,213.074657 C539.81499,212.255644 539.509806,210.968623 538.997738,210.778335 C538.986174,210.773835 538.941199,210.759692 538.863457,210.759692 M524.41763,237.053612 C521.888132,241.39361 519.861065,243.853864 518.389112,245.63975 C517.620047,246.573193 517.011605,247.310562 516.55929,248.035074 C514.843832,250.781403 511.430911,257.955804 512.463393,261.38293 C512.686981,262.124156 513.102031,262.623664 513.734245,262.910383 C514.421713,263.223459 514.980683,263.580894 515.474118,263.896542 C518.190581,265.634855 519.986351,266.783016 541.942929,253.318158 L544.060588,252.01828 C559.068598,242.802776 570.012192,236.083525 579.727339,235.785878 C575.01529,228.51119 571.233573,219.111825 572.339947,207.90536 C571.747568,207.880288 571.166753,207.954861 570.577587,208.13165 C568.878834,208.641443 568.561442,209.785105 568.146391,211.762565 C567.781454,213.50345 567.367688,215.47641 565.328414,216.83736 C561.210029,219.585618 557.792605,215.299621 551.589329,207.520283 L550.547847,206.215262 C545.519692,199.92609 548.70389,194.485503 552.074412,188.725411 C553.467338,186.345515 554.907809,183.883976 555.875404,181.221219 C559.072453,172.422935 553.383171,161.737836 548.531059,157.287265 C544.284176,153.392774 539.13459,154.330075 532.328654,160.233526 C531.394468,161.042896 530.834856,162.049627 530.530314,163.129001 C532.401899,163.737154 534.166829,164.974031 535.789768,167.222138 C539.919074,172.942372 540.34312,177.623733 538.990028,179.552978 C538.353317,180.46135 537.360665,180.80207 536.260715,180.48835 C534.137274,179.881483 530.372904,174.276965 529.170798,168.844735 C528.794297,167.143708 528.688928,165.587969 528.848909,164.200661 C526.522439,163.816869 523.952464,164.331806 521.06317,164.909744 C519.028393,165.317322 516.924226,165.7384 514.728183,165.854116 C509.523984,166.127978 503.066923,165.690828 493.710288,161.501261 C493.418596,162.864783 493.019607,164.274591 492.513322,165.728114 C492.450358,165.90876 492.395103,166.066262 492.351414,166.198693 C491.937005,167.441356 489.72233,169.014452 486.289486,169.615533 C478.613614,170.959769 472.157196,166.545841 468.088283,162.603778 C465.465624,163.892085 460.941184,160.716962 453.862831,152.623262 C448.674695,146.690238 446.402195,139.535124 447.108938,131.35785 C448.505076,115.203877 461.034345,99.4780543 468.604848,93.359885 C474.4464,88.6386667 486.540701,84.4265993 499.415632,82.629142 C514.965906,80.4581787 530.148031,81.8499866 542.165232,86.546776 C570.075799,97.4555934 575.635297,114.143789 581.521181,131.811714 C586.880863,147.898829 581.537244,171.781354 576.822625,192.852619 C575.960399,196.704681 575.147002,200.343311 574.426766,203.81608 C574.225666,204.784882 574.063115,205.742754 573.937186,206.686484 C577.238319,207.536997 580.539451,210.606046 584.676468,214.449108 C587.267645,216.856646 592.50204,221.363147 598.441252,224.497126 C605.184223,228.054111 610.693606,228.725265 614.819058,226.490657 C620.269974,223.536039 624.049122,218.857893 625.18762,213.655166 C625.734382,211.151841 625.661781,208.590014 624.98652,206.04233 C624.489872,206.381122 623.926405,206.650483 623.298046,206.845915 C616.911659,208.838804 605.761825,202.926352 599.91706,194.445645 C596.83052,189.968716 597.746716,187.903183 599.058688,186.958811 C603.065921,184.078122 616.066138,189.286634 622.440317,197.789841 C623.774134,199.569298 624.820114,201.395042 625.571832,203.242643 C625.96568,202.449344 626.162926,201.472829 626.162926,200.318239 C626.162926,191.602242 620.832798,185.775935 613.455686,177.712449 C611.540412,175.619272 609.560247,173.455381 607.497842,171.047842 C600.515864,162.898212 604.769172,151.322098 607.874986,142.87032 C609.362359,138.823469 610.646061,135.328842 610.268275,133.438812 C609.065527,127.420287 606.24755,113.325419 594.784178,108.410054 C590.74996,106.679455 587.284992,106.88003 584.941175,108.957777 C587.827899,112.620836 590.572632,116.558399 593.172161,120.769181 C596.438599,126.062551 597.476226,130.821699 595.945164,133.499884 C595.232638,134.747047 594.020895,135.409843 592.57657,135.384772 C589.52858,135.319199 586.066181,132.238578 583.541824,127.345714 C579.833993,120.156528 579.654095,112.992413 583.024616,108.874205 C571.329947,94.3730441 557.331295,84.3880272 541.258674,79.1107285 C514.239888,70.2404438 478.490898,74.5032977 461.567615,88.6135948 C443.944014,103.308901 432.537182,127.035852 432.94131,139.976774 C433.291469,151.17231 435.9636,158.729216 437.650146,159.012721 C438.054275,159.080222 438.752023,158.455355 439.497315,156.497181 C440.178359,154.708724 440.801578,152.920909 441.352195,151.343313 C443.292525,145.775438 444.219001,143.30747 445.764841,143.30747 L445.774478,143.30747 C446.91105,143.315827 447.524631,144.699921 447.975662,146.053157 C449.059549,149.306709 449.059549,152.16104 449.059549,155.183803 C449.059549,158.067063 449.059549,161.048682 450.076616,164.509237 C452.15444,171.577565 460.150274,184.164266 462.111165,186.912524 C462.766508,187.829253 468.449365,196.106171 466.412017,204.263516 C466.239829,204.949456 466.063143,205.618681 465.890955,206.267334 C464.998531,209.634674 464.227539,212.542363 465.341623,214.158532 C466.007246,215.125404 467.384753,215.706556 469.553811,215.935417 C471.301394,216.119277 472.579314,216.258137 473.24815,216.331424 C473.805192,216.391853 474.290275,216.702358 474.578754,217.183223 C475.041992,217.95595 476.675853,220.551205 478.222336,221.479506 C480.264181,222.706097 482.029111,223.766185 485.002571,221.905727 C486.777781,220.796138 487.528214,219.845337 488.478462,218.641889 C489.234035,217.685302 490.089836,216.602071 491.608049,215.272621 C493.065224,213.996529 494.195371,213.269446 494.982425,213.878241 C495.685313,214.422107 495.513125,215.599198 494.404824,217.815804 C493.071007,220.486276 490.587769,225.45757 488.827979,227.219026 C488.315269,227.732034 487.785854,228.261114 487.808341,228.491904 C487.861026,229.025484 489.766019,230.29579 490.391808,230.713654 C493.77004,232.966904 494.113774,233.402768 494.070084,235.375728 C494.066872,235.541588 494.063017,235.722234 494.063017,235.922808 C494.063017,237.776838 496.007845,242.03712 498.5624,242.767418 C503.150447,244.07951 507.795676,243.811435 512.762795,241.947762 C515.873749,240.780958 519.762121,238.476921 523.339525,236.028239 C525.253514,232.709757 527.456625,228.293901 529.930225,222.245161 C533.787757,212.809796 537.013076,208.49937 539.500168,209.421884 C541.011956,209.982465 541.346695,212.230572 540.913655,213.531736 C540.821778,213.80624 540.705487,214.170103 540.566708,214.60661 C539.417287,218.202811 536.727166,226.625017 533.621994,229.731995 C531.947655,231.407308 528.413298,234.295711 524.41763,237.053612 M582.63398,237.459904 C586.078389,242.240267 589.763732,245.928397 592.231551,248.397008 C596.0833,252.250998 601.983962,260.101052 607.451583,271.403305 C606.555304,261.785365 603.518879,252.452216 597.056035,245.635892 C592.251468,240.568168 587.586321,238.042342 582.63398,237.459904 M488.090396,244.942238 C487.326471,245.022597 484.943462,245.692465 477.773875,249.545169 C467.823576,254.891898 458.387271,262.785024 451.20355,271.770382 C450.942697,272.095673 450.689555,272.418392 450.44091,272.73854 C452.068989,271.096657 453.673938,269.632205 455.222348,268.441614 C465.698849,260.377485 475.225103,254.858468 479.202139,252.868794 C481.326865,251.806134 487.233952,246.620765 488.090396,244.942238 M567.855984,254.971613 C567.820004,254.971613 567.790449,254.986399 567.76218,255.000542 C566.619826,255.571408 566.028089,257.690942 565.20891,260.623703 C564.538789,263.022885 563.70419,266.008361 562.238662,269.308842 C561.818471,270.2545 561.391855,271.226516 560.959457,272.212032 C560.030411,274.327708 559.063458,276.531458 558.06952,278.676064 C560.730086,275.601229 563.108598,272.777755 564.778439,270.660793 C569.663961,264.468694 569.502052,256.861643 568.125831,255.169616 C567.998617,255.013399 567.917663,254.971613 567.855984,254.971613 M494.307807,269.020195 C493.921668,269.039481 492.272387,270.58172 490.233112,275.173079 C488.340968,279.43079 488.245237,286.56019 488.576121,292.74136 C490.982902,285.927608 493.523965,277.754192 494.302025,273.084403 C494.878341,269.623205 494.312947,269.025338 494.307807,269.020195 M407.623205,291.609271 C407.370705,291.980848 407.11949,292.390355 406.87213,292.844219 C405.432944,295.483833 406.584935,297.605295 406.972359,298.192233 C407.466437,298.942459 407.956017,299.207964 408.138485,299.243964 C408.42568,298.529738 408.1629,295.450403 407.623205,291.609271 M395.472365,317.784261 C398.313472,317.906406 402.919509,317.898048 405.911602,317.780404 C407.835228,317.704545 409.602085,316.780745 410.637785,315.309221 C411.052836,314.719712 411.049624,314.43685 411.015571,314.384135 C410.992442,314.346849 410.367938,313.486049 404.722346,314.546137 C400.947696,315.253935 397.898421,316.448382 395.472365,317.784261 M601.324763,324.81723 C601.6383,324.999805 602.366246,325.314167 604.022594,325.696673 C609.46837,326.954765 613.821907,327.726848 616.222906,325.366882 C616.712486,324.885374 617.121755,324.268864 617.450069,323.515424 C610.865152,323.089846 602.93678,323.905644 601.324763,324.81723 M412.543421,323.773214 C410.316538,323.773214 405.661672,325.726245 401.669859,327.64199 C405.224134,327.183625 408.294611,326.713046 410.276061,326.393541 C411.599598,326.180109 412.765724,325.49417 413.474395,324.511868 C413.734605,324.151863 413.760947,323.974431 413.763517,323.938431 C413.714687,323.946788 413.485317,323.773214 412.543421,323.773214 M411.497442,332.969432 C410.297906,332.969432 408.857435,333.189936 407.365565,333.776231 C406.148682,334.255167 404.146672,335.4104 402.347047,336.66142 C408.996856,336.015338 413.489815,335.241969 414.476685,333.926019 C414.540292,333.840518 414.543504,333.799374 414.543504,333.798731 C414.540292,333.774945 414.47283,333.6528 414.20748,333.498512 C413.688345,333.197007 412.717537,332.969432 411.497442,332.969432 M362.164851,356.850671 C358.140913,356.045801 353.36076,354.905997 352.100188,353.224899 C350.82805,351.527729 335.090168,293.944808 331.902115,282.248478 C331.657325,281.707184 330.168024,278.124483 332.123133,275.265009 C333.89513,272.673611 337.870238,271.594236 343.941803,272.063529 C360.085099,273.306192 393.846213,276.223524 394.18545,276.253096 L404.063148,277.035466 C404.527671,277.036752 406.518116,277.308042 407.391265,281.674397 C407.446519,281.951473 408.028618,284.882949 408.591443,288.335147 C410.208599,286.960053 411.512862,286.743407 411.598313,286.73055 L411.70561,286.722192 C411.812906,286.722192 412.774077,286.745979 413.48082,287.561134 C414.068701,288.238717 414.275584,289.221018 414.095686,290.479753 C413.956265,291.455625 413.729465,292.173065 413.546354,292.749075 C413.176278,293.917808 413.022722,294.401887 413.981322,295.840624 C415.466125,298.06816 418.623339,298.747028 418.655464,298.753456 C418.877766,298.810671 423.32832,299.981976 424.714179,302.52966 C425.187054,303.398816 425.266723,304.319402 424.950616,305.266989 C423.546768,309.480342 422.240578,309.544629 418.324579,309.108122 C416.603981,308.91719 414.847404,308.658758 412.986742,308.385539 C410.797766,308.063462 408.534261,307.7311 406.261118,307.503525 C402.253885,307.103018 396.348084,308.884404 394.220145,309.882134 C391.17601,311.309943 385.899209,315.14079 386.286633,316.161663 C386.560978,316.739601 389.632098,317.400469 392.900463,317.608115 C395.686958,315.785586 399.463535,314.060773 404.456354,313.124115 C410.364083,312.016454 411.71589,312.797538 412.231169,313.601765 C412.667423,314.280633 412.528644,315.135004 411.819974,316.142377 C410.526634,317.97905 408.338943,319.131711 405.967499,319.225569 C402.036723,319.381143 395.316239,319.343857 393.372053,319.080281 C393.368198,319.080281 393.364343,319.080281 393.360488,319.080281 C389.091118,321.988614 387.409069,325.042234 387.382727,325.091735 C387.343535,325.157307 386.470386,326.578687 387.038351,327.515345 C387.381442,328.082997 388.588045,328.98044 392.804089,328.613363 C394.363421,328.477075 395.91954,328.320215 397.435826,328.151784 C401.808637,325.868319 409.202454,322.326762 412.543421,322.326762 C413.409503,322.326762 414.613536,322.428335 415.061997,323.305206 C415.355616,323.87993 415.215553,324.571012 414.646303,325.358525 C413.701195,326.668689 412.230527,327.543631 410.505432,327.821993 C407.798606,328.2585 403.07178,328.974654 397.841882,329.561592 C396.328809,330.353605 395.219865,330.974615 394.859426,331.204118 L393.850711,331.893915 C393.571869,332.170991 392.537454,334.142665 393.148465,335.489473 C393.709362,336.725707 395.616926,337.245143 398.667486,336.990568 C398.98295,336.96421 399.293917,336.937853 399.601672,336.911495 C402.330985,334.657602 406.296456,332.642856 406.836793,332.430066 C410.687257,330.915471 414.578199,331.443265 415.660158,332.864002 C416.108619,333.452226 416.097696,334.174166 415.633173,334.79389 C414.353969,336.50006 410.400063,337.413575 400.176703,338.312946 C399.077397,339.249604 398.351379,340.091118 398.443256,340.57584 C398.474738,340.742985 399.038847,341.176278 401.24003,341.176278 C404.401742,341.176278 406.832938,340.991132 408.608148,340.855487 C412.323046,340.571982 414.190133,340.429266 414.912938,342.957663 C415.747537,345.881424 417.368549,353.57269 417.436653,353.898624 L417.517607,354.281773 L414.904586,356.896315 L414.562136,356.860957 C409.530769,356.344735 365.293795,351.74309 361.48702,349.203763 C357.628203,346.629722 341.796517,291.921704 339.869036,285.221097 C339.579272,284.719018 338.357249,282.382194 339.512452,280.553879 C340.576422,278.868281 343.133546,278.2852 347.318108,278.767994 C358.066384,280.009371 391.515889,282.717771 391.853198,282.745415 C391.9001,282.733843 394.702657,282.747343 396.905126,284.984522 C398.670698,286.776836 399.527142,289.442807 399.450686,292.90722 C399.324114,298.646097 400.48767,300.038548 401.337047,301.055565 C401.51823,301.270925 401.687849,301.474714 401.841405,301.704861 L400.639299,302.507159 C400.52108,302.331014 400.379731,302.164511 400.228745,301.983222 C399.231595,300.790703 397.866296,299.157177 398.005075,292.875077 C398.072537,289.827885 397.361296,287.519991 395.891913,286.016324 C394.128268,284.211152 391.820431,284.189295 391.797301,284.189295 C391.399598,284.159723 357.925035,281.448751 347.152344,280.205445 C343.720143,279.808796 341.441218,280.207374 340.734475,281.326606 C339.953203,282.56284 341.137961,284.529372 341.150811,284.548658 L341.232408,284.731875 C348.001721,308.27818 359.704743,346.276788 362.288852,348.000315 C364.928216,349.761129 394.745062,353.366973 414.368746,355.386862 L415.940928,353.813766 C415.596551,352.191811 414.238962,345.863424 413.522582,343.355598 C413.14865,342.047363 412.571691,342.003005 408.718014,342.298081 C406.919674,342.435012 404.456996,342.622729 401.24003,342.622729 C399.574044,342.622729 397.324674,342.438869 397.023345,340.845201 C396.886493,340.123904 397.27713,339.311962 397.97295,338.483949 C394.500272,338.635023 392.4051,337.738223 391.724699,335.822478 C390.992257,333.756945 392.388395,331.142403 393.035386,330.70011 C393.517899,330.369676 393.837861,330.151101 394.042174,330.010956 C394.047314,330.007099 394.053096,330.003242 394.059521,329.999385 C394.088434,329.979456 394.115418,329.961456 394.139191,329.944741 C393.73699,329.982027 393.332861,330.018671 392.929375,330.054028 C389.060921,330.392177 386.726741,329.80331 385.797053,328.257214 C384.758783,326.529186 386.080393,324.446939 386.137575,324.358866 C386.223026,324.194935 387.62302,321.626679 391.082206,318.91185 C388.575838,318.64956 385.455246,318.046551 384.934826,316.674672 C383.774483,313.613337 393.506977,308.6189 393.606563,308.572613 C395.928535,307.483596 402.059852,305.632781 406.405679,306.064145 C408.710947,306.294934 410.991799,306.629868 413.196837,306.954516 C415.044007,307.225806 416.78902,307.48231 418.483918,307.67067 C422.09923,308.072463 422.477658,308.114892 423.579535,304.809267 C423.765858,304.250616 423.721526,303.731179 423.445896,303.222671 C422.545763,301.566001 419.446373,300.451912 418.328434,300.162622 C418.210858,300.139478 414.597474,299.372538 412.778574,296.642923 C411.500012,294.723963 411.713962,293.746805 412.168848,292.312568 C412.343606,291.759059 412.542779,291.132263 412.664853,290.275321 C412.779217,289.472379 412.68734,288.865512 412.399503,288.521578 C412.179128,288.258646 411.879725,288.191144 411.753154,288.17443 C411.475597,288.243217 410.268351,288.612866 408.865145,290.067032 C409.507639,294.295814 409.997219,298.765028 409.421545,299.916403 C409.187677,300.385697 408.762346,300.668558 408.254776,300.692987 C407.38227,300.728988 406.419814,300.035334 405.690584,298.871744 C404.435151,296.86664 404.402384,294.354314 405.603205,292.151851 C406.164102,291.121977 406.750699,290.285607 407.327658,289.608024 C406.942804,287.120127 406.471214,284.446442 405.973281,281.958545 C405.299305,278.587348 404.06379,278.481918 404.051583,278.481275 L403.996971,278.485132 L403.982836,278.479989 L394.065946,277.694405 C393.72157,277.664833 359.968165,274.747501 343.831937,273.505481 C338.398368,273.088903 334.762497,273.97606 333.320741,276.075022 C331.713222,278.415702 333.220512,281.655754 333.235932,281.687898 L333.280906,281.8094 C340.742828,309.184623 352.224832,350.570499 353.275951,352.385957 C353.753967,353.020467 355.752122,354.09277 362.448191,355.432506 C365.399807,356.023301 419.477855,362.927054 422.069675,362.54712 C424.154567,362.248829 423.990731,357.978261 423.965674,357.498039 L420.359999,340.812415 L427.84248,343.308026 C431.538104,344.540403 434.408766,344.116753 438.755235,343.475172 C441.404879,343.083665 444.702799,342.597015 448.936832,342.434369 C457.124129,342.118721 457.828944,342.188794 460.792125,342.484513 C461.793773,342.5848 463.040853,342.708874 464.927857,342.854162 C468.89397,343.159524 472.811897,343.929679 476.959836,344.745478 C480.459499,345.433346 484.078023,346.145 487.986312,346.627151 C507.185307,348.997403 519.169099,350.115349 526.844328,350.25228 C534.170684,350.389211 542.710067,346.920941 543.267751,346.690795 C543.980919,346.311503 556.788388,339.501608 561.231874,337.076069 C563.674635,335.742762 567.42744,332.855645 571.401264,329.79881 C574.718458,327.245983 578.149375,324.607013 580.863268,322.860985 C583.832873,320.950383 585.500144,319.62029 585.804686,318.064551 C586.081601,316.6451 585.295831,314.752498 583.17496,311.738093 C578.013808,304.399118 560.496219,296.950213 554.412446,296.544564 C549.862306,296.239845 548.24001,297.967872 546.679393,299.636756 C546.218725,300.129835 545.784399,300.595271 545.283896,300.995778 C544.861778,301.333283 544.013044,302.094438 542.93751,303.058097 C538.705404,306.851657 530.827789,313.912913 527.021657,314.951787 C522.436179,316.202164 504.010746,319.165783 492.084779,319.165783 C480.32072,319.165783 465.680217,319.165783 460.626362,318.744062 C455.949651,318.354484 449.404568,317.149108 445.32152,315.33365 C442.992481,314.297348 441.480051,311.929667 440.017093,309.639773 C438.970471,308.00239 437.982315,306.455651 436.822614,305.626995 C435.547264,304.714766 432.759484,303.748536 430.519109,302.971952 C427.248174,301.837934 426.260019,301.495286 426.346755,300.595271 C426.416787,299.871403 427.241106,299.753115 427.512239,299.714543 C428.545368,299.515897 432.560311,294.356886 436.103021,289.805385 C438.527792,286.689406 441.202494,283.252637 443.952366,279.960513 C449.367945,270.165142 461.189829,256.814714 477.090262,248.271006 C487.499944,242.676774 488.560701,243.345356 489.130593,243.705361 C489.473685,243.922651 489.65808,244.291657 489.636878,244.717878 C489.524442,246.954413 481.811948,253.180584 479.848487,254.162886 C475.917711,256.129417 466.493614,261.591219 456.103207,269.587847 C452.582341,272.297533 448.716457,276.503815 444.977144,280.987815 C442.808728,285.005736 441.940719,288.117215 442.146959,289.874171 C442.928232,296.521421 462.229384,307.294593 472.989225,309.779276 C481.339715,311.707235 482.147972,309.486128 483.612215,305.452135 C483.939244,304.552763 484.275911,303.62382 484.729511,302.640876 C485.403487,301.180281 486.331891,298.867887 487.350886,296.124771 C486.818258,289.226161 486.545841,279.911012 488.911503,274.585498 C489.93628,272.280176 492.562152,266.990662 494.756268,267.650887 C496.000778,268.025036 496.309817,269.826994 495.727718,273.322264 C494.816662,278.79178 491.525809,288.987014 488.816414,296.322775 C488.960332,298.138875 489.120313,299.777544 489.250097,301.111494 C489.333621,301.971008 489.406865,302.711591 489.455695,303.303029 C489.841834,307.947103 498.718526,310.915865 507.776402,313.559336 C517.228768,316.317237 534.324882,304.476905 538.459971,300.338124 C540.715766,298.081017 547.828171,290.329322 554.420156,282.852131 C556.222993,279.405718 557.990493,275.378154 559.635277,271.630237 C560.06896,270.642792 560.496219,269.668848 560.917052,268.720619 C562.340176,265.51721 563.159355,262.587663 563.816626,260.234126 C564.736677,256.943287 565.401015,254.564678 567.115831,253.70645 C567.865621,253.331015 568.661671,253.538019 569.246982,254.256745 C571.092867,256.526709 571.229075,264.819056 565.913083,271.557593 C563.516581,274.593856 559.670614,279.079142 555.616479,283.680144 C554.176009,286.41683 552.702771,288.805726 551.230175,290.442466 C550.52279,291.229979 550.426416,291.653628 550.481028,291.780273 C550.880016,292.698288 555.743693,292.785075 560.033623,292.861576 C561.774781,292.892434 563.748522,292.927149 565.791651,293.006222 C575.811983,293.391299 583.436455,304.050684 589.003662,311.833237 C589.711048,312.82261 590.391449,313.774054 591.045507,314.662496 C593.003185,317.32011 594.538103,318.533201 595.742136,318.355127 C598.188109,318.002193 600.65657,311.738093 603.180927,304.791267 C605.955858,297.155288 608.083797,286.266399 607.70344,275.353082 C601.919712,262.439804 595.355355,253.568876 591.208701,249.41981 C588.533357,246.742267 584.459305,242.666488 580.763039,237.331974 C571.090297,237.130113 560.114578,243.857721 544.816803,253.2513 L542.698502,254.551178 C519.969646,268.489186 517.984341,267.21888 514.695416,265.115418 C514.221255,264.811342 513.729748,264.498265 513.135441,264.227618 C512.117089,263.764111 511.425123,262.947669 511.079461,261.800794 C509.798329,257.548869 513.822909,249.687243 515.333412,247.268133 C515.835842,246.463906 516.470626,245.69375 517.273743,244.719163 C518.385257,243.370428 519.819945,241.630185 521.556606,238.950071 C518.704576,240.7591 515.790225,242.356626 513.270365,243.302284 C508.076446,245.250815 502.996249,245.539462 498.164696,244.15794 C494.778112,243.189782 492.617406,238.206273 492.617406,235.922808 C492.617406,235.710662 492.621904,235.519088 492.625116,235.344228 C492.653386,234.03985 492.655313,233.962063 489.589976,231.917101 C487.534639,230.545865 486.471312,229.661923 486.37044,228.633977 C486.279849,227.723034 486.919772,227.082738 487.805129,226.196224 C489.399798,224.600627 491.906808,219.581118 493.112126,217.16908 C493.555447,216.281923 493.76747,215.703985 493.868341,215.343336 C493.590784,215.518196 493.173163,215.824844 492.560867,216.360995 C491.142241,217.603015 490.364823,218.587245 489.613106,219.538689 C488.65836,220.74728 487.755657,221.889655 485.769709,223.132318 C482.043246,225.461427 479.617832,224.004689 477.478328,222.72024 C475.758373,221.687795 474.146998,219.273828 473.338741,217.927021 C473.285414,217.838305 473.195465,217.780447 473.091381,217.769518 C472.42383,217.696231 471.147196,217.558015 469.402183,217.373512 C466.788519,217.098364 465.071133,216.315352 464.15044,214.979473 C462.660497,212.814939 463.509873,209.608959 464.493531,205.896399 C464.663792,205.254175 464.839193,204.592021 465.008811,203.912511 C466.890033,196.385176 461.550268,188.614837 460.935401,187.753395 C458.943671,184.96335 450.818696,172.161288 448.690115,164.917458 C447.613938,161.256971 447.613938,158.169279 447.613938,155.183803 C447.613938,152.281899 447.613938,149.541355 446.603938,146.510878 C446.174752,145.22 445.860573,144.863209 445.753276,144.773207 C445.027901,145.189143 443.749338,148.857987 442.716851,151.819677 C442.163022,153.406274 441.53659,155.205017 440.84848,157.011475 C439.897589,159.509657 438.73853,160.662319 437.411138,160.438601 C433.752137,159.82402 431.749484,148.129618 431.496984,140.021774 C431.081933,126.740776 442.695006,102.468031 460.641782,87.502077 C469.168958,80.393249 482.349715,75.5003851 497.757998,73.726071 C512.906071,71.9813288 528.517382,73.4052801 541.709062,77.736278 C558.002701,83.0862207 572.191531,93.1824536 584.038471,107.827616 C586.794127,105.435507 590.861754,105.153931 595.35407,107.080605 C607.515832,112.296188 610.438536,126.913707 611.686259,133.155307 C612.143714,135.445201 610.858727,138.941757 609.232575,143.369185 C606.083714,151.937322 602.165787,162.601207 608.595864,170.106684 C610.642849,172.496222 612.614662,174.651114 614.521583,176.735933 C621.833161,184.727418 627.608536,191.039733 627.608536,200.318239 C627.608536,202.216626 627.115101,203.785223 626.178988,204.944313 C627.100966,207.947789 627.250667,210.988552 626.599179,213.964386 C625.371373,219.578547 621.328803,224.607699 615.507811,227.762249 C613.632372,228.778623 611.598879,229.213201 609.49664,229.213201 C599.363873,229.21513 587.588249,219.12854 583.69281,215.508553 C579.488974,211.603134 576.497523,208.938448 573.770138,208.146435 C572.705526,219.308543 576.681919,228.648763 581.481989,235.803878 C587.198255,236.098954 592.53545,238.766854 598.105228,244.640091 C605.638466,252.585289 608.672963,263.798183 609.115641,274.985362 C612.57547,282.743486 615.747461,291.921704 617.963422,302.375371 C619.935235,311.673163 620.42353,318.090266 619.409675,322.233546 C619.718072,322.264404 620.009121,322.29719 620.280896,322.332548 C629.754465,323.569425 827.723989,323.998217 828.736559,324.002717 L828.736559,325.449169 C824.598257,325.431812 629.658091,325.015876 620.093931,323.767428 C619.729637,323.719856 619.356348,323.677426 618.976634,323.639497 C618.544236,324.769658 617.964064,325.68253 617.236761,326.398684 C614.311488,329.273587 609.580807,328.46486 603.697492,327.105838 C601.489242,326.596045 599.478879,325.942248 599.715959,324.623727 C600.153497,322.193688 611.369509,321.687752 617.927442,322.113973 C618.944509,318.225268 618.484484,311.801094 616.549293,302.674948 C614.651367,293.721733 612.047982,285.718033 609.169611,278.758994 C609.066169,288.69901 607.070584,298.319521 604.539802,305.284989 C601.093466,314.767927 598.928904,319.357357 595.948376,319.786793 C594.118554,320.054226 592.248898,318.734419 589.881951,315.520725 C589.224038,314.627139 588.539782,313.670552 587.827899,312.675393 C582.134763,304.716052 575.049343,294.809465 565.736397,294.451387 C563.707402,294.372958 561.742656,294.338243 560.007924,294.307385 C553.198776,294.186526 549.892503,294.05281 549.155563,292.356925 C548.934545,291.84906 549.0155,291.327052 549.209533,290.862259 C544.841218,295.70305 541.027376,299.815473 539.482821,301.360927 C536.244653,304.600978 521.554036,315.41658 510.905988,315.417866 C509.664048,315.417866 508.478647,315.271292 507.371631,314.94793 C497.055752,311.938024 488.478462,308.992406 488.015224,303.422602 C487.965752,302.837593 487.894435,302.103438 487.811554,301.251639 C487.756942,300.694273 487.69719,300.084192 487.636795,299.430396 C487.027711,300.984849 486.481592,302.295013 486.042126,303.2471 C485.614225,304.174757 485.287838,305.074772 484.971089,305.945857 C483.291611,310.570645 481.795243,313.29576 472.664123,311.188441 C461.252793,308.553327 441.597627,297.580866 440.711628,290.043246 C440.567067,288.815369 440.849765,287.172842 441.528238,285.231383 C440.042793,287.096984 438.602964,288.947157 437.243448,290.693827 C432.801889,296.400562 430.220349,299.665685 428.612188,300.74956 C429.288091,301.014421 430.196577,301.329426 430.992627,301.605216 C433.44117,302.454444 436.217385,303.416817 437.662996,304.449905 C439.05014,305.441206 440.110897,307.102376 441.234618,308.860618 C442.583212,310.970509 443.976781,313.152401 445.90876,314.011915 C449.836966,315.757943 456.191228,316.922818 460.746508,317.302753 C465.740611,317.719331 480.347705,317.719331 492.084779,317.719331 C503.892527,317.719331 522.11172,314.791713 526.6413,313.556122 C530.117834,312.607249 538.125232,305.429635 541.973127,301.980651 C543.10777,300.963635 543.92695,300.228837 544.38055,299.86626 C544.798814,299.531326 545.19973,299.102533 545.623776,298.649312 C547.246072,296.912927 549.269285,294.755464 554.509463,295.101326 C560.980659,295.53269 578.881817,303.121098 584.357148,310.905579 C586.758147,314.319205 587.588249,316.473454 587.223312,318.341627 C586.817256,320.418089 585.026627,321.903112 581.645183,324.07729 C578.982046,325.790532 575.576187,328.410859 572.282122,330.945043 C568.262682,334.037235 564.46683,336.958425 561.924482,338.346375 C557.36856,340.832344 544.049666,347.912886 543.915385,347.984244 L543.858203,348.011887 C543.487484,348.168104 534.718731,351.837591 526.817986,351.698732 C519.090715,351.560515 507.060021,350.439355 487.808984,348.063316 C483.849295,347.574094 480.205071,346.85794 476.680993,346.164929 C472.575459,345.357488 468.69801,344.595047 464.817348,344.296756 C462.912997,344.14954 461.657564,344.024823 460.648849,343.923893 C457.694021,343.62946 457.080439,343.568387 448.992087,343.879535 C444.836438,344.039609 441.717773,344.499902 438.966616,344.906195 C434.576456,345.553562 431.407035,346.02157 427.385667,344.680548 L422.308683,342.987235 L425.404217,357.343108 C425.423492,357.593183 425.833403,363.469634 422.273988,363.978785 C422.173116,363.993571 422.022773,364 421.82617,364 C415.577276,364 362.608814,356.939387 362.164851,356.850671 Z" id="Fill-6" fill="#85AFFB"></path><g id="Group-3" transform="translate(185.129042, 5.999842)" fill="#85AFFB"><path d="M8.55323281,294.066834 C8.76211992,294.744755 8.97809888,295.458627 9.20052497,296.207165 C15.4942162,298.161967 24.7091035,300.72279 27.2976274,301.002048 C37.4828081,302.10688 46.545543,304.304347 54.5432116,306.245026 C67.4258728,309.369499 76.7335988,311.624101 80.6599028,306.609023 C80.7972267,306.429913 80.9551815,306.295099 81.0847688,306.173767 C81.6024736,305.709622 82.4083652,304.98933 81.5953818,298.754507 C81.414862,298.525323 81.2208033,298.255053 81.0267446,297.954611 C77.2287386,298.775692 72.4101513,298.32567 65.4910882,297.676637 C56.8596665,296.870322 50.1198336,294.880211 35.6917946,290.186118 C32.0665717,289.008743 28.9235943,287.974528 26.1977465,287.07641 C11.970858,282.388737 9.24372076,281.547113 7.64741062,283.017227 C5.7274544,284.771734 6.79123135,288.274971 8.55323281,294.073895 L8.55323281,294.066834 Z M78.4807718,282.617921 C74.2946483,264.247276 71.151671,257.819219 69.4683245,254.366699 C69.3239088,254.06754 69.1878743,253.788925 69.0582869,253.524433 C63.7787296,242.431814 56.5289285,234.249892 54.5728684,233.186146 C54.6805355,235.326478 58.8157266,244.13047 62.815528,252.662266 C67.4980807,262.634645 73.3237101,275.055502 77.0572448,285.499729 C78.4524044,289.394568 79.8694843,292.718694 81.0119162,295.009247 C80.4735806,291.884774 79.6605971,287.846134 78.4665881,282.617921 L78.4807718,282.617921 Z M82.9828048,298.197276 C83.0485656,298.262115 83.1123922,298.305127 83.1633245,298.32567 C84.6880715,299.03248 86.3275774,299.582008 87.9322688,298.818704 C89.9463532,297.862809 91.5645836,294.966235 92.7360276,290.214365 C95.8867416,277.416671 92.9449148,266.266275 91.1113501,261.836033 C91.1829133,262.356671 91.262213,262.913902 91.3415128,263.469849 C92.5497055,271.744857 95.0602191,288.959954 85.8962642,295.779613 C84.9472462,296.485781 83.9479406,297.028246 82.8680458,297.420491 C82.9041498,297.683699 82.9408984,297.948191 82.9763577,298.197276 L82.9828048,298.197276 Z M96.4121829,191.553036 C97.5198004,190.995805 98.5984057,190.403908 99.6486437,189.783764 C98.6564299,189.826776 97.786067,189.711863 97.0743035,189.627123 C96.5772295,189.562284 95.8222702,189.462779 95.6778545,189.590531 C95.4837957,189.933343 95.7436152,190.611265 96.4121829,191.553036 L96.4121829,191.553036 Z M119.342056,163.973316 C118.860455,162.581523 118.335014,161.26163 117.832138,161.26163 C116.64522,161.26163 115.386095,165.634737 114.271386,169.501971 C113.264344,172.990442 112.092255,177.07081 110.39408,180.651725 C114.997978,175.095465 117.709642,168.917135 119.342056,163.973316 L119.342056,163.973316 Z M195.037845,180.758934 C193.246832,180.937402 191.146356,181.066438 188.722234,181.058735 L187.780952,181.058735 C185.104747,181.043969 182.810213,181.058735 179.128255,179.496819 C177.150275,178.654553 175.552675,178.632726 173.862237,178.619245 C172.884207,178.604479 171.877164,178.597418 170.747627,178.433073 C167.935387,178.027347 165.987064,176.928293 164.742767,176.101434 C165.900672,177.955447 168.525945,181.158882 172.474814,183.563064 C174.221987,184.625526 179.54474,187.871332 185.241427,186.523835 C187.190395,186.059048 188.319288,185.282263 190.370121,183.862223 L191.146356,183.326819 C192.613723,182.322134 193.894124,181.48051 195.045582,180.765996 L195.037845,180.758934 Z M120.960931,164.258993 C121.500556,165.849155 122.1111,167.646675 123.068499,169.337626 C129.505317,180.759576 151.745347,197.473936 166.540872,199.578959 L167.180428,199.670761 C170.129991,200.113079 174.581737,200.777519 179.177898,198.252005 C181.637479,196.903224 182.990732,195.519776 185.040276,193.429518 C186.226548,192.216193 187.572065,190.846226 189.463654,189.119966 C192.693023,186.18038 195.527183,184.140196 197.634106,182.684848 C197.296921,182.27206 196.980366,181.850285 196.685088,181.422732 C195.347308,182.23611 193.799996,183.227313 191.966431,184.483651 L191.196643,185.011351 C189.075537,186.480823 187.801583,187.365459 185.579256,187.886097 C179.307485,189.369693 173.604351,185.895987 171.726302,184.754562 C166.453836,181.544065 162.844086,176.50716 162.642291,174.838035 C162.592003,174.402778 162.749958,174.138286 162.887282,173.996411 C163.45463,173.417995 164.145118,173.903325 164.87171,174.417544 C166.000603,175.216798 167.885744,176.54953 170.963606,176.999552 C171.993213,177.149131 172.956415,177.163896 173.884802,177.170958 C175.639067,177.192143 177.459092,177.21397 179.695603,178.169865 C183.105491,179.618152 185.191139,179.610448 187.780952,179.618152 L188.729325,179.618152 C191.333967,179.646398 193.549202,179.47435 195.405332,179.274697 C195.117145,178.690503 194.87989,178.098606 194.699371,177.499005 C194.605887,177.178019 193.649133,176.107212 192.448677,175.894077 C191.685981,175.757979 191.642785,175.772745 190.534523,176.164989 C190.312097,176.24331 190.046475,176.336395 189.736368,176.442963 C187.715191,177.135649 185.349094,176.771652 184.147993,176.078965 C183.436229,175.664894 183.22025,175.202032 183.162226,174.881047 C183.004271,174.011176 183.737955,173.597105 184.443271,173.197157 C185.169863,172.790789 186.162077,172.227138 187.147844,171.006751 C187.514041,170.550952 187.816411,170.086165 188.11169,169.630365 C188.838282,168.503064 189.527481,167.43996 190.974217,167.054777 C191.426806,166.933445 191.793648,166.926383 192.009627,166.926383 L192.060559,166.926383 C194.605887,166.926383 200.496633,166.127771 202.497178,163.637565 C203.417184,162.496782 203.841405,161.097927 203.12255,157.624222 C201.561699,150.090691 201.317353,145.953187 201.115557,142.629061 L201.06527,141.779733 C201.036902,141.350896 200.483094,131.285431 206.869624,124.002269 C212.156273,117.981222 220.054011,116.767897 225.211072,117.567151 C227.850529,117.973519 229.706014,118.87934 230.187614,119.978394 C230.676952,121.105696 229.800142,122.118726 228.692524,123.395606 C227.505607,124.765573 226.024056,126.470006 225.527627,128.924262 C225.053118,131.257185 225.009922,132.976383 225.030553,134.360473 C225.131773,142.258001 222.995838,152.144356 219.593041,159.550135 C218.190789,162.596288 215.27733,168.931259 208.912075,174.267323 C206.43831,176.344099 204.74078,177.170958 202.590017,178.219939 C202.252187,178.384283 201.906621,178.554406 201.546871,178.733515 C202.130336,178.826601 202.510717,179.068624 202.711868,179.539189 C203.165746,180.595874 202.107771,181.359177 199.770041,182.942278 C202.834363,186.258701 206.812889,188.899128 208.538786,189.855023 C216.780801,194.384771 228.368878,188.470933 234.589717,185.295744 C236.833964,184.154961 256.434538,173.860313 254.830491,164.701311 C254.392086,162.196982 252.521128,161.069681 249.688258,159.365247 C246.703235,157.573506 242.617042,155.113473 238.337435,149.79089 C235.352413,146.07452 230.353306,139.860881 230.245639,131.078075 C230.245639,130.708299 230.202443,121.833691 236.108661,113.59335 C236.208592,113.457252 236.30272,113.322438 236.394914,113.194044 C234.16614,113.136266 231.964444,112.673405 229.95036,111.774004 C226.447633,110.211446 222.04553,106.045695 215.924622,86.9412775 C213.544341,79.5001904 212.156273,73.7076852 211.142139,69.4770956 C209.933946,64.4408323 209.142883,61.1090023 207.941137,61.0094968 C205.531844,60.7809551 200.483094,72.1598929 192.865806,89.3595826 L192.491872,90.2082684 C188.550095,98.7618914 181.091407,106.359619 173.474119,109.555993 C165.900672,112.73696 156.736717,112.372963 147.673982,108.542963 C138.532592,104.675729 131.131284,97.8059964 128.368687,90.6152781 C127.20369,87.5761869 126.916148,84.6443049 126.729181,82.7106879 C126.678894,82.2041727 126.627961,81.6546455 126.56349,81.2482777 C125.031651,83.6807062 121.967329,94.8811761 123.953046,107.515167 C124.608075,111.674498 125.564184,114.334826 126.491927,116.910414 C127.70012,120.264071 128.836749,123.423853 129.117199,129.331271 C129.347362,134.16082 129.635549,140.167102 126.470007,146.616343 C125.620919,148.349665 124.700913,149.93405 123.715791,151.36051 C123.471445,153.186275 123.154891,154.942066 122.801588,156.560476 C122.449574,158.165403 121.873845,160.791065 120.859711,163.944427 C120.89646,164.044575 120.924827,164.14408 120.960931,164.244228 L120.960931,164.258993 Z M224.124731,128.674535 C224.693368,125.856282 226.376069,123.916245 227.605538,122.496205 C228.260566,121.740605 229.001987,120.884216 228.871755,120.577353 C228.698971,120.178047 227.490779,119.399978 224.995093,119.015438 C220.197137,118.272677 212.860944,119.386497 207.963057,124.971646 C201.956908,131.820835 202.503625,141.623092 202.503625,141.722598 L202.553913,142.571283 C202.755063,145.85304 203.000054,149.93405 204.53963,157.360372 C205.258485,160.827016 204.99931,162.846015 203.626071,164.550448 C200.62622,168.275164 192.139859,168.37467 192.038639,168.37467 C191.887776,168.37467 191.650521,168.37467 191.340414,168.45299 C190.434592,168.695655 189.967175,169.415947 189.319883,170.414854 C189.024604,170.871937 188.68613,171.399638 188.269645,171.913214 C187.111095,173.346736 185.932559,174.011176 185.155035,174.44579 C184.989344,174.538234 184.803021,174.645443 184.673434,174.731468 C185.191139,175.166082 187.283878,175.786226 189.261859,175.108947 C189.570676,175.002379 189.822759,174.916355 190.046475,174.838035 C191.239839,174.417544 191.556393,174.302631 192.693023,174.502284 C194.390553,174.802726 195.807633,176.222766 196.073255,177.107403 C196.27505,177.784682 196.570329,178.4549 196.922342,179.118056 C197.267264,179.075044 197.598002,179.033316 197.907464,178.996724 C197.957752,178.996724 198.000947,178.983242 198.05188,178.983242 C199.598547,178.119149 200.835107,177.52019 201.949816,176.978366 C204.093488,175.937089 205.640155,175.180205 207.977886,173.218342 C214.098794,168.081931 216.925862,161.946613 218.284917,158.993546 C221.614217,151.766877 223.694062,142.121904 223.592842,134.416966 C223.571567,132.961618 223.621209,131.142914 224.117639,128.681597 L224.124731,128.674535 Z M198.821023,181.886236 C199.799698,181.223079 200.78482,180.545158 201.187121,180.145852 C200.677152,180.095778 199.612086,180.217111 198.518652,180.353209 C198.324594,180.466837 198.123443,180.581108 197.914556,180.694737 C198.195006,181.094043 198.497377,181.493991 198.821023,181.879816 L198.821023,181.886236 Z M120.032544,125.542358 L119.846222,125.172583 C119.046778,123.602963 116.917934,119.44299 114.789091,113.578584 C114.775552,113.550338 113.688565,110.532432 112.897502,107.836153 C110.258046,98.7907801 109.243912,70.3045964 119.471644,66.6877312 C123.693871,65.1970743 127.218519,68.5070773 131.685092,72.6946548 C136.856983,77.5383267 143.286708,83.574139 153.277186,84.2302335 C164.296625,84.9582287 173.286508,78.7157017 176.668029,76.3686554 C187.600432,68.7709274 194.21777,56.7930306 198.173731,49.630559 C200.733887,44.9936017 201.691286,43.2602798 203.000054,43.8592388 C203.259229,43.9805713 203.388172,44.166101 203.453288,44.2514831 L203.539679,44.365754 C207.768999,50.2872954 216.572559,62.6003012 222.297613,67.9081182 C228.339221,73.5150938 235.259574,75.2773045 237.862926,75.933399 C243.084459,77.2603533 250.241422,79.0796994 255.305,75.4056987 C261.641887,70.8188152 260.865008,60.5241666 260.490429,55.5732855 C259.771574,46.0637676 255.427496,37.3817504 253.823449,35.9552906 C252.737752,39.5150204 248.521971,49.609374 243.228875,50.2872954 C237.416785,51.0287721 235.209286,44.743875 232.654932,37.4600709 C231.209485,33.3296288 229.569979,28.6573631 227.066557,24.4338352 C219.025048,10.8510107 191.693717,1.68366332 180.084365,1.41275151 C177.178642,1.34149272 175.172294,1.81911922 174.588829,2.71787876 C173.956365,3.68853907 173.927997,5.0296167 173.905433,6.32768227 C173.877065,7.9043633 173.848698,9.39566217 172.704976,10.1942742 C170.827571,11.5071051 167.425419,8.96040576 164.692479,6.9202216 C164.210234,6.56328566 163.771829,6.22817675 163.39725,5.96432663 C150.472683,-3.10287322 128.894129,5.77879698 114.335857,16.1370007 C105.079064,22.72876 99.9439224,30.7046089 97.1813259,34.991692 C91.9024133,43.189021 87.7311183,49.6665094 87.0258019,58.8903502 C86.7376151,62.6856833 86.953594,68.1719684 87.1702177,73.4720818 C87.5074028,81.9903963 87.8310488,90.0298004 86.3140384,92.9334357 C85.7737687,93.9605895 85.1625805,94.9241881 85.1342131,94.9665582 C84.0117672,96.7217072 82.7242748,98.3336966 81.2923665,99.746675 L81.2285399,99.8108722 C80.9983773,100.038772 58.830555,124.629475 63.793558,148.392677 C64.9798305,154.085677 67.3891241,158.080663 68.3748908,159.53537 C69.152415,160.684498 71.1658547,163.409665 74.4242357,166.127771 C71.7841347,162.596288 69.9505701,158.316267 69.8996377,153.507261 C69.8280746,146.345431 72.9923275,139.553377 78.1571257,135.779871 C82.2639495,132.783792 86.8672025,131.998661 90.5504496,131.998661 C92.901719,131.998661 94.8726075,132.319647 96.1027205,132.577077 L96.2103876,132.59762 C96.4121829,132.619447 96.5997945,132.726014 96.7216453,132.905124 C96.915704,133.183098 96.8860472,133.560577 96.6487927,133.803242 C96.1671918,134.431732 93.2472853,139.012196 92.6863847,143.355772 C92.2763471,146.502072 93.8520264,150.418096 96.7938532,153.5721 C100.245648,157.274989 104.928201,159.257396 109.690053,159.014731 C115.372556,158.729054 119.565772,154.762957 122.355446,150.803921 C123.492076,142.143731 123.219362,131.863847 120.040281,125.521815 L120.032544,125.542358 Z M246.587187,108.671357 C253.637127,103.40591 253.319283,93.0688916 252.643624,89.6664448 C252.075631,90.8219928 251.233636,92.7979798 250.464493,94.6102643 C248.436224,99.3826774 245.903791,105.325404 244.019938,107.472155 C242.948425,108.692542 242.178637,109.441081 242.15027,109.470611 C241.480413,110.119644 240.977536,110.547197 240.531395,110.924676 C240.29414,111.124329 240.071069,111.310501 239.848643,111.517857 C242.301133,111.082601 244.652402,110.126064 246.594279,108.677777 L246.587187,108.671357 Z M96.3548034,175.636647 C95.6926829,175.515956 94.851332,175.38692 94.0667159,175.273291 C91.6722507,174.916355 88.5647326,174.453494 85.4578592,173.568858 C89.5434074,175.651412 93.5638395,176.407654 96.3548034,175.636647 L96.3548034,175.636647 Z M267.50362,221.99338 C265.90731,218.562045 262.814621,215.50883 260.469154,213.396745 C256.074788,209.444771 251.967964,208.631394 242.961964,206.85506 C240.904684,206.44805 238.59661,205.99225 235.971337,205.442081 C228.260566,203.815968 222.010071,202.231584 216.989688,200.955345 C208.618086,198.829137 203.079354,197.423862 202.194163,199.000543 C201.798954,199.706711 202.525545,200.684433 203.733738,202.231584 C205.222381,204.129892 207.070774,206.491062 206.891544,209.609116 C206.323552,219.189892 185.572809,228.813039 165.620222,228.813039 L165.210184,228.813039 C148.969211,228.706472 137.352122,222.121774 123.902113,214.502861 C113.853612,208.810504 100.77109,199.349775 96.0524329,193.350555 C84.5804044,198.864445 70.5327462,201.298158 58.7293351,203.345404 C54.0403352,204.158139 49.6021288,204.928504 46.0994014,205.784894 C43.8190505,206.341483 40.3459799,207.367995 36.5615128,209.837015 C36.5615128,209.837015 36.0734649,210.158001 35.5976664,210.493752 C25.8741004,217.412916 15.998382,246.062803 15.897162,246.355541 C13.1061982,254.524624 10.3519829,261.314752 7.92076906,267.315256 C2.50517731,280.669539 -0.775123971,288.752597 3.19502055,294.124611 C3.63471502,294.387819 5.29485178,294.973297 7.5687556,295.707712 C7.44626007,295.294283 7.32376454,294.887915 7.20126901,294.50209 C5.27422095,288.167119 4.11631586,284.344181 6.69839264,281.981728 C8.97100703,279.899174 11.6755793,280.790871 26.6793473,285.742395 C29.4051952,286.640512 32.5410807,287.675369 36.1663036,288.852103 C50.494412,293.510245 57.1691289,295.486874 65.6554901,296.278424 C72.3385882,296.906914 76.8412659,297.327405 80.3007975,296.685434 C78.2506092,292.926051 76.0714782,286.912066 75.7400956,285.998541 C72.0284811,275.619152 66.2176801,263.234888 61.5486663,253.289471 C53.7811604,236.739456 52.133918,232.773359 53.7598849,231.81618 C53.9539436,231.702551 54.2853263,231.595342 54.7598352,231.73786 C57.3058081,232.515928 65.1674421,241.967669 70.3889751,252.940239 C70.5114707,253.197669 70.641058,253.467939 70.791921,253.767098 C72.5042795,257.270334 75.6898079,263.791477 79.9126801,282.32454 C81.2569073,288.217193 82.1350068,292.648078 82.681079,296.007512 C83.5301664,295.665984 84.3134931,295.223666 85.0697418,294.665793 C93.5490111,288.353291 91.118442,271.703128 89.9528003,263.698391 C89.4570158,260.28824 89.3422568,259.375357 89.7226377,258.8682 C89.8599616,258.690374 90.0540203,258.576103 90.2699993,258.539511 C90.5865535,258.497783 90.8876346,258.625535 91.1680849,258.933039 C92.6077297,260.509078 98.1677372,274.320445 94.160844,290.571301 C92.865615,295.829044 91.0397869,298.95416 88.5860081,300.123189 C86.6879722,301.030294 84.8389344,300.595038 83.2213487,299.917116 C83.8389841,305.673671 82.92607,306.487691 82.0847192,307.250994 C81.990591,307.329315 81.9041994,307.407635 81.8326363,307.500721 C77.3376951,313.250214 67.6489436,310.903168 54.2343939,307.6503 C46.2786317,305.724387 37.2668292,303.53334 27.1751319,302.442631 C25.3415672,302.242978 16.4148668,299.910055 9.71951918,297.869871 C10.9638159,302.157596 11.712328,303.743264 12.6046112,310.241938 C12.6175055,310.229098 11.1340202,310.172605 11.1340202,310.172605 C10.1927387,303.30223 9.36621629,301.743524 8.07163197,297.349232 C4.83517119,296.328498 2.41104917,295.443862 2.1022315,295.037494 C-2.42945831,289.03057 0.965601947,280.648354 6.5900808,266.772148 L6.56171342,266.766371 C8.98583544,260.787694 11.7336035,254.009763 14.509739,245.884977 C14.9197767,244.686417 24.6298037,216.507737 34.73504,209.323438 C35.2385611,208.967145 35.7498188,208.631394 35.7498188,208.631394 C39.7193186,206.042324 43.3445415,204.971516 45.7325596,204.386681 C49.2862193,203.516168 53.7450565,202.746445 58.4637132,201.925364 C70.101433,199.906364 83.9331122,197.509244 95.1898065,192.159057 C94.311707,190.789733 93.9951527,189.662432 94.4335578,188.892066 C94.9809194,187.921406 96.0878921,188.063923 97.2677175,188.214145 C98.4120836,188.356662 99.8356105,188.542834 101.518312,188.050442 C107.984787,186.174603 110.83313,176.314568 112.905239,169.109727 C114.516377,163.523936 115.573707,159.835812 117.845677,159.835812 C118.860455,159.835812 119.500011,160.599116 120.040281,161.768787 C120.708848,159.457049 121.133715,157.545259 121.414165,156.276082 C121.593395,155.469767 121.759086,154.628143 121.909305,153.764691 C118.37821,157.909257 114.213362,160.235118 109.761617,160.463018 C104.597463,160.72751 99.4758605,158.579475 95.7358786,154.563303 C92.5065097,151.103079 90.7947959,146.751799 91.2544765,143.192711 C91.7289855,139.561081 93.7147024,135.693847 94.9306317,133.818007 C91.5349268,133.22611 84.7312673,132.769027 79.0203968,136.942481 C74.2153486,140.445717 71.2735218,146.794811 71.3457297,153.507261 C71.4172929,160.256303 75.280415,165.906933 79.8114601,169.772883 C81.0557567,170.436681 82.4006287,171.043344 83.8467206,171.556921 C87.4790354,172.840863 91.4279044,173.43276 94.3052598,173.860313 C97.635204,174.360408 98.8795007,174.545296 98.8214765,175.601338 C98.800201,175.993583 98.5268425,176.271556 98.2824962,176.407654 C94.750112,178.276432 88.9889539,177.342364 83.2419795,173.968164 C81.8248997,173.133602 80.387189,172.127633 78.9984766,170.95732 C72.2953924,167.340454 68.3748908,162.103896 67.1879736,160.348747 C66.1596559,158.82214 63.6356033,154.641624 62.3977537,148.698897 C57.2045881,123.830863 79.9842432,99.0616919 80.2214977,98.8260885 L80.2859691,98.7618914 C81.6385776,97.4208137 82.8603093,95.8942065 83.9253756,94.2250816 C83.9253756,94.2180199 84.5372086,93.2691866 85.0400849,92.2985263 C86.3856016,89.7306419 86.054219,81.5050662 85.7383095,73.5510442 C85.5216858,68.2072768 85.3069963,62.6786216 85.6009855,58.7979063 C86.3346693,49.2171296 90.801243,42.2754961 95.9808697,34.236092 C98.7924644,29.8700465 104.028826,21.7369146 113.509335,14.9885144 C128.447987,4.3587569 150.702201,-4.69431958 164.238601,4.80813667 C164.626719,5.07969045 165.079952,5.42186104 165.569289,5.78585866 C167.288095,7.06980086 170.863675,9.75195613 171.884256,9.03872623 C172.431618,8.65354357 172.452893,7.51918063 172.474814,6.31355891 C172.503181,4.88709912 172.531548,3.26740603 173.387728,1.95457512 C174.287103,0.578189081 176.538442,-0.0785473564 180.120469,0.00747677126 C192.009627,0.278388576 220.025643,9.7237094 228.310854,23.727667 C230.878747,28.0718855 232.54791,32.8231136 234.014633,37.0106911 C236.553514,44.2514831 238.380631,49.4880414 243.041264,48.8890824 C247.228032,48.3536785 251.262648,39.4720083 252.464393,35.4911455 C252.557232,35.191345 252.744843,34.5641392 253.377307,34.3997946 C253.722229,34.3144125 254.096807,34.3997946 254.470741,34.6777681 C256.650517,36.2403258 261.195745,45.8641145 261.922337,55.4808417 C262.317547,60.6808076 263.138267,71.5102181 256.146351,76.5683084 C250.529609,80.6345534 242.998712,78.7227634 237.496084,77.3245504 C234.791512,76.6395672 227.620366,74.8131594 221.313136,68.9564571 C215.522321,63.5844429 207.070774,51.7779523 202.461074,45.3287107 C201.835058,45.9636201 200.619128,48.1681488 199.439303,50.3155422 C195.425963,57.5852229 188.708695,69.7486494 177.494551,77.5383267 C173.999561,79.9643355 164.71311,86.4129353 153.183058,85.6566933 C142.674875,84.9652904 136.036263,78.7368868 130.699326,73.7365739 C126.592502,69.8841053 123.341213,66.8379524 119.953889,68.0365125 C111.286364,71.0967887 111.487514,97.8843169 114.279123,107.443909 C115.056002,110.097817 116.126871,113.065649 116.141699,113.100958 C118.241531,118.87934 120.341362,122.981535 121.125978,124.529969 L121.320037,124.907448 C124.276692,130.79304 124.837592,139.860881 124.096172,148.06463 C124.513946,147.336635 124.873696,146.64459 125.182514,146.009681 C128.189457,139.889128 127.915454,134.081215 127.685936,129.416653 C127.412577,123.724296 126.312052,120.655674 125.139318,117.409868 C124.1903,114.770725 123.211625,112.045557 122.535966,107.751413 C120.43549,94.3746609 123.90985,82.0475318 125.78661,79.9572739 C126.110256,79.6003379 126.456468,79.42187 126.823309,79.4359933 C127.865811,79.4790054 127.98057,80.6486767 128.167537,82.5893554 C128.348056,84.4517135 128.62077,87.262263 129.72194,90.1228863 C132.35366,96.9643723 139.452598,103.527243 148.242619,107.251317 C156.945604,110.93238 165.706613,111.288673 172.920955,108.264348 C180.220399,105.204071 187.391545,97.8913786 191.189551,89.6446178 L191.556393,88.817117 C200.791911,67.95755 204.633113,59.3185449 208.070725,59.6254071 C210.30788,59.8179984 211.012551,62.7498804 212.552127,69.1849988 C213.558524,73.3937613 214.940145,79.1580198 217.306243,86.5490331 C223.24792,105.110986 227.332824,109.077083 230.547364,110.511888 C232.698128,111.467783 235.143526,111.874151 237.574739,111.7663 C237.811994,111.49603 237.957054,111.338747 237.970593,111.325266 C238.589518,110.676233 239.071119,110.269223 239.581732,109.833967 C240.027874,109.455846 240.495935,109.063602 241.128399,108.449877 C241.136136,108.442174 241.891095,107.708401 242.918768,106.531026 C244.652402,104.555039 247.242215,98.4839179 249.126068,94.0536753 C251.794536,87.7758399 252.089815,87.2834481 252.938902,87.440731 C253.492711,87.5402365 253.729965,88.1180105 253.945944,89.01677 C254.779559,92.527068 255.376563,103.877117 247.435629,109.805078 C244.796818,111.774004 241.552621,112.91607 238.251044,113.172217 C237.970593,113.515029 237.632764,113.942582 237.273658,114.442678 C231.648535,122.28949 231.676902,130.999754 231.676902,131.085778 C231.778122,139.375551 236.58317,145.354228 239.452789,148.928081 C243.573797,154.049727 247.371803,156.332576 250.420652,158.173107 C253.477883,160.013638 255.68667,161.340592 256.240479,164.486893 C257.981205,174.438729 239.050488,184.647353 235.237654,186.594452 C228.771824,189.890973 216.745342,196.032711 207.825734,191.131903 C205.87741,190.06238 201.740929,187.307682 198.554756,183.790964 C196.461372,185.225127 193.635594,187.258892 190.419764,190.183712 C188.557832,191.880442 187.227143,193.236927 186.05441,194.435487 C183.990038,196.539226 182.501395,198.058772 179.860649,199.51412 C174.840912,202.268176 169.906276,201.533119 166.95091,201.090801 L166.317157,200.997715 C151.163171,198.836199 128.383516,181.721891 121.794546,170.037375 C121.07569,168.75921 120.53671,167.411713 120.090568,166.177845 C117.637434,172.940368 113.235977,181.422732 105.158364,187.742938 C102.756162,189.620061 100.108324,191.260298 97.288993,192.701523 C101.181127,197.294826 111.452055,205.81314 124.570681,213.247166 C137.84146,220.766573 149.307041,227.265247 165.17408,227.371814 C184.227292,227.515616 204.883907,218.31938 205.409348,209.508968 C205.560856,206.92696 203.963901,204.885492 202.553913,203.087973 C201.245145,201.41949 200.015032,199.849871 200.892487,198.287313 C202.316658,195.747676 207.014039,196.938532 217.306243,199.557132 C222.320178,200.826309 228.548109,202.410694 236.229868,204.030387 C238.848693,204.579272 241.149675,205.036355 243.200508,205.442081 C252.47084,207.269131 256.707251,208.110755 261.389804,212.326579 C264.158848,214.823847 267.417874,218.084418 269,221.907356 L267.50362,221.99338 Z" id="Fill-1"></path></g></g></g></svg>