<svg xmlns="http://www.w3.org/2000/svg" xmlns:xlink="http://www.w3.org/1999/xlink" width="425px" height="60px" viewBox="0 0 425 60"><title>Group 38</title><defs><polygon id="path-1" points="0 0 57.9550956 0 57.9550956 47.1688368 0 47.1688368"></polygon><polygon id="path-3" points="0 0 94.204804 0 94.204804 7.23890129 0 7.23890129"></polygon></defs><g id="Page-1" stroke="none" stroke-width="1" fill="none" fill-rule="evenodd"><g id="AofL_Touchpoint_1-Copy-31" transform="translate(-858.000000, -661.000000)"><g id="Group-38" transform="translate(858.000000, 661.000000)"><g id="Group-35"><g id="Group-3" transform="translate(17.135662, 12.831163)"><mask id="mask-2" fill="white"><use xlink:href="#path-1"></use></mask><g id="Clip-2"></g><path d="M7.24733512,8.2719494 L7.24733512,29.734003 C7.24981772,30.8327133 7.93687774,31.812996 8.9690194,32.1906002 L28.9775478,39.4655258 L48.9860762,32.1912202 C50.0182178,31.8136161 50.7058985,30.8333333 50.7077604,29.734623 L50.7077604,8.2719494 C44.4273988,9.93737599 38.5262546,12.7945188 33.3264453,16.6865079 L28.9775478,19.9460565 L24.6286503,16.6865079 C22.0318489,14.7426835 19.2538176,13.0524554 16.3336573,11.640005 C13.4190829,10.2306548 10.3766546,9.10280258 7.24733512,8.2719494 L7.24733512,8.2719494 Z M28.9775478,47.1688988 L28.9775478,47.1688988 L6.4901416,38.9936756 C2.59307758,37.577505 -0.000620539062,33.8771081 -8.24229573e-13,29.734003 L-8.24229573e-13,2.7436756 C0.00124141221,1.63876488 0.664716716,0.641121032 1.68444536,0.212673611 C2.01835529,0.0719246032 2.37647059,0 2.73893043,0 C2.88043873,0 3.02194703,0.0111607143 3.16159337,0.0328621032 C5.53558125,0.398685516 7.88412245,0.912078373 10.1935627,1.56994048 C12.4682465,2.21912202 14.7007261,3.00719246 16.8785884,3.93043155 C21.1778339,5.75582837 25.2399909,8.09461806 28.9769271,10.8953373 C36.5556895,5.20585317 45.4241634,1.47445437 54.7935022,0.0328621032 C54.9331485,0.0111607143 55.0746568,0 55.2161651,0 C55.5780043,0 55.9367403,0.0719246032 56.2706502,0.212673611 C57.2903788,0.641121032 57.9538541,1.63876488 57.9550956,2.7436756 L57.9550956,29.734003 C57.9557161,33.8771081 55.3613973,37.577505 51.4643333,38.9930556 L28.9775478,47.1688988 Z" id="Fill-1" fill="#0342EC" mask="url(#mask-2)"></path></g><g id="Group-6"><mask id="mask-4" fill="white"><use xlink:href="#path-3"></use></mask><g id="Clip-5"></g><path d="M92.3534038,7.23890129 L1.85202087,7.23890129 C0.829188967,7.23890129 0,6.41052827 0,5.38932292 L0,1.85013641 C0,0.828311012 0.829188967,-6.20039683e-05 1.85202087,-6.20039683e-05 L92.3534038,-6.20039683e-05 C93.3762357,-6.20039683e-05 94.204804,0.828311012 94.204804,1.85013641 L94.204804,5.38932292 C94.204804,6.41052827 93.3756151,7.23890129 92.3534038,7.23890129" id="Fill-4" fill="#0342EC" mask="url(#mask-4)"></path></g><path d="M85.7432285,45.4276414 L82.5381897,46.609437 L82.5381897,14.9161086 C82.551844,12.9301215 84.1742243,11.3316592 86.1621676,11.3452134 C88.1494902,11.3316592 89.7718704,12.9301215 89.7855247,14.9161086 L89.7855247,39.6829737 C89.776215,42.2548983 88.1625239,44.5478051 85.7432285,45.4276414" id="Fill-7" fill="#0342EC"></path><path d="M121.386127,19.2795139 L116.821243,31.8222966 L125.949149,31.8222966 L121.386127,19.2795139 Z M113.267399,42.2209821 L106.157228,42.2209821 L116.070877,16.703869 C117.214115,13.7735615 120.519079,12.3232887 123.452273,13.4654018 C124.941213,14.0451389 126.117966,15.2219742 126.696412,16.7100694 L136.569099,42.2209821 L129.458927,42.2209821 L127.659041,37.2848462 L115.11011,37.2848462 L113.267399,42.2209821 Z" id="Fill-9" fill="#000000"></path><path d="M148.705918,25.4885913 C145.513292,25.4885913 143.450871,27.7827381 143.450871,31.3355655 C143.450871,34.8883929 145.513913,37.1837798 148.705918,37.1837798 C149.64372,37.1657986 150.564145,36.9264633 151.392093,36.4856151 C152.193352,36.0869296 152.883516,35.4960317 153.400517,34.765625 L153.400517,27.906746 C152.30569,26.40563 150.565386,25.5090526 148.705918,25.4885913 M147.672535,50.9015377 C143.892774,50.9015377 141.215908,49.9547371 138.714066,47.7356151 L141.168739,43.6910962 C142.745812,45.4662698 144.872781,46.328745 147.672535,46.328745 C149.041069,46.3702877 150.38726,45.9796627 151.520567,45.2126736 C152.767454,44.2875744 153.399276,42.8565228 153.399276,40.9647817 L153.399276,38.8107639 C152.62967,39.8270089 151.650904,40.6665427 150.529389,41.2729415 C149.437665,41.8526786 148.219328,42.1546379 146.982371,42.1515377 C144.505356,42.2265625 142.117713,41.2220982 140.441337,39.3985615 C138.720273,37.4900794 137.810399,34.702381 137.810399,31.3355655 C137.810399,28.0127728 138.714687,25.2418155 140.426441,23.3221726 C141.228321,22.4187748 142.221983,21.7051091 143.334188,21.2326389 C144.489839,20.7508681 145.73114,20.5078125 146.983613,20.5195933 C149.51959,20.5183532 151.904129,21.7274306 153.400517,23.7729415 C153.385001,22.2842262 154.579133,21.0633681 156.069314,21.0447669 L156.243717,21.0447669 C157.734519,21.0633681 158.928651,22.2836062 158.912676,23.7729415 L158.912676,40.8327133 C158.912676,44.4828869 157.671213,47.1974206 155.214058,48.9006696 C152.83014,50.5543155 149.798262,50.9015377 147.672535,50.9015377" id="Fill-11" fill="#000000"></path><path d="M174.295955,24.9665179 C170.853828,24.9665179 169.313994,27.5043403 169.041529,29.6788194 L179.549141,29.6788194 C179.475283,28.5274058 179.02345,27.4324157 178.263153,26.5637401 C177.234735,25.4823909 175.787378,24.8995536 174.295955,24.9665179 M174.649105,42.8410218 C173.10803,42.8528026 171.576886,42.5855655 170.13077,42.0535714 C168.787062,41.5575397 167.558795,40.7936508 166.519206,39.8090278 C165.480857,38.8163442 164.665323,37.6147073 164.125977,36.2841022 C163.53698,34.8133681 163.242171,33.2415675 163.257067,31.6579861 C163.218587,28.7301587 164.325827,25.9021577 166.34232,23.7772817 C167.332258,22.7535962 168.521424,21.9419643 169.835961,21.3932292 C171.249182,20.8072917 172.766052,20.5102927 174.295955,20.5195933 C175.789861,20.5059524 177.270733,20.7955109 178.649197,21.3715278 C179.933944,21.9171627 181.08525,22.734375 182.023674,23.7667411 C182.990647,24.8412698 183.732324,26.0980903 184.204639,27.4640377 C184.732813,28.9973958 184.994727,30.608879 184.979832,32.2302827 L184.979832,33.4635417 L169.130282,33.4635417 C169.297857,34.8077877 169.953885,36.0435268 170.973614,36.9357639 C172.180779,37.9259673 173.706337,38.4443204 175.267273,38.3940972 C176.966614,38.3940972 179.540451,37.6537698 180.962982,36.281622 L183.435033,39.8914931 C181.414195,41.7385913 178.129713,42.8410218 174.649105,42.8410218" id="Fill-13" fill="#000000"></path><path d="M205.439573,25.4947917 C203.895395,25.4544891 202.42135,26.1371528 201.454377,27.3400298 C200.513471,28.5801091 200.022536,30.1029266 200.061637,31.6586062 C200.020053,33.2266865 200.510988,34.7631448 201.454997,36.0168651 C202.420109,37.2222222 203.895395,37.906746 205.440194,37.8652034 C206.990578,37.9048859 208.47145,37.2216022 209.446492,36.0168651 C210.401673,34.7674851 210.900676,33.2297867 210.860954,31.6586062 C210.898193,30.0998264 210.39857,28.5751488 209.445871,27.3400298 C208.468968,26.1377728 206.989337,25.4563492 205.439573,25.4947917 M205.439573,42.8410218 C203.837054,42.8571429 202.247568,42.5539435 200.764213,41.9481647 C199.437883,41.3981895 198.242511,40.5741567 197.257538,39.5300099 C195.298145,37.3809524 194.236212,34.5647321 194.289588,31.6586062 C194.239936,28.764881 195.301869,25.9623016 197.257538,23.827505 C198.243131,22.7839782 199.437883,21.9599454 200.764213,21.4093502 C202.248188,20.8054315 203.837674,20.5028522 205.439573,20.5195933 C207.050161,20.5028522 208.647715,20.8066716 210.139759,21.4118304 C211.470433,21.9611855 212.66953,22.7852183 213.659467,23.8299851 C215.61824,25.9623016 216.682655,28.764881 216.633003,31.6586062 C216.686379,34.5653522 215.621964,37.3815724 213.659467,39.5281498 C212.67015,40.5735367 211.470433,41.3975694 210.139759,41.9463046 C208.647715,42.5527034 207.050161,42.8571429 205.439573,42.8410218" id="Fill-15" fill="#000000"></path><path d="M218.494955,20.9877232 L222.02149,20.9877232 L222.02149,19.8449901 C222.02149,15.3168403 224.929858,12.4590774 229.203036,12.4590774 C230.439993,12.4404762 231.667639,12.6661706 232.817084,13.1231399 C233.847364,13.5900298 234.302921,14.8028274 233.835571,15.8320933 C233.790264,15.9312996 233.737508,16.0267857 233.677305,16.1173115 C233.164027,16.8880208 232.208846,17.2364831 231.318834,16.9773065 C230.988027,16.8923611 230.647911,16.8508185 230.306553,16.8532986 C228.764857,16.8532986 227.662582,17.8645833 227.662582,19.84313 L227.662582,20.9858631 L231.981068,20.9858631 L231.981068,25.8655754 L227.661341,25.8655754 L227.661341,42.2209821 L222.02149,42.2209821 L222.02149,25.8668155 L218.494955,25.8668155 L218.494955,20.9877232 Z" id="Fill-17" fill="#000000"></path><path d="M244.562272,42.2209821 L244.562272,16.1793155 C244.562272,14.4593254 245.958115,13.0642361 247.6798,13.0642361 C249.402104,13.0642361 250.797947,14.4593254 250.797947,16.1793155 L250.797947,36.7584325 L263.181785,36.7584325 L263.181785,42.2209821 L244.562272,42.2209821 Z" id="Fill-19" fill="#000000"></path><path d="M276.702655,24.9665179 C273.259907,24.9665179 271.720073,27.5043403 271.448228,29.6788194 L281.956461,29.6788194 C281.882603,28.5274058 281.43077,27.4324157 280.670473,26.5637401 C279.642055,25.4823909 278.194698,24.8995536 276.702655,24.9665179 M277.054564,42.8410218 C275.513489,42.8528026 273.982965,42.5855655 272.536849,42.0535714 C271.193762,41.5575397 269.964874,40.7936508 268.925905,39.8090278 C267.888177,38.8163442 267.072643,37.6147073 266.533298,36.2841022 C265.944921,34.8133681 265.649491,33.2415675 265.664387,31.6579861 C265.625907,28.7301587 266.733147,25.9021577 268.74964,23.7772817 C269.738336,22.7535962 270.926261,21.9425843 272.239558,21.3932292 C273.65402,20.8066716 275.17151,20.5096726 276.702655,20.5195933 C278.19656,20.5059524 279.678053,20.7955109 281.056517,21.3715278 C282.341264,21.9171627 283.49257,22.734375 284.431614,23.7667411 C285.398588,24.8412698 286.139644,26.0980903 286.611959,27.4640377 C287.140133,28.9973958 287.402047,30.608879 287.387152,32.2302827 C287.387152,33.0598958 286.952696,33.4635417 286.058339,33.4635417 L271.536981,33.4635417 C271.703936,34.8077877 272.359964,36.0435268 273.380313,36.9357639 C274.587478,37.9259673 276.113657,38.4443204 277.674593,38.3940972 C279.373313,38.3940972 281.947771,37.6537698 283.370923,36.281622 L285.842974,39.8914931 C283.820894,41.7385913 280.535792,42.8410218 277.054564,42.8410218" id="Fill-21" fill="#000000"></path><path d="M301.064425,25.5419147 C299.579829,25.5053323 298.154195,26.125372 297.170464,27.2371032 C296.137702,28.4920635 295.602081,30.0824653 295.666008,31.7057292 C295.605805,33.3234127 296.140805,34.906994 297.170464,36.1576141 C297.640917,36.6970486 298.223088,37.1273562 298.877253,37.4193948 C299.566175,37.7213542 300.311576,37.874504 301.064425,37.8683036 C302.974167,37.8621032 304.772811,36.968006 305.929704,35.4501488 L305.929704,27.9600694 C304.772811,26.4415923 302.974167,25.5481151 301.064425,25.5419147 M299.337776,42.8410218 C298.047443,42.8521825 296.768283,42.5992063 295.579737,42.0969742 C294.431534,41.6034226 293.40622,40.8624752 292.578272,39.9268353 C290.806936,37.9427083 289.869753,35.0961062 289.869753,31.702629 C289.869753,28.3506944 290.800729,25.5146329 292.563376,23.5026042 C293.388221,22.5539435 294.412294,21.7981151 295.56298,21.2890625 C296.753387,20.7713294 298.039375,20.5090526 299.337776,20.5195933 C301.912854,20.5140129 304.339597,21.7212302 305.886879,23.7772817 C305.892465,22.2681052 307.119491,21.0478671 308.630154,21.0491071 L308.850485,21.0491071 C310.361148,21.0478671 311.587553,22.2681052 311.592518,23.7772817 L311.592518,42.3133681 L305.929704,42.3133681 L305.929704,39.5851935 C304.358838,41.6356647 301.922164,42.8391617 299.337776,42.8410218" id="Fill-23" fill="#000000"></path><path d="M319.362441,21.0453869 L319.362441,21.0453869 C320.904757,21.0385665 322.160954,22.2823661 322.167781,23.8231647 L322.167781,23.828745 L322.167781,23.9391121 C323.834227,21.8706597 326.314967,20.6237599 328.97073,20.5195933 L328.97073,25.9554812 C328.461176,25.858755 327.942933,25.8147321 327.42469,25.8240327 C325.568325,25.8240327 323.095653,26.8781002 322.16716,28.2353671 L322.16716,42.2209821 L316.557722,42.2209821 L316.557722,23.828745 C316.561446,22.2879464 317.815159,21.0416667 319.357476,21.0453869 C319.359338,21.0453869 319.360579,21.0453869 319.362441,21.0453869" id="Fill-25" fill="#000000"></path><path d="M337.642458,23.8058036 L337.642458,23.8058036 C339.513098,21.6815476 342.220375,20.4811508 345.051783,20.5195933 C349.700454,20.5195933 351.934796,23.1510417 351.934796,27.2712054 L351.934796,42.2209821 L346.367562,42.2209821 L346.367562,29.4190228 C346.367562,26.4825149 344.831452,25.4737103 342.465532,25.4737103 C340.552067,25.4947917 338.762732,26.421751 337.642458,27.9718502 L337.642458,42.2209821 L332.073982,42.2209821 L332.073982,23.8058036 C332.074603,22.281746 333.310939,21.046627 334.836497,21.0460069 L334.880564,21.0460069 C336.406122,21.046627 337.642458,22.281746 337.642458,23.8058036" id="Fill-27" fill="#000000"></path><path d="M360.313577,19.0104167 C359.419219,19.0110367 358.559619,18.6650546 357.916004,18.0450149 C357.270528,17.4404762 356.903103,16.5966022 356.899999,15.7130456 C356.901861,14.8350694 357.269907,13.9980159 357.916004,13.4027778 C358.565204,12.7932788 359.422943,12.4559772 360.313577,12.4590774 C361.209796,12.4522569 362.074362,12.7901786 362.727286,13.4027778 C363.365935,14.0017361 363.728395,14.8381696 363.727157,15.7130456 C363.693018,17.5638641 362.166839,19.0389385 360.313577,19.0104167 L360.313577,19.0104167 Z M363.187188,42.2209821 L357.484031,42.2209821 L357.484031,24.0209573 C357.510719,22.4733383 358.786156,21.2400794 360.335299,21.2636409 C361.884443,21.2382192 363.161741,22.4702381 363.190291,24.0178571 L363.190291,42.2209821 L363.187188,42.2209821 Z" id="Fill-29" fill="#000000"></path><path d="M374.260833,23.8058036 L374.260833,23.8058036 C376.131473,21.6815476 378.838751,20.4811508 381.670158,20.5195933 C386.318829,20.5195933 388.553171,23.1510417 388.553171,27.2712054 L388.553171,42.2209821 L382.985937,42.2209821 L382.985937,29.4190228 C382.985937,26.4825149 381.449827,25.4737103 379.082666,25.4737103 C377.169201,25.4947917 375.379866,26.421751 374.260212,27.9718502 L374.260212,42.2209821 L368.692357,42.2209821 L368.692357,23.8058036 C368.692978,22.281746 369.929314,21.046627 371.454872,21.0460069 L371.498939,21.0460069 C373.024497,21.046627 374.260833,22.281746 374.260833,23.8058036" id="Fill-31" fill="#000000"></path><path d="M403.793242,25.4885913 C400.600616,25.4885913 398.538195,27.7827381 398.538195,31.3355655 C398.538195,34.8883929 400.601237,37.1837798 403.793242,37.1837798 C404.731045,37.1657986 405.651469,36.9264633 406.479417,36.4856151 C407.280677,36.0869296 407.97084,35.4960317 408.487842,34.765625 L408.487842,27.906746 C407.393015,26.40563 405.652711,25.5090526 403.793242,25.4885913 M402.759859,50.9015377 C398.980098,50.9015377 396.303233,49.9547371 393.801391,47.7356151 L396.256063,43.6910962 C397.833136,45.4662698 399.960105,46.328745 402.759859,46.328745 C404.128393,46.3702877 405.474584,45.9796627 406.607892,45.2126736 C407.854779,44.2875744 408.486601,42.8565228 408.486601,40.9647817 L408.486601,38.8107639 C407.716994,39.8270089 406.738228,40.6665427 405.616713,41.2729415 C404.524989,41.8526786 403.306652,42.1546379 402.069696,42.1515377 C399.59268,42.2265625 397.205038,41.2220982 395.528661,39.3985615 C393.807597,37.4900794 392.897724,34.702381 392.897724,31.3355655 C392.897724,28.0127728 393.802012,25.2418155 395.513765,23.3221726 C396.315646,22.4187748 397.309307,21.7051091 398.421513,21.2326389 C399.577164,20.7508681 400.818465,20.5078125 402.070937,20.5195933 C404.606915,20.5183532 406.991454,21.7274306 408.487842,23.7729415 C408.472326,22.2842262 409.666457,21.0633681 411.156639,21.0447669 L411.331042,21.0447669 C412.821844,21.0633681 414.015975,22.2836062 414,23.7729415 L414,40.8327133 C414,44.4828869 412.758538,47.1974206 410.301382,48.9006696 C407.917464,50.5543155 404.885587,50.9015377 402.759859,50.9015377" id="Fill-33" fill="#000000"></path></g><path d="M420.574235,22.3167115 L421.312512,22.3167115 C421.665431,22.3167115 421.905468,22.2641579 422.03392,22.1590509 C422.162373,22.0539438 422.226599,21.9144499 422.226599,21.7412179 C422.226599,21.6302716 422.19481,21.530355 422.13253,21.442117 C422.070899,21.3545278 421.985913,21.2883492 421.875626,21.2455279 C421.766636,21.2020577 421.56228,21.1799981 421.265802,21.1799981 L420.574235,21.1799981 L420.574235,22.3167115 Z M419.967006,24.4370192 L419.967006,20.6700343 L421.261909,20.6700343 C421.703707,20.6700343 422.024189,20.70507 422.222057,20.7738437 C422.419926,20.8439151 422.576923,20.9652424 422.694347,21.1384744 C422.81177,21.3117064 422.871455,21.4953193 422.871455,21.6906108 C422.871455,21.9657058 422.772196,22.2051163 422.576923,22.4094911 C422.380352,22.613866 422.119555,22.7280564 421.795181,22.7527111 C421.927525,22.8085087 422.03392,22.875336 422.115663,22.9525443 C422.266172,23.1011215 422.451715,23.3496153 422.672289,23.6993234 L423.130955,24.4370192 L422.388786,24.4370192 L422.05468,23.843359 C421.791288,23.3762165 421.579796,23.0836037 421.418906,22.9661692 C421.30797,22.8798777 421.145783,22.8364075 420.931696,22.8364075 L420.574235,22.8364075 L420.574235,24.4370192 L419.967006,24.4370192 Z M421.501946,19.5793864 C421.010843,19.5793864 420.532067,19.7059042 420.066914,19.957642 C419.601761,20.2100287 419.237164,20.5701177 418.97507,21.0385578 C418.711029,21.5069979 418.579981,21.9949022 418.579981,22.5022708 C418.579981,23.0063954 418.709082,23.4897581 418.967285,23.9523589 C419.226135,24.4143109 419.58684,24.7750487 420.050695,25.0326258 C420.514551,25.2915006 420.998517,25.4206136 421.501946,25.4206136 C422.006673,25.4206136 422.490639,25.2915006 422.954495,25.0326258 C423.41835,24.7750487 423.777757,24.4143109 424.03531,23.9523589 C424.291566,23.4897581 424.420019,23.0063954 424.420019,22.5022708 C424.420019,21.9949022 424.290269,21.5069979 424.028174,21.0385578 C423.766728,20.5701177 423.403429,20.2100287 422.935681,19.957642 C422.469231,19.7059042 421.990454,19.5793864 421.501946,19.5793864 L421.501946,19.5793864 Z M421.501946,19 C422.089713,19 422.663207,19.1505237 423.223726,19.4522199 C423.782947,19.7532672 424.219555,20.185374 424.531603,20.7459449 C424.8443,21.3078135 425,21.8930392 425,22.5022708 C425,23.1056632 424.846895,23.6850496 424.53874,24.2417277 C424.230584,24.7984058 423.799166,25.2305126 423.245134,25.5386968 C422.689157,25.8462323 422.107878,26 421.501946,26 C420.896015,26 420.316033,25.8462323 419.760056,25.5386968 C419.206024,25.2305126 418.773309,24.7984058 418.463855,24.2417277 C418.154402,23.6850496 418,23.1056632 418,22.5022708 C418,21.8930392 418.156997,21.3078135 418.470992,20.7459449 C418.785635,20.185374 419.222243,19.7532672 419.781464,19.4522199 C420.341983,19.1505237 420.91418,19 421.501946,19 L421.501946,19 Z" id="Fill-36" fill="#000000"></path></g></g></g></svg>