<svg xmlns="http://www.w3.org/2000/svg" xmlns:xlink="http://www.w3.org/1999/xlink" width="1240px" height="441px" viewBox="0 0 1240 441"><title>Aofl_corpsite_lineart_class</title><g id="Page-1" stroke="none" stroke-width="1" fill="none" fill-rule="evenodd"><g id="Aofl_corpsite_lineart_class"><rect id="Rectangle" x="0" y="0" width="1240" height="440.248062"></rect><path d="M6.72868217,355.213294 L123.787285,356.101163 C123.787285,356.101163 137.96746,361.818719 149.23339,335.299142 C149.23339,335.299142 149.842076,331.031075 160.194395,334.689751 C170.546715,338.347262 176.027217,343.834111 190.032817,344.13939 C204.038417,344.443502 169.328179,338.65254 159.88947,328.897624 C150.450762,319.143873 154.105207,320.362655 156.539951,314.875806 C158.975859,309.388957 173.286384,273.419742 177.24459,257.264472 C181.202795,241.108038 200.383973,196.909131 222.915833,179.839193 C245.44653,162.768089 292.638907,135.335009 295.37974,188.678275 C298.11941,242.022707 287.158404,276.77314 250.622108,310.608904 C214.085811,344.443502 172.981459,312.742355 186.378373,223.428708 C199.775286,134.115062 211.954828,120.093243 211.954828,120.093243 C211.954828,120.093243 219.870075,111.252996 214.694497,124.361311 C209.51892,137.46846 184.856076,209.40689 183.638703,214.284348 C182.420167,219.160641 179.375573,251.472345 179.680498,257.264472 C179.985423,263.055434 180.594109,281.954711 178.158201,273.72502 C175.722292,265.494163 173.286384,227.69561 176.330978,216.112521 C179.375573,204.529432 183.942464,199.651973 183.638703,188.068884 C183.333778,176.485795 180.89787,170.084277 179.680498,189.592944 C178.461962,209.101612 171.459162,230.134339 170.24179,241.108038 C169.024417,252.081736 169.063988,274.496371 163.543915,254.825743 C156.642369,230.236875 172.069012,209.960352 172.069012,198.534562 C172.069012,142.243382 178.493385,128.162139 197.035617,109.119545 C220.581179,84.9373265 225.655503,54.8604445 230.83108,42.9732423 C236.007822,31.084875 250.013422,3.65062921 295.683501,13.7096585 C341.354745,23.7686877 359.013625,60.6525717 357.491328,69.7969319 C355.969031,78.9424573 353.533122,89.0014866 350.184767,79.5518483 C346.835248,70.10221 350.184767,53.6416626 350.793453,64.3100828 C351.402139,74.9796682 348.66247,84.7334194 336.179167,87.7815394 C323.695865,90.8296595 323.999626,79.2465702 327.349145,73.7597211 C330.698664,68.2728719 343.790653,63.7006918 332.524723,80.4665173 C321.259956,97.2311777 304.513523,89.6108775 304.513523,89.6108775 C304.513523,89.6108775 298.424335,80.7706302 308.776654,77.4183973 C319.127809,74.0649991 308.471729,87.4774265 297.206962,86.2574794 C285.941032,85.0386974 262.496724,77.1131192 254.580313,65.8341428 C246.663902,54.5563316 244.227994,44.8014153 257.016221,58.2138427 C269.804449,71.62627 285.027421,88.6962085 274.980027,87.4774265 C264.932632,86.2574794 256.711296,83.2093593 252.44933,81.0759083 C248.186199,78.9424573 241.488324,69.7969319 256.10261,78.0277883 C270.716896,86.2574794 278.938232,92.6589976 266.45493,94.1830576 C253.971627,95.7071177 236.921433,88.6962085 251.535719,90.2202685 C266.150005,91.7443285 281.069215,98.1458467 270.716896,107.900763 C260.365741,117.654514 236.007822,131.37222 228.396336,148.13688 C220.783686,164.902706 214.389572,177.704577 213.780886,206.662883 C213.1722,235.621188 206.1694,223.428708 204.647103,213.673792 C203.124806,203.920041 203.428567,197.823801 203.124806,188.374162 C202.819881,178.924524 202.51612,167.950826 206.778086,159.719969 C211.041217,151.490278 217.739092,150.575609 209.51892,170.693668 C209.51892,170.693668 198.557914,203.31065 196.122006,222.514039 C193.686098,241.718594 197.035617,253.301683 197.035617,253.301683 C197.035617,253.301683 199.775286,260.921983 199.1666,264.579494 C198.557914,268.23817 179.071812,239.889256 190.641503,215.50313 C202.211195,191.117004 213.477125,173.132397 218.957628,162.768089 C224.43813,152.404947 239.052416,128.018822 252.144405,126.189483 C265.236394,124.361311 281.982827,125.274814 289.594313,154.843676 C297.206962,184.411373 298.72926,232.573068 289.594313,261.836652 C280.460529,291.099071 269.804449,338.041984 272.544118,343.528833" id="Stroke-1" stroke="#85AFFB" stroke-width="1.204"></path><path d="M290.000005,155.093165 C290.000005,155.093165 295.782365,158.139087 298.215818,158.444145 C300.650435,158.748038 306.304841,158.997208 309.456,155.44829 C312.607159,151.899372 312.804906,151.702598 314.970819,151.307885 C317.137895,150.913173 319.501556,149.7302 318.516309,146.575995 C317.532227,143.421789 315.956065,142.633529 321.076554,143.027077 C326.198205,143.421789 322.456131,142.238816 323.834545,140.661131 C325.212959,139.084611 326.198205,138.295186 326.78912,138.098412 C327.380035,137.901638 329.547112,137.310152 330.925526,137.310152 C332.30394,137.310152 335.061931,137.506926 334.864184,134.154782 C334.6676,130.803802 331.909609,123.705966 337.03126,112.862438 C342.151748,102.01891 350.031391,88.415889 347.469984,74.6149294 C344.90974,60.8139698 334.864184,33.0152766 298.819529,25.1291803 C262.776037,17.2419197 238.942851,32.6205643 234.806445,60.8139698 C230.67004,89.0073754 236.382607,105.567828 261.594207,125.677199" id="Stroke-3" stroke="#85AFFB" stroke-width="1.204"></path><path d="M274.979335,372.475105 C274.979335,372.475105 255.913803,380.744381 248.837792,376.609743 C241.762941,372.475105 238.814603,373.262268 239.404271,358.299204 C239.993938,343.337303 234.490761,294.509974 235.670096,284.666374 C236.849432,274.822773 238.421105,254.740246 238.421105,249.227784 C238.421105,243.715321 231.345093,186.619879 241.173274,172.64164 C251.000293,158.663402 281.858016,141.337688 278.71351,175.989116 C275.569003,210.639381 270.458163,238.99002 270.261994,248.834784 C270.065825,258.678384 272.227166,287.619686 266.723989,315.773826 C261.220811,343.927966 261.810479,352.786741 261.810479,352.786741 C261.810479,352.786741 262.203978,358.889867 261.024642,359.874692 C259.845307,360.859517 253.948631,348.849766 270.655493,346.487116 C287.362355,344.124466 291.096529,348.849766 291.096529,348.849766 C291.096529,348.849766 293.455199,351.605416 281.465679,350.818254 C269.476158,350.031091 282.645014,347.274278 293.061701,352.196079 C303.478388,357.117879 284.610186,355.740054 284.610186,355.740054 C284.610186,355.740054 280.876011,353.771567 286.968856,354.165729 C293.061701,354.558729 299.548044,358.496867 299.548044,358.496867 C299.548044,358.496867 303.871887,362.828005 293.651368,361.64668 C283.43085,360.465355 289.721025,358.496867 293.651368,359.284029 C297.582873,360.071192 308.393058,366.17548 301.513216,366.56848 C294.634535,366.962643 283.43085,367.553305 274.979335,372.475105 Z" id="Stroke-5" stroke="#85AFFB" stroke-width="1.204"></path><path d="M298.913495,367.193798 C298.913495,367.193798 301.305183,367.972245 303.69687,371.476979 C306.088558,374.981712 308.280154,381.796856 297.717651,375.760159 C287.155147,369.724612 294.130119,368.946165 297.717651,374.007792 C301.305183,379.070568 300.308254,381.796856 293.532197,380.628611 C286.75614,379.460366 286.158218,378.096648 284.563367,376.539755 C282.969693,374.981712 286.955055,373.035021 290.343672,377.512526 C293.732289,381.99118 285.759211,384.911791 280.77692,381.017259 C275.794629,377.123877 276.791558,374.787388 278.585324,376.928403 C280.37909,379.070568 280.977012,387.24828 275.595714,383.548073 C270.214416,379.849015 267.224806,375.760159 267.224806,375.760159" id="Stroke-7" stroke="#85AFFB" stroke-width="1.204"></path><path d="M232.40844,187.742663 C232.880176,187.075456 257.11076,158.957967 278.955744,181.006218 C300.799557,203.054468 291.000802,159.365314 282.426453,144.666871 C273.852104,129.968427 258.336336,119.965011 235.675472,145.279062 C213.013437,170.594284 226.487749,196.113179 232.40844,187.742663 Z" id="Stroke-9" stroke="#85AFFB" stroke-width="1.204"></path><path d="M298.945736,354.102721 C298.945736,354.102721 318.142807,354.710199 320.276721,354.102721 C322.40947,353.495244 326.065777,353.190925 326.065777,347.418148 C326.065777,341.64421 325.151409,321.892486 324.847396,306.395426 C324.542219,290.898367 320.885911,276.920581 341.302527,280.870926 C361.719144,284.821271 364.15707,291.810163 370.555317,293.329437 C376.954729,294.848711 383.048963,292.113321 384.877699,286.036225 C386.706436,279.959129 385.48689,275.096988 384.268509,277.832378 C383.048963,280.566606 380.612201,292.72196 380.001846,286.340545 C379.392656,279.959129 380.307024,263.245953 373.907612,256.257061 C367.5082,249.268168 368.118556,252.003558 371.774863,260.816044 C375.431171,269.627369 379.088643,280.566606 377.56392,285.124429 C376.040361,289.683412 373.907612,294.241234 365.984642,287.859819 C358.061671,281.478403 342.520908,273.882033 334.293925,275.705627 C326.065777,277.528058 323.01866,278.439855 322.714647,272.970236 C322.40947,267.500618 323.933028,248.053213 335.817484,240.152524 C347.701939,232.251834 349.834688,232.859311 355.928922,228.910128 C362.023157,224.959783 378.783465,211.589475 383.048963,222.224393 C387.315626,232.859311 396.762155,254.130309 402.552376,258.992451 C408.341433,263.854592 421.749447,265.981344 426.6253,260.511725 C431.501153,255.042106 434.54827,249.876807 435.461474,245.317823 C436.375842,240.760001 436.071829,235.899021 445.21318,239.848204 C454.354531,243.798549 459.535562,248.96501 467.153355,262.335318 C474.771148,275.705627 475.380338,276.920581 478.123442,279.959129 C480.865382,282.997677 490.007898,291.505844 473.85678,296.975463 C457.706826,302.445082 455.268899,303.964356 452.221782,297.88726 C449.174665,291.810163 446.736739,258.384973 450.089033,267.804937 C453.440163,277.224901 452.52696,305.48363 447.041916,321.892486 C441.556873,338.301342 438.204578,357.141269 431.501153,358.357386 C424.796564,359.57234 381.525405,358.660543 381.525405,358.660543 C360.804776,358.357386 355.014554,351.064173 359.281217,351.064173 C363.546715,351.064173 388.839185,358.964863 398.285713,359.87666 C407.732242,360.787295 427.234491,363.827004 437.8994,363.218366 C448.565475,362.610888 453.745341,360.179818 461.973489,356.533792 C470.200472,352.887767 477.514252,346.506351 496.102132,351.064173 C514.690012,355.621995 522.91816,366.865552 522.91816,366.865552 C522.91816,366.865552 527.792848,378.412267 522.003792,372.638329 C516.213571,366.865552 512.557263,361.699092 507.072219,360.179818 C501.587176,358.660543 523.222173,371.726532 523.527351,375.676877 C523.809232,379.335679 522.262378,381.951432 518.886787,378.457567 C518.616553,378.177639 518.334672,377.860543 518.042307,377.500471 C514.080822,372.638329 506.767042,366.256914 504.329115,365.649436 C501.892353,365.041959 502.196366,368.080507 506.767042,369.9041 C511.337717,371.726532 525.050909,381.146496 519.260688,382.058293 C515.821033,382.600725 512.057564,379.385625 509.058204,376.434191 C507.010485,374.417785 505.319195,372.5245 504.329115,372.030852 C501.892353,370.815897 495.796954,370.511578 495.796954,370.511578 L513.775644,381.450815 C513.775644,381.450815 517.433116,385.40116 511.948073,383.881886 C506.463029,382.362612 501.587176,380.843338 493.969383,378.412267 C486.350426,375.981197 481.77975,375.373719 474.467135,376.285516 C467.153355,377.196151 462.886692,381.755135 454.659709,382.970089 C446.431561,384.185044 406.512697,385.096841 394.324228,385.40116 C382.13576,385.704318 355.928922,384.793683 348.005952,382.362612 C340.082982,379.931541 330.027262,374.766242 329.112894,369.599781 C328.199691,364.434482 330.33244,353.190925 330.33244,353.190925 C330.33244,353.190925 329.72325,326.14715 329.112894,320.070054 C328.503704,313.991796 319.971543,281.782723 336.426674,283.909474 C352.881805,286.036225 361.719144,295.760508 363.242702,300.62265 C364.766261,305.48363 363.546715,319.461415 363.242702,326.450308 C362.937525,333.439201 362.937525,347.113829 364.15707,351.368493" id="Stroke-11" stroke="#85AFFB" stroke-width="1.204"></path><path d="M377.066631,217.202146 C377.066631,217.202146 388.346723,211.714602 388.346723,204.093336 C388.346723,196.470906 387.126655,188.240172 379.809744,182.752628 C372.493999,177.265084 361.823359,163.24149 363.652878,151.961085 C365.482397,140.681846 370.055029,127.26772 380.115052,121.170707 C390.175076,115.07253 420.051005,102.573189 443.83009,117.816885 C467.60801,133.06058 478.888102,150.132681 476.449131,165.680528 C474.010161,181.228375 470.04698,185.496983 468.828078,189.764425 C467.60801,194.033033 466.083799,198.300476 466.083799,202.263767 C466.083799,206.227058 465.474348,212.629386 459.986957,218.726399 C454.499565,224.823411 443.83009,233.05531 437.732082,234.579563 C431.635239,236.103816 423.404734,238.847005 415.783681,233.05531 C408.161462,227.262449 396.577227,216.896829 392.309903,207.141842 C388.041414,197.385691 388.041414,192.812931 389.565625,191.898147 C391.089836,190.983362 394.138257,200.739513 382.554023,191.898147 C370.969788,183.057945 388.041414,167.204781 394.138257,175.435514 C400.2351,183.667413 393.528806,185.496983 392.004595,184.582198 C390.480384,183.667413 392.004595,180.618907 402.064619,177.570401 C412.124643,174.521895 419.136245,167.814249 409.685672,162.632022 C400.2351,157.448629 381.639263,161.41192 395.053017,162.632022 C408.46677,163.850958 420.051005,163.546807 422.489975,161.107769 C424.928945,158.668731 431.025788,155.314908 418.526794,149.217896 C406.0278,143.120884 404.198281,142.206099 397.491987,142.51025 C390.784527,142.815567 385.297136,145.254605 398.406746,147.997794 C411.515191,150.742149 422.184666,151.961085 427.062607,149.827364 C431.940547,147.693643 435.903728,144.035669 429.501577,141.596631 C423.099426,139.157593 413.34471,140.072378 421.880523,142.815567 C430.416337,145.559922 441.695263,148.303111 446.26906,146.778858 C450.841692,145.254605 461.205859,144.645137 449.012173,133.06058 C436.818488,121.474859 426.758464,119.035821 424.928945,118.73167 C423.099426,118.426353 419.441553,120.561239 433.15945,125.743467 C446.878511,130.925694 457.243843,135.194302 463.644829,141.900782 C470.04698,148.608428 477.363891,152.87587 468.218627,142.206099 C459.072197,131.535162 440.47636,114.15891 420.660456,114.15891 C400.845716,114.15891 386.517204,119.646454 376.45718,131.535162 C366.397156,143.425035 365.482397,168.729034 370.360337,183.362096 C375.237112,197.996324 375.847729,199.21526 378.285533,201.95845 C380.724504,204.702804 390.175076,208.056627 380.420361,196.776222 C370.66448,185.496983 363.652878,185.496983 359.080245,187.325387 C354.507613,189.154957 323.107474,202.569083 319.753745,246.773587 C316.40118,290.979256 327.680106,237.933385 327.985415,237.018601 C328.289558,236.103816 329.813768,225.432879 338.65489,217.811614 C347.496011,210.190349 355.117065,204.397488 357.861343,200.130045 C360.604456,195.861438 355.726516,197.081539 350.239124,202.263767 C344.751733,207.445994 337.130679,218.726399 334.387566,226.347664 C331.643287,233.970094 326.155896,257.444524 337.130679,240.676575 C348.105462,223.908626 360.604456,219.945335 360.604456,219.945335 C360.604456,219.945335 369.445577,214.763108 367.616058,212.019918 C365.78654,209.275564 356.946583,213.544171 352.678094,221.774905 C348.41077,230.006803 362.433975,237.933385 377.066631,217.202146 Z" id="Stroke-13" stroke="#85AFFB" stroke-width="1.204"></path><path d="M445.054264,360.494542 C445.054264,360.494542 456.019151,358.970735 460.892694,355.617892 C465.766236,352.266215 469.724679,349.827891 466.679006,342.207689 C463.633334,334.588652 456.019151,316.912254 457.236955,307.158955 C458.455923,297.406822 459.978759,293.139462 464.852301,289.482558 C469.724679,285.824488 478.862862,282.776873 485.563109,311.426315 C492.264521,340.074592 498.964768,349.217436 502.010441,350.131953 C505.056114,351.04647 507.797918,354.399313 504.142179,344.646014 C500.487605,334.89388 485.868142,286.739005 489.218848,248.642657 C492.56839,210.546309 500.487605,195.612298 510.538558,187.688034 C520.589511,179.76377 554.094241,169.401181 565.971899,195.307071 C577.850722,221.21296 579.069689,233.708646 582.115362,242.547428 C585.161035,251.385044 597.343726,280.338549 613.487189,278.510679 C629.629488,276.681644 639.375408,273.024739 646.990755,246.50956 C654.604937,219.99438 662.219119,204.755142 670.443367,201.098238 C678.666451,197.440168 703.256533,204.541949 712.170016,210.850371 C724.65774,219.689153 732.170633,223.143349 723.237358,237.976006 C714.297097,252.816817 715.723301,263.98325 713.896596,268.858734 C712.068727,273.735383 707.601507,276.681644 703.338031,272.415449 C699.07339,268.14809 686.585666,254.737886 685.062829,248.642657 C683.539993,242.547428 689.022437,232.490067 691.763077,262.967378 C694.504881,293.44469 675.620778,335.197942 669.224399,340.989109 C662.828021,346.780276 654.299904,349.827891 644.553984,346.780276 C634.806899,343.731496 606.785778,338.550784 600.999465,335.808397 C595.211988,333.064845 574.196147,324.226064 564.754096,321.787739 C555.312044,319.350579 537.341876,319.045352 532.773367,321.483676 C528.204857,323.922001 538.559679,333.370072 549.220699,317.826772 C559.880553,302.282306 555.617077,295.272559 553.180306,284.911136 C550.743535,274.548547 548.611797,259.309308 548.611797,248.642657 C548.611797,237.976006 550.134633,233.708646 544.956058,224.260575 C539.778647,214.812504 534.905105,209.326564 537.950778,219.689153 C540.99645,230.051742 550.438502,251.080982 552.571404,249.861237 C554.703142,248.642657 557.748815,240.413166 553.180306,226.393672 C548.611797,212.374179 538.559679,191.040876 529.117628,188.602552 C519.676741,186.164227 502.619343,185.858999 497.441932,212.679406 C492.264521,239.499813 490.741685,293.44469 507.492885,332.759618 C524.24525,372.075711 539.473614,370.551903 541.910385,368.418806 C544.347156,366.285709 546.783927,361.103832 548.306764,356.227182 C549.8296,351.351698 552.571404,339.769364 559.576685,335.808397 C566.581965,331.846265 570.23654,328.493423 570.845441,330.322458 C571.454343,332.150328 560.489455,336.72175 558.357717,342.818144 C556.225979,348.913373 552.571404,355.008603 552.571404,360.494542 C552.571404,365.980481 551.65747,369.637386 555.920946,370.551903 C560.185586,371.466421 594.906955,381.21972 622.929241,380.914492 C650.950362,380.609265 653.387133,379.999975 661.610217,381.829009 C669.834465,383.656879 672.270072,384.571397 678.666451,383.962107 C685.062829,383.352817 691.154175,380.914492 699.378423,383.962107 C707.601507,387.009721 713.692853,391.277081 717.65246,390.362563 C721.612068,389.448046 725.876708,387.924239 724.353872,384.267334 C722.831035,380.609265 724.048839,380.609265 718.871428,376.95236 C713.692853,373.295455 707.90654,373.904745 711.561114,377.257587 C715.215689,380.609265 725.876708,386.095204 728.922381,382.438299 C731.968054,378.781395 732.273087,375.428553 729.531283,370.551903 C726.790643,365.675254 724.962773,364.456674 724.962773,364.456674 C724.962773,364.456674 715.520722,361.103832 722.220969,366.589771 C728.922381,372.075711 732.576956,373.295455 734.099792,371.161193 C735.622628,369.028096 737.755531,367.199061 734.709858,359.580024 C731.663021,351.960988 728.313479,348.608146 726.180577,347.693628 C724.048839,346.780276 719.175297,347.389566 724.65774,350.741243 C730.140184,354.094085 733.795923,355.92312 738.668301,356.227182 C743.541843,356.53241 745.06468,356.227182 750.547124,355.617892 C756.029568,355.008603 757.552404,356.53241 759.380274,354.703375 C761.208143,352.875505 761.512012,351.65576 761.208143,350.437181 C760.90311,349.217436 756.639634,346.780276 756.639634,346.780276 C756.639634,346.780276 762.120913,347.693628 750.852157,345.560531 C739.582236,343.427434 735.31876,341.294337 730.445217,338.856012 C725.571675,336.417687 717.348591,333.370072 710.952213,333.674135 C704.555834,333.979362 703.338031,333.674135 694.809914,336.11246 C686.280633,338.550784 676.534713,338.550784 679.885418,341.294337 C683.23496,344.036724 692.982044,338.856012 692.982044,338.856012 C692.982044,338.856012 703.032998,332.150328 703.946932,330.322458 C704.860867,328.493423 708.820475,321.178449 710.343311,315.08322 C711.866147,308.98799 719.175297,273.939257 719.785362,271.804995 C720.394264,269.671897 725.267806,255.652404 728.008446,251.690272 C730.75025,247.72814 735.622628,237.976006 744.150745,245.289815 C752.680026,252.604789 759.989175,261.747633 761.512012,269.671897 C763.034848,277.596161 764.557684,289.78662 755.725699,281.558293 C746.892549,273.328802 748.720419,267.5388 748.720419,267.5388 C748.720419,267.5388 756.639634,269.36667 756.943502,279.729259 C757.248535,290.091847 758.771372,291.615655 756.334601,295.577787 C753.89783,299.539919 751.766091,301.673016 752.06996,304.416568 C752.374993,307.158955 754.506731,310.81586 751.15719,309.902508 C747.806484,308.98799 735.013727,301.673016 735.013727,301.673016 C735.013727,301.673016 732.273087,290.701137 741.715138,301.063726 C751.15719,311.426315 744.150745,312.340832 732.273087,314.47393 C720.394264,316.607027 724.353872,310.20657 736.841596,311.121088 C749.32932,312.035605 759.989175,312.950122 761.208143,313.559412 C762.425946,314.168702 769.73626,313.86464 771.867998,314.168702 C773.999736,314.47393 776.74154,314.777992 777.655475,315.388447 C778.568245,315.997737 778.873278,317.521544 778.873278,317.521544 L751.461058,410.477286 L752.374993,413.830128 C752.374993,413.830128 753.288928,415.353936 755.725699,415.657998 C758.16247,415.963226 759.685307,415.657998 761.512012,412.915611 C763.339881,410.173224 779.787213,356.837637 780.701148,352.875505 C781.615082,348.913373 781.310049,347.693628 782.527853,347.389566 L783.74682,347.084338 L785.269657,349.217436 C785.269657,349.217436 804.457629,417.18297 804.762661,419.62013 C805.067694,422.058455 804.457629,426.935104 803.544858,427.240332 C802.630923,427.544394 800.803054,428.764139 797.148479,427.544394 C793.492741,426.325814 784.660755,423.88749 780.396115,420.230585 C776.132638,416.572515 770.345161,417.18297 777.959343,416.268453 C785.573526,415.353936 784.964624,417.487033 785.573526,415.353936 C786.183592,413.220838 782.832886,410.477286 778.568245,410.477286 C774.304769,410.477286 762.425946,412.001094 764.253816,415.963226 C766.080521,419.925358 790.447068,431.202464 790.447068,431.202464 C790.447068,431.202464 799.280218,435.164596 812.681877,432.726271 C826.083536,430.287946 890.348862,415.048708 894.918536,413.220838 C899.487045,411.391804 906.796194,409.867996 908.31903,408.038961 C909.843031,406.211092 913.801474,407.734899 911.365868,395.848503 C908.929096,383.962107 902.227685,358.665507 902.227685,358.665507 C902.227685,358.665507 895.222404,334.588652 894.30847,331.846265 C893.395699,329.102713 890.958928,326.360326 890.044993,326.055098 C889.131059,325.749871 892.176732,323.616774 877.557269,325.140581 C862.937807,326.664388 799.889119,336.72175 794.406675,336.11246 C788.924231,335.50317 788.620363,338.245557 788.924231,333.370072 C789.229264,328.493423 796.538413,305.635148 796.538413,305.635148 C796.538413,305.635148 795.32061,300.758499 804.457629,299.845146 C813.595811,298.930629 875.425531,290.397075 876.338301,290.397075 C877.252236,290.397075 890.348862,286.434943 887.303189,295.272559 C884.257517,304.111341 877.861138,320.569159 877.861138,320.569159 C877.861138,320.569159 875.425531,321.483676 881.820745,321.787739 C888.217124,322.092966 891.872863,320.874386 894.004601,323.616774 C896.136339,326.360326 901.009881,339.769364 901.009881,340.989109 C901.009881,342.207689 901.923816,356.227182 912.583671,356.53241 C923.243526,356.837637 1228.46512,356.227182 1228.46512,356.227182" id="Stroke-15" stroke="#85AFFB" stroke-width="1.204"></path><path d="M885.529914,320.093023 C885.529914,320.093023 883.520031,319.685994 884.725499,316.227999 C885.932121,312.770004 894.976594,287.141187 895.378801,286.531227 C895.781008,285.921267 901.810657,275.547282 893.168391,276.9713 C884.524972,278.395317 876.48544,279.615237 874.676085,279.412306 C872.866729,279.208208 868.646436,279.412306 867.03876,278.80118" id="Stroke-17" stroke="#85AFFB" stroke-width="1.204"></path><path d="M752.830544,198.736982 C752.830544,198.736982 748.886085,177.706177 752.526678,166.428231 L756.16843,155.151451 C756.16843,155.151451 768.001807,135.644566 790.150391,133.815395 C812.300134,131.986224 834.448718,142.654835 841.731063,160.332548 C849.012249,178.010262 847.495239,181.668603 846.888667,185.021695 C846.282095,188.373622 844.461218,198.736982 845.06895,200.260902 C845.675522,201.784823 846.585961,197.213061 849.316115,197.518311 C852.04743,197.822396 854.473719,206.0525 853.260574,209.100342 C852.04743,212.148183 851.136992,216.719945 850.530419,218.549116 C849.922687,220.377122 849.012249,223.730214 846.585961,222.511543 C844.158512,221.291708 840.820625,217.938616 842.944208,210.624262 C845.06895,203.308744 848.102971,213.366854 842.337636,230.435232 C836.5723,247.504775 832.629001,256.95355 821.706062,262.134647 C810.783124,267.315745 800.769463,267.620995 793.184412,263.049233 C785.59936,258.477471 770.731962,247.199525 764.057348,231.655068 C757.381575,216.11061 757.988147,207.880506 756.471137,205.442 C754.954126,203.004659 748.582219,191.726713 744.031188,201.175488 C739.480156,210.624262 751.920105,218.549116 754.347554,218.853201 C756.775003,219.158452 760.415596,217.329281 761.326034,214.586689 C762.236472,211.842933 764.360055,204.223329 761.932606,202.090073 C759.505157,199.955652 757.685441,206.0525 759.202451,207.271171 C760.719462,208.491006 764.057348,210.624262 765.574359,206.965921 C767.091369,203.308744 766.483637,198.736982 766.787503,192.336049 C767.091369,185.935115 770.428096,182.277939 778.014308,184.411195 C785.59936,186.545616 789.619205,189.516562 795.005288,188.831497 C800.390211,188.145267 803.425391,187.307576 804.638536,185.935115 C805.85168,184.56382 807.445237,180.601393 803.576165,182.430564 C799.708252,184.259735 796.066499,187.535931 794.246783,190.278523 C792.425906,193.022279 793.184412,195.917495 800.542144,193.478989 C807.899876,191.040483 817.305804,183.649234 818.291629,182.430564 C819.278614,181.210728 821.629516,175.953901 818.595495,177.934532 C815.561474,179.916328 815.713407,180.829748 814.802969,181.744333 C813.892531,182.658919 811.162376,191.270003 818.899361,184.716445 C826.636346,178.162887 831.642016,169.400343 832.173202,166.580856 C832.704388,163.76137 833.235573,160.179923 832.629001,157.056352 C832.021269,153.931615 831.187377,153.093925 829.973073,152.407694 C828.759929,151.722629 825.498588,161.780739 829.670367,178.468137 C833.842145,195.155535 838.848976,181.287623 839.151682,179.535347 C839.455548,177.781907 838.848976,173.515395 836.876166,176.638966 C834.904517,179.763703 834.146011,187.611661 836.5723,188.831497 C838.999749,190.050167 841.731063,190.355418 842.489569,189.288207 C843.248074,188.220997 845.06895,183.192524 842.185703,184.640715 C839.303615,186.087741 837.710058,187.154951 839.379001,191.726713 C841.047945,196.298475 842.564955,206.0525 841.654517,207.652151" id="Stroke-19" stroke="#85AFFB" stroke-width="1.204"></path><path d="M716.124031,283.617798 C716.124031,283.617798 724.660435,263.412878 725.269929,259.126383 C725.880588,254.841059 728.014397,240.145508 735.635979,235.553587 C743.25756,230.961667 752.708788,227.288364 755.75742,226.369746 C758.806053,225.451128 766.4288,224.839106 769.477432,234.634969 C772.526065,244.432003 774.659875,264.331497 784.720595,270.147461 C794.782481,275.964596 807.282341,282.69918 817.647226,269.842035 C828.013276,256.983721 834.720035,242.594767 838.073997,236.778802 C841.427959,230.961667 845.086085,223.001869 853.622489,232.492307 C862.158893,241.982745 867.646665,256.371699 875.269412,265.862137 C882.890994,275.352574 881.366677,275.658 875.878906,276.270022 C870.391134,276.883215 859.41559,278.413855 851.18335,269.535439 C842.952275,260.657024 843.867098,256.983721 843.867098,256.983721 C843.867098,256.983721 844.171262,253.310419 848.745376,257.902339 C853.318325,262.49426 861.5494,271.678102 850.269692,273.515338 C838.988819,275.352574 836.54968,273.820764 835.025364,275.658 C833.501048,277.495237 833.806377,281.475135 830.452415,282.087158 C827.098453,282.69918 807.586505,284.841842 804.232543,285.148438 C800.879747,285.455034 790.513697,287.2911 788.98938,290.352381 C787.465064,293.414832 782.281456,312.089111 781.367799,312.394537 C780.452976,312.701133 778.013837,304.741335 784.720595,294.026854 C791.428519,283.311202 790.208367,284.536416 805.452695,283.005776 C820.695858,281.475135 824.964643,281.780561 829.537592,278.107259 C834.110541,274.433956 832.586225,271.678102 841.122629,271.06608 C849.659034,270.454058 847.830553,268.616821 847.830553,268.616821" id="Stroke-21" stroke="#85AFFB" stroke-width="1.204"></path><path d="M556.953486,179.775769 C556.953486,179.775769 549.418132,162.147256 549.621317,147.151459 C549.825669,132.156824 552.065373,127.698865 553.695522,133.373264 C555.324504,139.046502 554.509429,162.349415 550.639576,169.239093 C546.770891,176.128771 539.641907,172.480611 536.994666,164.173495 C534.347425,155.865217 533.939888,153.231338 533.736703,150.191979 C533.53235,147.151459 535.161332,143.302301 538.012926,148.16574 C540.864519,153.028017 542.085963,171.670812 535.161332,173.089412 C528.237868,174.50685 519.276718,172.480611 515.406865,160.121016 C511.537012,147.76026 509.90803,131.752505 519.276718,117.365509 C528.644238,102.978514 542.697853,94.2647555 556.545948,93.8592753 C570.395211,93.454957 567.340433,105.206912 566.729711,106.220032 C566.117821,107.233151 556.750301,119.593908 556.545948,113.10971 C556.342764,106.625512 565.099561,92.6439965 579.356361,86.767438 C593.611994,80.8908795 609.70096,77.2438812 625.791095,81.9039991 C641.880061,86.5652788 656.135694,99.5336747 659.802362,102.167553 C663.467862,104.801432 672.83655,122.836588 651.247581,106.423353 C629.65978,90.0101179 651.044396,100.952275 651.044396,100.952275 C651.044396,100.952275 660.820621,109.057231 664.893659,117.365509 C668.966697,125.672626 667.337715,127.698865 657.56149,123.849707 C647.785265,119.999388 634.140355,112.29875 631.085577,109.664871 C628.030798,107.030992 625.586742,105.814552 624.97602,103.586153 C624.365298,101.357755 628.438336,100.546794 633.122096,106.220032 C637.807023,111.894431 637.807023,118.986268 637.195134,122.431108 C636.584411,125.875947 635.158615,129.928425 632.308189,132.562304 C629.456595,135.196182 626.197464,136.614782 624.365298,140.870582 C622.531964,145.125219 621.513704,155.663058 612.960091,161.134136 C604.406478,166.605214 589.743309,172.278452 582.614325,170.252213 C575.486508,168.225973 563.47058,163.768015 560.415801,156.676177 C557.361023,149.583178 561.230876,144.51758 577.72738,144.51758 C594.222716,144.51758 588.928234,149.17886 586.687362,150.394139 C584.447659,151.609417 560.212617,154.041137 567.13608,142.289182 C574.060712,130.536064 581.596065,123.646386 589.946493,122.025627 C598.296922,120.404868 602.369959,122.633267 599.315181,125.875947 C596.260403,129.117465 578.541287,141.883701 566.117821,136.007143 C553.695522,130.130584 568.76623,109.462712 570.802748,108.044112 C572.839267,106.625512 590.149678,91.2253967 603.795756,91.0232375 C617.440666,90.8199165 637.399486,94.872395 649.822952,108.044112 C662.24525,121.214667 669.780604,136.412623 669.169882,148.570058 C668.55916,160.728656 668.151622,164.173495 668.151622,166.605214 C668.151622,169.035772 668.966697,177.547371 669.374234,178.964809 C669.780604,180.383409 671.410753,192.744165 668.966697,203.078682 C666.522641,213.4132 661.431343,230.028594 645.748747,237.931392 C630.067317,245.834189 606.442997,231.649353 604.814016,230.028594 C603.183866,228.407835 579.356361,207.7388 576.097231,197.404283 C572.839267,187.070928 572.839267,188.893846 574.060712,187.070928 C575.283324,185.246848 579.559546,186.462126 578.948824,188.691687 C578.338102,190.920085 573.653174,194.973725 569.172599,191.325565 C564.692024,187.678567 558.17493,181.802009 558.17493,174.50685 C558.17493,167.212854 560.823339,157.283817 569.376952,159.310056 C577.930565,161.336295 579.356361,166.401893 579.356361,166.401893 C579.356361,166.401893 581.188528,170.454372 579.559546,172.683932 C577.930565,174.91233 573.653174,176.73641 573.246805,174.710171 C572.839267,172.683932 573.857527,165.592095 581.800418,166.199734 C589.743309,166.807373 608.071979,174.91233 608.071979,174.91233 L619.069648,179.57361 C619.069648,179.57361 623.957761,182.409648 630.882392,180.58673 C637.807023,178.76265 657.969028,172.076293 659.190472,171.872972 C660.413084,171.670812 680.575088,163.768015 680.575088,163.768015 C680.575088,163.768015 684.240589,162.349415 681.796533,159.715536 C679.353644,157.080496 667.5409,151.001778 667.5409,151.001778 C667.5409,151.001778 663.060325,144.315421 670.188141,147.76026 C677.315957,151.205099 685.055664,155.865217 686.073923,156.878336 C687.092182,157.891456 690.146961,160.728656 688.925517,168.022652 C687.702905,175.317811 686.073923,181.194369 680.167551,185.652328 C674.261179,190.110287 667.948438,186.665447 666.115103,184.435887 C664.281769,182.207489 664.486122,181.396528 662.449603,181.396528 C660.413084,181.396528 659.394825,181.194369 658.782935,182.207489 C658.172213,183.220608 657.153953,188.691687 653.89599,193.351805 C650.636859,198.013084 646.360636,202.875361 640.657449,203.484163 C634.95543,204.091802 631.493114,204.699441 628.030798,202.673202 C624.568483,200.646963 621.921242,199.026204 620.087908,194.568245 C618.254573,190.110287 618.254573,188.286206 617.033129,186.665447 C615.811685,185.044688 599.518366,176.533089 597.889384,175.51997 C596.260403,174.50685 582.614325,170.252213 582.614325,170.252213" id="Stroke-23" stroke="#85AFFB" stroke-width="1.204"></path></g></g></svg>