<svg xmlns="http://www.w3.org/2000/svg" xmlns:xlink="http://www.w3.org/1999/xlink" width="939px" height="310px" viewBox="0 0 939 310"><title>Aofl_corpsite_lineart_teacher</title><defs><polygon id="path-1" points="2.84217094e-14 0 938.6049 0 938.6049 309.999901 2.84217094e-14 309.999901"></polygon></defs><g id="Page-1" stroke="none" stroke-width="1" fill="none" fill-rule="evenodd"><g id="Aofl_corpsite_lineart_teacher"><mask id="mask-2" fill="white"><use xlink:href="#path-1"></use></mask><g id="Clip-2"></g><path d="M130.691,302.590901 C132.127,304.362901 133.976,305.324901 136.375,305.508901 C143.741,306.104901 145.895,304.576901 146.002,303.567901 C146.14,302.330901 143.756,300.252901 139.584,299.672901 C137.965,299.443901 135.795,299.351901 133.166,299.351901 C131.852,299.351901 130.431,299.381901 128.903,299.427901 C129.392,300.665901 129.988,301.719901 130.691,302.590901 L130.691,302.590901 Z M305.308,301.031901 C305.522,301.306901 305.828,301.551901 306.21,301.795901 C306.76,301.795901 307.295,301.780901 307.814,301.765901 C306.699,301.184901 305.598,300.619901 305.033,300.436901 C305.048,300.634901 305.14,300.833901 305.293,301.031901 L305.308,301.031901 Z M311.252,303.537901 C311.023,303.415901 310.794,303.308901 310.565,303.201901 L309.785,303.201901 C310.244,303.323901 310.733,303.445901 311.252,303.552901 L311.252,303.537901 Z M316.815,304.469901 C323.859,305.385901 333.38,305.859901 343.496,306.073901 C345.864,305.477901 347.331,304.713901 347.744,303.797901 C347.988,303.231901 348.111,302.223901 347.209,300.604901 C346.766,299.809901 346.124,299.076901 345.268,298.419901 C345.039,298.449901 344.81,298.465901 344.596,298.495901 C337.994,302.345901 332.707,304.698901 329.682,304.698901 L329.62,304.698901 C327.42,304.667901 325.189,304.408901 322.591,304.117901 C320.131,303.827901 317.365,303.522901 314.095,303.338901 C314.95,303.720901 315.867,304.117901 316.815,304.484901 L316.815,304.469901 Z M331.408,307.341901 C332.585,307.310901 333.7,307.280901 334.77,307.219901 C330.721,307.066901 327.099,306.867901 323.89,306.608901 C326.274,307.112901 328.81,307.402901 331.408,307.341901 L331.408,307.341901 Z M391.035,305.859901 C439.232,304.927901 464.965,303.781901 469.703,302.361901 C471.628,301.780901 473.538,301.077901 475.402,300.283901 C470.971,296.356901 466.768,289.680901 460.457,279.628901 C457.814,275.426901 454.819,270.660901 451.243,265.206901 L448.324,260.745901 C438.59,245.864901 434.143,239.081901 433.578,234.528901 C433.364,232.741901 433.486,230.877901 433.914,228.983901 C432.799,230.022901 431.683,231.091901 430.567,232.145901 C428.566,234.055901 426.487,236.026901 424.44,237.889901 C416.112,245.513901 389.171,267.788901 365.714,284.532901 C367.731,285.326901 369.046,286.319901 369.214,287.541901 C369.581,290.215901 364.645,292.583901 361.986,293.866901 C357.203,296.158901 352.099,297.502901 347.148,298.190901 C347.652,298.724901 348.095,299.290901 348.447,299.931901 C349.623,302.070901 349.409,303.537901 349.027,304.392901 C348.722,305.065901 348.141,305.645901 347.27,306.165901 C363.361,306.409901 380.354,306.088901 391.035,305.874901 L391.035,305.859901 Z M476.823,299.672901 C482.829,296.968901 488.208,293.545901 491.524,291.452901 C497.56,287.618901 500.815,285.387901 501.778,283.829901 C503.474,281.079901 499.134,274.830901 490.5,262.364901 C486.221,256.192901 480.904,248.507901 474.608,238.821901 C473.11,236.515901 471.765,234.345901 470.543,232.313901 C467.105,229.884901 463.682,225.958901 460.687,222.536901 C458.99,220.580901 458.043,219.266901 457.432,218.395901 C456.652,217.295901 456.362,216.883901 455.537,216.516901 C450.891,214.393901 443.572,220.107901 435.931,227.119901 C435.045,229.579901 434.709,232.054901 434.984,234.360901 C435.503,238.592901 440.179,245.742901 449.501,259.981901 L452.42,264.442901 C455.995,269.911901 458.99,274.678901 461.634,278.894901 C468.312,289.512901 472.423,296.051901 476.793,299.672901 L476.823,299.672901 Z M437.459,223.834901 C444.687,217.433901 451.258,212.987901 456.133,215.218901 C457.31,215.752901 457.753,216.394901 458.593,217.570901 C459.235,218.472901 460.106,219.709901 461.756,221.604901 C463.758,223.895901 466.081,226.538901 468.449,228.738901 C467.64,227.348901 466.891,226.049901 466.203,224.843901 C461.634,216.837901 459.113,212.422901 455.185,212.101901 C454.926,212.086901 454.651,212.071901 454.391,212.071901 C450.25,212.071901 445.299,214.576901 441.28,218.762901 C439.751,220.351901 438.468,222.062901 437.475,223.834901 L437.459,223.834901 Z M477.236,233.154901 C477.343,233.138901 478.29,232.848901 481.179,228.234901 C487.23,218.548901 495.161,200.612901 494.779,198.474901 C493.22,197.664901 481.072,197.679901 468.22,197.710901 C460.549,197.710901 451.869,197.740901 443.006,197.618901 C436.099,197.526901 429.116,197.358901 422.362,197.206901 C402.084,196.747901 382.952,196.304901 380.308,198.031901 C376.763,200.337901 375.632,202.614901 372.27,209.397901 C370.91,212.116901 369.229,215.508901 366.891,219.908901 C361.818,229.441901 357.157,237.156901 353.749,242.778901 C352.832,244.291901 351.916,245.803901 351.09,247.194901 C351.732,247.285901 352.298,247.530901 352.756,248.095901 C353.963,249.638901 353.26,252.327901 351.916,253.946901 C350.647,255.459901 347.851,256.941901 346.582,255.902901 C345.436,254.954901 346.139,252.968901 348.6,248.660901 C347.591,248.721901 346.384,248.721901 345.008,248.385901 C342.594,247.820901 341.341,246.628901 340.225,245.574901 C339.492,244.887901 338.804,244.230901 337.842,243.787901 C333.288,241.709901 325.953,245.528901 322.194,248.905901 C320.1,250.784901 319.367,252.266901 319.565,252.846901 C319.795,253.549901 322.041,253.656901 324.654,253.793901 C325.54,253.839901 326.518,253.885901 327.573,253.961901 C345.054,255.229901 366.402,262.410901 366.371,268.994901 C366.371,271.454901 363.438,273.089901 361.864,273.944901 C361.558,274.112901 361.252,274.265901 360.947,274.418901 C361.161,274.449901 361.359,274.494901 361.573,274.525901 C368.389,275.717901 371.2,276.205901 371.537,278.161901 C371.552,278.283901 371.567,278.405901 371.552,278.543901 C392.686,262.990901 415.179,244.444901 423.538,236.805901 C425.571,234.941901 427.649,232.970901 429.651,231.076901 C431.377,229.426901 433.089,227.806901 434.785,226.248901 C435.916,223.269901 437.795,220.336901 440.286,217.738901 C444.871,212.987901 450.632,210.268901 455.338,210.650901 C459.984,211.032901 462.643,215.676901 467.456,224.094901 C468.663,226.218901 470.039,228.616901 471.628,231.274901 C473.614,232.649901 475.555,233.413901 477.267,233.123901 L477.236,233.154901 Z M350.265,248.569901 C348.386,251.792901 347.132,254.267901 347.453,254.817901 C347.79,255.046901 349.685,254.404901 350.815,253.045901 C351.778,251.899901 352.343,249.867901 351.625,248.966901 C351.381,248.645901 351.014,248.553901 350.403,248.553901 L350.265,248.553901 L350.265,248.569901 Z M364.354,285.509901 C358.364,289.757901 352.649,293.607901 347.545,296.723901 C352.175,296.020901 356.928,294.737901 361.39,292.598901 C363.04,291.804901 368.052,289.405901 367.823,287.740901 C367.731,287.144901 366.799,286.441901 365.256,285.830901 C364.981,285.723901 364.675,285.616901 364.354,285.509901 L364.354,285.509901 Z M338.468,295.501901 C331.439,293.851901 323.355,294.416901 320.666,295.012901 C323.493,296.188901 332.768,298.083901 343.358,297.212901 C341.998,296.525901 340.363,295.944901 338.468,295.501901 L338.468,295.501901 Z M343.694,272.417901 L338.682,271.225901 C334.373,270.201901 330.705,269.315901 328.138,268.720901 C333.762,271.668901 345.222,276.465901 355.033,274.846901 C351.793,274.235901 348.019,273.456901 343.694,272.417901 L343.694,272.417901 Z M328.78,283.432901 C330.705,284.639901 339.263,287.037901 348.217,286.533901 C352.313,286.304901 356.317,285.479901 359.755,284.394901 C349.18,282.454901 331.989,282.378901 328.78,283.432901 L328.78,283.432901 Z M171.461,279.933901 C175.633,280.972901 188.194,282.484901 195.406,277.367901 C184.45,278.161901 174.975,279.215901 171.461,279.933901 L171.461,279.933901 Z M282.417,255.031901 C282.646,258.636901 283.364,261.814901 283.96,263.128901 C284.648,260.790901 284.388,257.353901 282.417,255.031901 L282.417,255.031901 Z M240.455,275.411901 C248.035,275.885901 253.031,276.205901 262.659,274.479901 C279.575,271.439901 290.103,265.801901 299.379,260.806901 C307.325,256.543901 323.844,247.682901 323.065,238.730901 C323.019,238.271901 322.958,238.058901 322.423,236.347901 C322.041,235.155901 321.46,233.337901 320.528,230.281901 C320.528,230.251901 319.718,227.623901 317.823,221.176901 C317.09,221.925901 316.234,222.658901 315.241,223.361901 C301.534,233.047901 295.895,232.374901 294.489,231.931901 C293.572,231.641901 293.221,231.152901 293.098,230.785901 C292.426,228.952901 292.839,228.036901 294.55,224.201901 C295.773,221.466901 297.606,217.341901 300.311,210.237901 C305.644,196.197901 304.33,188.818901 303.306,187.397901 C302.603,188.635901 301.457,193.371901 300.235,198.367901 C297.133,211.123901 292.426,230.404901 284.511,242.855901 C282.83,245.498901 282.31,249.317901 282.341,252.984901 C285.932,255.825901 286.283,261.203901 285.061,264.243901 C284.801,264.870901 284.388,265.007901 284.159,265.022901 C283.716,265.053901 283.319,264.793901 282.982,264.228901 C282.096,262.746901 281.057,258.422901 280.919,253.702901 C280.889,253.686901 280.858,253.656901 280.828,253.641901 C278.627,252.281901 277.374,253.549901 274.119,257.368901 C271.078,260.928901 266.464,266.306901 257.983,271.042901 C255.813,272.249901 248.478,274.571901 239.844,275.350901 C240.058,275.350901 240.256,275.380901 240.47,275.396901 L240.455,275.411901 Z M320.207,207.319901 L320.1,206.525901 C317.671,187.443901 315.378,169.431901 312.903,167.705901 C312.826,167.659901 312.796,167.644901 312.781,167.644901 C312.062,168.026901 311.222,173.067901 313.27,189.445901 C314.63,200.444901 316.845,212.773901 318.435,218.227901 C320.696,214.775901 320.696,211.001901 320.222,207.319901 L320.207,207.319901 Z M211.834,196.549901 C213.744,166.666901 212.934,146.148901 202.741,143.139901 C202.237,142.986901 201.916,142.955901 201.717,142.955901 C201.473,142.955901 201.412,143.016901 201.397,143.016901 C200.923,143.505901 201.947,146.698901 202.94,149.800901 C205.385,157.438901 209.495,170.210901 209.923,189.002901 C210.122,197.710901 209.083,205.700901 207.769,213.018901 C209.236,211.780901 211.1,207.900901 211.818,196.564901 L211.834,196.549901 Z M188.453,123.675901 C187.139,121.506901 185.993,119.275901 185.046,117.014901 C181.302,117.228901 177.619,118.053901 174.15,119.535901 C173.325,119.886901 172.53,120.299901 171.766,120.742901 C176.993,120.115901 182.631,121.108901 188.453,123.675901 L188.453,123.675901 Z M190.853,124.821901 C192.151,125.478901 193.466,126.226901 194.78,127.051901 C201.152,131.008901 207.509,136.691901 213.239,143.444901 C218.19,145.308901 223.187,145.934901 227.94,145.216901 C226.396,142.008901 224.517,138.846901 222.011,135.607901 C212.75,123.690901 199.593,116.968901 187.032,116.968901 L186.574,116.968901 C187.735,119.642901 189.172,122.285901 190.868,124.821901 L190.853,124.821901 Z M199.318,134.660901 C202.802,137.837901 206.47,140.343901 210.198,142.145901 C204.926,136.309901 198.967,131.192901 192.808,127.571901 C194.734,130.076901 196.904,132.460901 199.318,134.660901 L199.318,134.660901 Z M219.123,151.129901 C223.737,157.759901 226.228,162.816901 228.857,168.163901 C232.081,174.702901 235.397,181.470901 243.007,191.813901 C251.824,203.805901 255.538,204.844901 256.974,204.401901 C257.387,204.279901 257.738,203.989901 258.044,203.561901 C251.305,195.785901 245.635,186.328901 244.566,184.510901 C238.377,173.999901 235.473,165.520901 232.906,158.034901 C231.516,153.986901 230.217,150.212901 228.551,146.530901 C224.15,147.279901 219.535,146.912901 214.936,145.507901 C216.387,147.309901 217.778,149.188901 219.123,151.113901 L219.123,151.129901 Z M258.716,202.155901 C259.113,200.933901 259.358,199.253901 259.419,197.129901 C260.183,172.884901 270.864,162.434901 272.805,161.517901 C273.309,161.288901 273.798,161.181901 274.287,161.181901 C274.899,161.181901 275.495,161.349901 276.09,161.624901 C272.194,155.406901 261.421,141.137901 249.272,140.450901 C244.856,140.190901 241.815,141.596901 238.3,143.215901 C235.978,144.284901 233.594,145.384901 230.568,146.133901 C230.369,146.179901 230.171,146.225901 229.988,146.270901 C231.607,149.906901 232.891,153.619901 234.251,157.591901 C236.803,165.016901 239.691,173.419901 245.803,183.807901 C248.86,189.002901 253.658,196.213901 258.747,202.155901 L258.716,202.155901 Z M275.021,212.682901 C276.839,212.116901 278.474,210.375901 279.743,207.640901 C283.792,198.962901 284.128,179.973901 277.619,164.359901 C275.892,162.923901 274.608,162.220901 273.401,162.785901 C271.583,163.717901 261.558,174.030901 260.825,197.175901 C260.733,199.864901 260.382,201.926901 259.755,203.362901 C265.226,209.519901 270.91,213.965901 275.021,212.697901 L275.021,212.682901 Z M280.262,164.787901 C283.594,167.766901 287.353,171.157901 292.655,169.737901 C295.284,169.034901 296.858,167.644901 298.844,165.902901 C299.119,165.658901 299.394,165.413901 299.685,165.169901 C306.668,159.103901 311.955,156.980901 316.616,155.192901 L316.616,154.917901 C316.876,151.098901 319.458,149.081901 322.729,146.530901 C325.601,144.300901 329.162,141.504901 332.188,136.554901 C333.731,134.033901 334.082,132.230901 334.617,129.496901 C335.091,127.097901 335.672,124.118901 337.276,119.520901 C338.652,115.624901 340.21,114.096901 342.013,112.354901 C345.085,109.375901 348.92,105.678901 354.452,87.803901 C359.357,71.991901 357.615,63.634901 356.775,59.616901 C356.668,59.112901 356.576,58.669901 356.515,58.287901 C356.301,57.080901 356.423,56.393901 356.912,56.042901 C357.065,55.935901 357.478,55.705901 358.043,56.011901 C359.862,57.004901 363.162,64.337901 362.704,74.268901 C362.184,85.420901 357.89,94.266901 355.308,99.552901 C354.422,101.385901 353.505,103.264901 353.52,103.845901 C353.627,103.875901 353.841,103.921901 354.208,103.845901 C356.393,103.478901 360.213,100.423901 364.37,92.967901 C371.46,80.226901 369.26,62.229901 363.942,50.037901 C360.06,41.146901 353.428,34.622901 346.002,29.841901 C347.515,32.224901 348.92,34.760901 350.189,37.418901 C353.673,44.690901 355.262,53.628901 354.544,61.923901 C353.765,71.166901 350.158,78.622901 344.382,82.945901 C335.152,89.866901 322.285,93.273901 313.101,91.241901 C303.016,89.010901 289.996,79.599901 287.444,69.669901 C286.68,66.705901 286.864,63.512901 287.781,60.472901 C278.78,60.380901 271.002,61.434901 269.016,65.911901 C267.594,69.104901 270.391,73.611901 273.921,79.309901 C278.276,86.337901 283.685,95.076901 284.067,105.861901 C284.235,110.628901 282.646,120.665901 275.617,127.999901 C270.65,133.193901 262.063,135.469901 252.053,134.232901 C237.903,132.490901 224.547,124.561901 218.817,114.478901 C217.885,112.843901 216.983,110.842901 216.28,108.642901 C212.109,107.771901 207.692,105.984901 203.521,102.668901 C200.632,100.362901 191.555,92.096901 191.601,79.309901 C187.063,84.992901 184.19,92.310901 183.487,96.894901 C182.585,102.791901 183.502,109.223901 185.978,115.486901 C190.608,115.334901 195.391,116.082901 200.143,117.732901 C208.823,120.757901 216.999,126.792901 223.142,134.705901 C225.816,138.158901 227.787,141.504901 229.391,144.911901 C229.682,144.850901 229.957,144.789901 230.247,144.712901 C233.151,143.994901 235.489,142.925901 237.735,141.886901 C241.28,140.251901 244.627,138.723901 249.379,138.998901 C264.355,139.854901 277.206,160.158901 278.811,163.442901 C279.3,163.855901 279.789,164.298901 280.293,164.756901 L280.262,164.787901 Z M329.055,167.583901 C334.984,168.713901 340.592,165.016901 343.587,161.502901 C343.954,161.059901 344.29,160.631901 344.565,160.234901 C339.523,160.356901 334.831,159.256901 333.043,156.170901 C331.362,153.283901 332.6,149.509901 333.41,147.004901 C335.015,142.115901 338.728,137.669901 341.066,136.753901 C341.662,136.508901 342.181,136.508901 342.579,136.737901 C343.786,137.394901 343.297,139.258901 342.563,142.084901 C341.631,145.705901 340.348,150.655901 342.762,153.176901 C343.526,153.970901 344.321,154.215901 345.1,154.444901 C345.956,154.704901 346.842,154.963901 347.209,155.987901 C347.469,156.705901 347.392,157.606901 347.01,158.630901 C348.126,158.508901 349.226,158.340901 350.28,158.126901 C355.568,157.041901 358.578,155.192901 358.731,153.986901 C358.823,153.222901 357.432,152.397901 355.95,151.541901 C353.596,150.166901 350.663,148.455901 350.143,145.155901 C349.654,142.039901 351.747,139.762901 353.78,137.562901 C355.69,135.500901 357.661,133.361901 357.86,130.397901 C358.104,126.883901 355.751,122.346901 352.007,119.138901 C349.241,116.754901 346.277,115.624901 344.107,116.097901 C340.898,116.815901 340.225,120.910901 339.309,126.593901 C338.101,134.018901 336.604,143.261901 328.535,150.288901 C325.005,153.374901 321.613,154.734901 318.037,156.094901 C318.404,161.166901 323.355,166.421901 329.055,167.521901 L329.055,167.583901 Z M345.406,158.783901 C345.91,157.744901 346.032,156.934901 345.864,156.491901 C345.742,156.155901 345.452,156.048901 344.672,155.804901 C343.862,155.559901 342.747,155.223901 341.723,154.154901 C338.774,151.052901 340.164,145.659901 341.188,141.733901 C341.555,140.343901 342.029,138.479901 341.861,137.975901 C340.837,137.975901 336.619,141.718901 334.74,147.447901 C334.006,149.708901 332.89,153.115901 334.251,155.467901 C335.84,158.202901 340.531,159.073901 345.406,158.783901 L345.406,158.783901 Z M289.706,59.112901 C294.168,59.235901 298.859,59.601901 303.367,59.953901 C312.719,60.686901 322.377,61.434901 323.08,59.005901 C323.325,58.180901 322.561,56.378901 320.329,54.178901 C316.784,50.694901 310.977,47.639901 305.186,47.639901 C303.704,47.639901 302.221,47.838901 300.77,48.281901 C295.803,49.824901 291.723,54.117901 289.706,59.097901 L289.706,59.112901 Z M217.35,107.404901 C225.8,108.886901 233.044,106.595901 234.19,106.213901 C240.501,104.059901 248.921,99.093901 248.325,95.396901 C247.958,93.151901 244.092,90.538901 238.896,89.026901 C236.329,88.277901 233.334,87.773901 230.37,87.773901 C226.014,87.773901 221.736,88.858901 219.046,91.883901 C215.532,95.824901 215.822,102.103901 217.335,107.404901 L217.35,107.404901 Z M223.906,51.947901 C224.945,59.403901 228.597,66.491901 234.22,68.432901 C238.469,69.898901 243.97,68.447901 246.995,66.339901 C248.355,65.391901 249.15,64.352901 249.165,63.497901 C249.196,62.259901 247.53,59.846901 242.747,57.172901 C237.597,54.285901 230.828,52.207901 223.906,51.947901 L223.906,51.947901 Z M343.098,28.130901 C336.634,24.432901 329.758,21.942901 323.691,20.277901 C308.364,16.060901 289.309,14.670901 272.713,16.564901 C262.383,17.741901 230.965,21.316901 224.777,39.710901 C223.692,42.933901 223.371,46.753901 223.738,50.557901 C230.981,50.786901 238.071,52.955901 243.435,55.950901 C247.958,58.486901 250.617,61.312901 250.571,63.527901 C250.541,64.857901 249.563,66.262901 247.79,67.500901 C244.398,69.868901 238.484,71.395901 233.747,69.761901 C227.451,67.591901 223.493,59.937901 222.439,51.917901 C220.605,51.917901 218.771,52.054901 216.968,52.329901 C216.387,56.744901 216.418,60.655901 216.418,63.833901 C216.433,68.126901 216.448,70.708901 214.966,71.777901 C214.217,72.312901 213.194,72.358901 211.849,71.900901 C207.02,70.265901 202.405,70.769901 198.096,73.381901 C196.262,74.497901 194.566,75.963901 193.022,77.629901 L193.022,77.720901 C192.151,90.798901 201.473,99.307901 204.361,101.599901 C208.059,104.548901 212.002,106.213901 215.776,107.084901 C214.309,101.538901 214.248,95.167901 218.007,90.951901 C222.943,85.405901 232.555,85.726901 239.294,87.681901 C245.162,89.392901 249.257,92.326901 249.715,95.167901 C250.617,100.759901 238.851,106.106901 234.648,107.542901 C232.784,108.184901 225.923,110.216901 217.839,108.978901 C218.466,110.827901 219.23,112.492901 219.994,113.836901 C225.525,123.538901 238.468,131.192901 252.191,132.887901 C261.742,134.064901 269.902,131.940901 274.562,127.067901 C281.271,120.054901 282.784,110.491901 282.631,105.953901 C282.264,95.549901 276.962,86.978901 272.698,80.088901 C268.954,74.038901 265.99,69.257901 267.701,65.376901 C269.902,60.396901 277.496,59.082901 286.589,59.082901 L288.239,59.082901 C290.348,53.505901 294.841,48.647901 300.357,46.951901 C307.998,44.583901 316.586,48.525901 321.323,53.185901 C323.752,55.583901 324.883,57.844901 324.44,59.403901 C323.462,62.764901 316.127,62.351901 303.26,61.358901 C298.737,61.007901 293.847,60.625901 289.202,60.518901 C288.27,63.436901 288.071,66.507901 288.789,69.333901 C291.204,78.774901 303.688,87.727901 313.377,89.881901 C322.194,91.837901 334.587,88.521901 343.511,81.830901 C355.094,73.152901 355.629,52.176901 348.875,38.045901 C347.163,34.470901 345.238,31.170901 343.098,28.114901 L343.098,28.130901 Z M311.696,5.64190096 C299.134,1.79190096 265.608,-2.71509904 247.851,8.91190096 C225.571,23.500901 219.061,38.900901 217.182,50.893901 C218.878,50.649901 220.59,50.542901 222.286,50.526901 C221.934,46.585901 222.286,42.613901 223.432,39.236901 C229.911,20.002901 262.001,16.351901 272.545,15.144901 C289.309,13.234901 308.563,14.640901 324.058,18.902901 C330.339,20.628901 336.023,22.813901 341.066,25.410901 C333.578,15.953901 323.752,9.32390096 311.696,5.62690096 L311.696,5.64190096 Z M206.011,56.393901 C204.117,57.600901 195.116,63.925901 193.282,75.383901 C194.551,74.161901 195.911,73.076901 197.362,72.205901 C200.235,70.463901 203.261,69.577901 206.378,69.577901 C208.319,69.577901 210.29,69.913901 212.307,70.601901 C213.194,70.891901 213.805,70.922901 214.156,70.677901 C215.058,70.036901 215.043,67.316901 215.027,63.879901 C215.027,60.884901 214.997,57.035901 215.562,52.619901 C212.216,53.292901 208.976,54.514901 206.027,56.408901 L206.011,56.393901 Z M45.605,302.620901 L47.745,302.620901 C62.736,302.620901 81.715,301.199901 98.463,299.962901 C109.251,299.152901 119.184,298.419901 126.932,298.129901 C123.432,286.044901 126.641,261.814901 131.119,227.852901 C132.173,219.893901 133.258,211.658901 134.373,202.782901 C138.026,173.617901 150.678,127.800901 166.219,122.101901 C166.938,121.842901 167.656,121.613901 168.405,121.414901 C169.979,120.115901 171.659,119.076901 173.57,118.267901 C177.054,116.785901 180.691,115.899901 184.434,115.624901 C182.005,109.268901 181.103,102.730901 182.035,96.741901 C182.83,91.592901 186.253,83.144901 191.647,77.079901 C192.808,63.818901 203.154,56.546901 205.247,55.217901 C208.487,53.139901 212.063,51.825901 215.761,51.153901 C217.656,38.931901 224.272,22.706901 247.072,7.76590096 C265.424,-4.25809904 298.814,0.248900958 312.108,4.31290096 C325.494,8.40690096 336.207,16.045901 344.061,27.075901 C354.055,32.850901 361.222,40.428901 365.195,49.518901 C370.268,61.114901 373.401,79.645901 365.562,93.701901 C359.999,103.692901 355.583,105.098901 354.36,105.296901 C353.551,105.418901 352.878,105.281901 352.466,104.884901 C351.549,104.028901 352.328,102.455901 354.009,98.971901 C356.53,93.777901 360.748,85.099901 361.252,74.237901 C361.65,65.590901 359.113,59.571901 357.829,57.798901 C357.829,57.875901 357.86,57.966901 357.875,58.073901 C357.936,58.440901 358.028,58.868901 358.135,59.357901 C359.006,63.482901 360.794,72.083901 355.782,88.246901 C350.128,106.457901 346.17,110.292901 342.976,113.393901 C341.219,115.089901 339.843,116.433901 338.575,120.008901 C337.001,124.515901 336.42,127.449901 335.962,129.801901 C335.427,132.582901 335.03,134.583901 333.364,137.318901 C330.216,142.482901 326.534,145.354901 323.569,147.661901 C320.589,149.983901 318.404,151.694901 318.037,154.642901 C321.399,153.344901 324.379,152.061901 327.573,149.295901 C335.259,142.604901 336.711,133.636901 337.887,126.440901 C338.865,120.451901 339.63,115.715901 343.771,114.799901 C346.414,114.203901 349.746,115.425901 352.894,118.145901 C357.019,121.689901 359.495,126.562901 359.22,130.565901 C358.975,134.033901 356.744,136.447901 354.773,138.586901 C352.802,140.709901 351.106,142.558901 351.488,145.002901 C351.9,147.630901 354.406,149.097901 356.607,150.380901 C358.578,151.526901 360.29,152.519901 360.076,154.215901 C359.755,156.781901 354.926,158.660901 350.51,159.562901 C349.119,159.852901 347.683,160.051901 346.246,160.173901 C345.818,160.906901 345.268,161.670901 344.611,162.449901 C341.372,166.253901 335.274,170.256901 328.749,169.003901 C322.622,167.827901 317.304,162.251901 316.631,156.705901 C312.185,158.416901 307.142,160.555901 300.571,166.253901 C300.281,166.498901 300.021,166.742901 299.746,166.971901 C297.713,168.774901 295.941,170.332901 292.991,171.112901 C287.307,172.624901 283.212,169.339901 279.911,166.391901 C285.611,181.974901 285.061,199.574901 281.011,208.251901 C279.544,211.398901 277.664,213.354901 275.418,214.041901 C274.807,214.225901 274.18,214.316901 273.539,214.316901 C269.061,214.316901 263.789,210.008901 258.976,204.661901 C258.517,205.211901 257.983,205.578901 257.371,205.776901 C254.101,206.800901 249.165,202.629901 241.846,192.668901 C234.175,182.218901 230.813,175.389901 227.573,168.805901 C224.96,163.503901 222.5,158.492901 217.946,151.954901 C216.204,149.448901 214.34,147.004901 212.338,144.651901 C207.524,142.772901 202.772,139.777901 198.34,135.729901 C195.116,132.780901 192.289,129.496901 189.92,126.028901 C182.952,122.514901 175.801,121.032901 169.092,122.697901 C163.897,127.112901 159.908,134.751901 153.429,147.157901 C149.15,155.361901 145.468,166.498901 143.344,177.727901 C141.678,186.542901 141.556,191.996901 141.892,194.150901 C141.968,193.692901 142.029,193.157901 142.106,192.668901 C142.61,188.925901 143.45,182.661901 147.317,180.568901 C158.915,174.320901 178.246,182.478901 190.226,193.997901 C195.33,198.901901 198.6,203.943901 200.984,207.610901 C203.169,210.986901 204.712,213.339901 206.21,213.568901 C207.57,206.112901 208.686,197.954901 208.487,189.063901 C208.059,170.485901 203.994,157.820901 201.58,150.258901 C200.006,145.384901 199.303,143.154901 200.373,142.054901 C201.091,141.321901 202.283,141.565901 203.123,141.809901 C214.202,145.094901 215.18,166.116901 213.224,196.671901 C212.506,207.839901 210.611,213.797901 207.433,214.821901 C206.974,217.234901 206.5,219.572901 206.042,221.848901 C203.001,236.866901 200.373,249.837901 208.258,262.777901 C214.126,272.417901 225.907,274.357901 234.725,274.281901 C245.101,274.189901 254.682,271.317901 257.264,269.881901 C265.531,265.267901 269.856,260.210901 273.019,256.513901 C275.938,253.106901 277.924,250.784901 280.889,252.159901 C280.95,248.538901 281.607,244.841901 283.303,242.167901 C291.097,229.899901 295.757,210.757901 298.844,198.092901 C301.427,187.489901 302.007,185.625901 303.398,185.870901 C303.841,185.946901 304.223,186.297901 304.559,186.878901 C305.919,189.292901 306.821,197.053901 301.61,210.787901 C298.89,217.922901 297.041,222.077901 295.819,224.827901 C294.138,228.586901 293.939,229.120901 294.397,230.358901 C294.413,230.404901 294.581,230.556901 295.009,230.663901 C295.925,230.908901 301.167,231.610901 314.4,222.245901 C315.577,221.405901 316.54,220.534901 317.334,219.633901 C317.243,219.327901 317.151,219.022901 317.059,218.701901 C314.156,208.755901 308.456,172.135901 311.39,167.124901 C311.665,166.666901 312.001,166.391901 312.414,166.299901 C312.719,166.238901 313.178,166.223901 313.682,166.574901 C316.54,168.560901 318.404,182.295901 321.476,206.372901 L321.583,207.166901 C322.102,211.291901 322.087,215.875901 318.893,219.954901 C320.956,227.012901 321.842,229.869901 321.842,229.899901 C322.774,232.955901 323.355,234.758901 323.737,235.949901 C324.287,237.691901 324.394,237.996901 324.455,238.638901 C325.311,248.507901 308.242,257.674901 300.036,262.074901 C290.654,267.115901 280.033,272.814901 262.888,275.885901 C253.093,277.642901 248.019,277.321901 240.348,276.847901 C234.709,276.496901 227.711,276.053901 216.403,276.328901 C210.351,276.480901 203.918,276.801901 197.821,277.214901 C190.073,284.593901 174.257,282.439901 170.238,281.079901 C169.551,280.850901 168.878,280.575901 168.863,279.933901 C168.863,279.719901 168.939,279.505901 169.092,279.337901 C170.177,278.176901 183.502,276.771901 197.179,275.839901 C197.393,275.625901 197.592,275.396901 197.79,275.151901 C199.609,272.951901 199.532,271.363901 199.135,262.563901 C198.936,258.239901 198.661,252.327901 198.493,243.848901 C198.478,242.717901 198.447,241.633901 198.432,240.594901 C198.264,229.915901 198.172,224.552901 194.703,217.968901 C193.481,215.630901 191.449,212.376901 186.681,207.839901 L186.268,207.441901 C178.307,199.864901 159.648,182.142901 149.991,187.902901 C143.985,191.477901 144.765,202.446901 147.072,235.017901 C147.469,240.517901 147.897,246.766901 148.356,253.656901 C148.722,259.263901 148.997,264.320901 149.242,268.781901 C150.388,290.184901 150.923,299.947901 158.946,306.547901 C161.727,308.823901 178.903,308.624901 195.529,308.426901 C200.434,308.365901 205.492,308.303901 210.275,308.303901 C251.641,308.303901 267.289,307.753901 284.587,304.331901 L284.847,304.285901 C287.613,303.735901 293.389,302.590901 301.228,302.055901 C302.237,301.979901 303.23,301.933901 304.162,301.887901 C303.658,301.230901 303.505,300.497901 303.704,299.733901 C303.78,299.427901 303.979,299.198901 304.254,299.076901 C304.987,298.755901 305.996,299.244901 308.777,300.711901 C309.403,301.047901 310.122,301.413901 310.901,301.811901 C315.699,301.917901 319.474,302.345901 322.744,302.727901 C325.296,303.017901 327.512,303.277901 329.636,303.308901 L329.697,303.308901 C332.126,303.308901 336.222,301.612901 341.402,298.740901 C330.216,299.274901 320.818,296.952901 319.138,295.791901 C318.74,295.516901 318.557,295.195901 318.587,294.844901 C318.649,294.156901 319.367,293.882901 320.498,293.637901 C324.211,292.843901 338.04,292.109901 345.131,296.586901 C350.311,293.484901 356.301,289.497901 362.628,285.036901 C362.566,285.021901 362.505,285.005901 362.429,284.990901 C358.303,286.502901 353.245,287.679901 348.294,287.954901 C338.621,288.504901 328.963,285.800901 327.405,284.134901 C327.068,283.783901 327.038,283.447901 327.068,283.233901 C327.145,282.637901 327.298,281.400901 338.086,281.354901 C343.587,281.323901 354.956,281.751901 362.322,283.539901 C366.02,282.133901 368.755,280.514901 369.764,279.246901 C370.131,278.787901 370.131,278.543901 370.115,278.482901 C369.947,277.504901 366.326,276.862901 361.298,275.992901 C360.412,275.839901 359.449,275.671901 358.425,275.487901 C351.564,277.672901 343.679,276.144901 337.887,274.281901 C330.308,271.851901 324.471,268.322901 323.844,267.788901 C323.447,267.451901 323.554,267.054901 323.6,266.947901 C323.773,266.509901 325.316,266.632901 328.23,267.314901 C330.705,267.895901 334.342,268.765901 339.018,269.881901 L344.031,271.072901 C349.761,272.432901 354.513,273.349901 358.334,274.036901 C359.312,273.700901 360.244,273.287901 361.161,272.783901 C362.383,272.111901 364.935,270.690901 364.935,269.056901 C364.95,264.396901 346.43,256.803901 327.45,255.443901 C326.411,255.367901 325.449,255.321901 324.562,255.275901 C320.941,255.092901 318.74,254.970901 318.205,253.366901 C317.594,251.548901 319.84,249.180901 321.231,247.927901 C324.99,244.551901 332.982,240.105901 338.407,242.580901 C339.599,243.114901 340.409,243.878901 341.188,244.627901 C342.258,245.650901 343.266,246.598901 345.314,247.087901 C346.827,247.438901 348.095,247.362901 349.211,247.270901 C349.287,247.270901 349.364,247.270901 349.44,247.255901 C350.311,245.788901 351.335,244.077901 352.527,242.106901 C355.919,236.499901 360.58,228.799901 365.638,219.297901 C367.961,214.927901 369.642,211.551901 370.986,208.832901 C374.394,201.987901 375.662,199.421901 379.529,196.900901 C382.386,195.036901 397.667,195.296901 422.377,195.846901 C429.131,195.999901 436.115,196.151901 443.022,196.258901 C451.869,196.381901 460.549,196.365901 468.22,196.350901 C489.644,196.319901 495.176,196.442901 495.971,197.740901 C496.215,198.153901 496.995,199.406901 491.677,211.169901 C488.819,217.494901 480.705,234.024901 477.481,234.590901 C476.075,234.834901 474.608,234.544901 473.125,233.856901 C473.966,235.216901 474.852,236.621901 475.8,238.088901 C482.08,247.759901 487.398,255.428901 491.677,261.600901 C501.227,275.365901 505.17,281.079901 503,284.608901 C501.869,286.426901 498.782,288.580901 492.303,292.690901 C489.079,294.737901 483.929,297.991901 478.122,300.695901 C479.559,301.688901 481.056,302.391901 482.691,302.834901 C487.581,304.163901 503.565,304.270901 519.534,304.270901 L937.605,304.270901 C937.987,304.270901 938.605,304.591901 938.605,304.973901 C938.605,305.355901 937.987,305.676901 937.605,305.676901 L519.473,305.676901 C502.756,305.676901 487.322,305.569901 482.264,304.194901 C480.216,303.644901 478.367,302.712901 476.61,301.352901 C474.485,302.284901 472.285,303.109901 470.085,303.766901 C465.149,305.233901 440.026,306.363901 391.035,307.326901 C371.796,307.692901 356.179,307.769901 343.74,307.524901 C340.791,308.258901 336.68,308.701901 331.408,308.808901 C325.861,308.930901 320.742,307.570901 316.463,305.905901 C311.375,305.233901 307.906,304.362901 305.873,303.262901 C304.437,303.308901 302.924,303.369901 301.304,303.491901 C293.542,304.026901 287.842,305.156901 285.091,305.706901 L284.831,305.752901 C267.426,309.205901 251.717,309.755901 210.244,309.755901 C205.477,309.755901 200.419,309.816901 195.513,309.877901 C190.516,309.938901 185.718,309.999901 181.287,309.999901 C169.413,309.999901 160.336,309.587901 158.013,307.677901 C149.517,300.680901 148.982,290.719901 147.806,268.888901 C147.561,264.427901 147.301,259.385901 146.919,253.778901 C146.461,246.888901 146.018,240.655901 145.636,235.140901 C143.221,201.025901 142.488,190.728901 149.242,186.710901 C159.817,180.400901 178.322,197.985901 187.216,206.448901 L187.628,206.846901 C192.549,211.521901 194.642,214.912901 195.926,217.326901 C199.547,224.201901 199.639,229.670901 199.823,240.578901 C199.838,241.617901 199.853,242.687901 199.884,243.832901 C200.052,252.296901 200.327,258.193901 200.525,262.502901 C200.923,271.164901 201.03,273.257901 199.135,275.717901 C205.278,275.319901 211.36,275.029901 216.341,274.907901 C219.474,274.830901 222.271,274.815901 224.792,274.830901 C217.656,273.440901 211.054,270.110901 207.02,263.495901 C198.86,250.096901 201.534,236.866901 204.636,221.558901 C205.064,219.419901 205.522,217.204901 205.95,214.943901 C203.857,214.607901 202.176,212.009901 199.792,208.343901 C197.439,204.722901 194.214,199.757901 189.233,194.975901 C177.604,183.807901 158.991,175.817901 147.974,181.775901 C144.734,183.517901 143.955,189.338901 143.496,192.821901 C143.175,195.219901 143.038,196.060901 142.427,196.396901 C142.182,196.533901 141.876,196.549901 141.617,196.411901 C141.235,196.228901 140.944,195.861901 140.746,195.265901 C139.141,190.529901 142.549,164.894901 152.176,146.469901 C157.815,135.668901 161.604,128.426901 165.975,123.690901 C151.932,130.153901 139.477,173.464901 135.779,202.919901 C134.664,211.796901 133.579,220.030901 132.524,228.005901 C128.001,262.288901 124.792,286.548901 128.368,298.052901 C133.258,297.899901 137.17,297.945901 139.737,298.297901 C144.276,298.923901 147.638,301.322901 147.362,303.735901 C147.225,304.958901 145.865,307.708901 136.207,306.928901 C133.441,306.699901 131.21,305.538901 129.545,303.491901 C128.674,302.406901 127.955,301.077901 127.375,299.488901 C119.612,299.763901 109.526,300.527901 98.555,301.337901 C81.776,302.590901 62.766,304.010901 47.729,304.010901 L1,303.520901 C1,303.520901 2.84217094e-14,303.454901 2.84217094e-14,303.190901 C2.84217094e-14,302.925901 1.5,302.812901 1,302.812901 C0.5,302.812901 45.605,302.620901 45.605,302.620901 L45.605,302.620901 Z" id="Fill-1" fill="#85AFFB" mask="url(#mask-2)"></path></g></g></svg>