<svg xmlns="http://www.w3.org/2000/svg" xmlns:xlink="http://www.w3.org/1999/xlink" x="0px" y="0px" viewBox="0 0 603 703" style="enable-background:new 0 0 603 703;" xml:space="preserve"><style type="text/css">	.st0{fill:#327DFF;}	.st1{fill-rule:evenodd;clip-rule:evenodd;fill:#0342EC;}	.st2{fill-rule:evenodd;clip-rule:evenodd;fill:#01A7FE;}	.st3{fill:#FFFFFF;}</style><g id="Layer_2">	<path class="st0" d="M466.4,673H160.6c-18,0-32.6-14.6-32.6-32.6V153.6c0-18,14.6-32.6,32.6-32.6h305.8c18,0,32.6,14.6,32.6,32.6  v486.8C499,658.4,484.4,673,466.4,673z"></path>	<path id="Rectangle-Copy-11" class="st1" d="M36,96h53c8.8,0,16,7.2,16,16v53c0,8.8-7.2,16-16,16H36c-8.8,0-16-7.2-16-16v-53  C20,103.2,27.2,96,36,96z"></path>	<path id="Rectangle-Copy-12" class="st2" d="M124,37h22c6.1,0,11,4.9,11,11v22c0,6.1-4.9,11-11,11h-22c-6.1,0-11-4.9-11-11V48  C113,41.9,117.9,37,124,37z"></path></g><g id="Layer_1">	<g>		<path class="st3" d="M327.8,498.1c-0.9,0-1.9-0.4-2.8-0.7l-16-8.5l-15.9,8.3c-0.8,0.4-1.8,0.6-2.7,0.6c-1.3,0-2.6-0.4-3.6-1.1   c-1.9-1.5-2.8-3.7-2.4-6l3.3-17.6l-12.8-12.8c-1.7-1.7-2.2-4-1.5-6.1c0.7-2.2,2.5-3.7,4.8-4.1l18-2.4l8.1-16.1   c1.2-2,3.2-3.2,5.4-3.2c2.5,0.2,4.5,1.5,5.4,3.5l7.6,16.3l18,2.9c2.2,0.4,3.9,1.9,4.6,4.1c0.6,2.2-0.1,4.5-1.7,6L331,473.4   l2.6,17.8c0.4,2.3-0.5,4.4-2.4,5.8C330.2,497.8,329.1,498.1,327.8,498.1z M326.3,490l-2.9-19.1l13.8-13.1l-19.4-3.2l-8.2-17.7   l-8.8,17.3l-19.4,2.6l14,14l-3.6,19l17.4-9L326.3,490z"></path>		<path class="st3" d="M309.4,633.9c-0.9,0-1.7-0.3-2.4-0.9l-0.4-0.3c-9.1-9-19.1-16-29.7-20.9c-10.9-5-21.7-7.6-32.1-7.6   c-3.7,0-7.4,0.4-11.1,1c-0.3,0.1-0.6,0.1-0.9,0.1c-0.8,0-1.6-0.3-2.3-0.9c-1-0.8-1.4-1.8-1.4-3v-95.1c0-2.3,1-3.5,3.3-3.9   c3-0.4,6.1-0.8,9.4-1c1.5-0.1,3-0.1,4-0.1c1.7,0,3.7,0.1,6,0.3c15.9,1.6,31.4,7.8,46.2,18.4l11.4,9.5l11.5-9.6   c14.7-10.6,30.3-16.8,46.2-18.4c2.3-0.2,4.3-0.3,6-0.3c1,0,2.5,0.1,4,0.1c3.2,0.2,6.4,0.6,9.4,1c2.2,0.4,3.2,1.6,3.2,3.9v95.1   c0,1.2-0.5,2.2-1.4,3c-0.7,0.6-1.5,0.9-2.3,0.9l0,0c-0.3,0-0.6,0-0.9-0.1c-3.7-0.7-7.4-1-11.1-1c-10.4,0-21.2,2.6-32.1,7.6   c-10.6,4.9-20.6,11.9-29.7,20.9l-0.3,0.3C311.1,633.6,310.3,633.9,309.4,633.9z M373.9,509.2c-10.2,0-20.6,2.4-31,7.1   c-10.4,4.7-20.2,11.4-29.2,19.9l-0.4,0.4V621l2-1.6c9-7.4,18.7-13.1,28.7-17c10.1-4,20.2-6,29.9-6c1.5,0,3.8,0.1,6.7,0.3l1.3,0.1   v-87.3l-1.1-0.1C377.8,509.3,375.5,509.2,373.9,509.2z M244.9,596.4c9.8,0,19.8,2,29.9,6c10,3.9,19.7,9.6,28.7,17l2,1.6v-84.5   l-0.4-0.4c-9-8.5-18.8-15.2-29.2-19.9c-10.4-4.7-20.9-7.1-31-7.1c-1.6,0-3.9,0.1-6.9,0.3l-1.1,0.1v87.3l1.3-0.1   C241.1,596.6,243.3,596.4,244.9,596.4z"></path>		<path class="st3" d="M309.4,412.8c-2.2,0-4-1.8-4-4v-21c0-2.2,1.8-4,4-4c2.2,0,4,1.8,4,4v21C313.3,411,311.6,412.8,309.4,412.8z"></path>		<path class="st3" d="M278,421.2c-1.4,0-2.7-0.8-3.4-2L264.1,401c-0.5-0.9-0.7-2-0.4-3c0.3-1,0.9-1.9,1.8-2.4   c0.6-0.3,1.3-0.5,2-0.5c1.4,0,2.7,0.8,3.4,2l10.5,18.2c1.1,1.9,0.4,4.3-1.4,5.4C279.4,421,278.7,421.2,278,421.2z"></path>		<path class="st3" d="M255,444.2c-0.7,0-1.4-0.2-2-0.5l-18.2-10.5c-1.9-1.1-2.5-3.5-1.4-5.4c0.7-1.2,2-2,3.4-2c0.7,0,1.4,0.2,2,0.5   l18.2,10.5c0.9,0.5,1.6,1.4,1.8,2.4c0.3,1,0.1,2.1-0.4,3C257.7,443.4,256.4,444.2,255,444.2z"></path>		<path class="st3" d="M372.2,475.6c-2.2,0-4-1.8-4-4c0-2.2,1.8-4,4-4h21c2.2,0,4,1.8,4,4c0,2.2-1.8,4-4,4H372.2z"></path>		<path class="st3" d="M225.6,475.6c-2.2,0-4-1.8-4-4c0-2.2,1.8-4,4-4h21c2.2,0,4,1.8,4,4c0,2.2-1.8,4-4,4H225.6z"></path>		<path class="st3" d="M363.8,444.2c-1.4,0-2.7-0.8-3.4-2c-0.5-0.9-0.7-2-0.4-3c0.3-1,0.9-1.9,1.8-2.4l18.2-10.5   c0.6-0.3,1.3-0.5,2-0.5c1.4,0,2.7,0.8,3.4,2c1.1,1.9,0.4,4.3-1.4,5.4l-18.2,10.5C365.2,444,364.5,444.2,363.8,444.2z"></path>		<path class="st3" d="M340.8,421.2c-0.7,0-1.4-0.2-2-0.5c-1.9-1.1-2.5-3.5-1.4-5.4l10.5-18.2c0.7-1.2,2-2,3.4-2   c0.7,0,1.4,0.2,2,0.5c0.9,0.5,1.6,1.4,1.8,2.4c0.3,1,0.1,2.1-0.4,3l-10.5,18.2C343.5,420.4,342.2,421.2,340.8,421.2z"></path>	</g>	<g>		<g>			<path id="Fill_297_00000031203850129138625350000017417806370549322167_" class="st3" d="M232.1,190.7h-5.2l7.3-18.7    c0.8-2.2,3.3-3.2,5.4-2.4c1.1,0.4,2,1.3,2.4,2.4l7.2,18.7h-5.2l-1.3-3.6h-9.2L232.1,190.7z M238,173.9l-3.3,9.2h6.7L238,173.9z"></path>			<path id="Fill_299_00000060023950161155191310000005805368641118185867_" class="st3" d="M257.3,197.1c-2.8,0-4.7-0.7-6.6-2.3    l1.8-3c1.2,1.3,2.7,1.9,4.8,1.9c1,0,2-0.3,2.8-0.8c0.9-0.7,1.4-1.7,1.4-3.1v-1.6c-0.6,0.7-1.3,1.4-2.1,1.8    c-0.8,0.4-1.7,0.6-2.6,0.6c-1.8,0.1-3.6-0.7-4.8-2c-1.3-1.4-1.9-3.4-1.9-5.9c0-2.4,0.7-4.5,1.9-5.9c0.6-0.7,1.3-1.2,2.1-1.5    c0.8-0.4,1.8-0.5,2.7-0.5c1.9,0,3.6,0.9,4.7,2.4c0-1.1,0.9-2,2-2h0.1c1.1,0,2,0.9,2,2v12.5c0,2.7-0.9,4.7-2.7,5.9    C261.1,196.8,258.9,197.1,257.3,197.1z M258.1,178.4c-2.3,0-3.9,1.7-3.9,4.3c0,2.6,1.5,4.3,3.9,4.3c0.7,0,1.4-0.2,2-0.5    c0.6-0.3,1.1-0.7,1.5-1.3v-5C260.7,179.1,259.4,178.4,258.1,178.4z"></path>			<path id="Fill_301_00000128476893912556067140000006414838026871721092_" class="st3" d="M277.1,191.2c-1.1,0-2.3-0.2-3.3-0.6    c-1-0.4-1.9-0.9-2.6-1.6c-0.8-0.7-1.4-1.6-1.8-2.6c-0.4-1.1-0.6-2.2-0.6-3.4c0-2.1,0.8-4.2,2.3-5.8c0.7-0.8,1.6-1.3,2.6-1.8    c1-0.4,2.1-0.6,3.3-0.6c1.1,0,2.2,0.2,3.2,0.6c0.9,0.4,1.8,1,2.5,1.8c0.7,0.8,1.3,1.7,1.6,2.7c0.4,1.1,0.6,2.3,0.6,3.5v0.9H273    c0.1,1,0.6,1.9,1.4,2.5c0.9,0.7,2,1.1,3.1,1.1c1.2,0,3.1-0.5,4.2-1.6l1.8,2.6C282,190.4,279.6,191.2,277.1,191.2z M276.8,178    c-2.5,0-3.7,1.9-3.9,3.5h7.7c-0.1-0.8-0.4-1.6-0.9-2.3C279,178.4,277.9,178,276.8,178z"></path>			<path id="Fill_303_00000065034399022662521410000002564927044237354122_" class="st3" d="M300.2,191.2c-1.2,0-2.3-0.2-3.4-0.7    c-1-0.4-1.8-1-2.6-1.8c-1.4-1.6-2.2-3.6-2.2-5.8c0-2.1,0.7-4.2,2.2-5.7c0.7-0.8,1.6-1.4,2.6-1.8c1.1-0.4,2.3-0.7,3.4-0.7    c1.2,0,2.4,0.2,3.4,0.7c1,0.4,1.9,1,2.6,1.8c1.4,1.6,2.2,3.6,2.2,5.7c0,2.1-0.7,4.2-2.2,5.8c-0.7,0.8-1.6,1.4-2.6,1.8    C302.6,191,301.4,191.2,300.2,191.2z M300.2,178.4c-1.1,0-2.2,0.5-2.9,1.4c-0.7,0.9-1.1,2-1,3.2c0,1.2,0.3,2.3,1,3.2    c0.7,0.9,1.8,1.4,2.9,1.4c1.1,0,2.2-0.5,2.9-1.4c0.7-0.9,1.1-2,1-3.2c0-1.1-0.3-2.3-1-3.2C302.5,178.9,301.4,178.4,300.2,178.4z"></path>			<path id="Fill_305_00000034062461546204161330000009857716225661070476_" class="st3" d="M309.8,175.1h2.6v-0.8    c0-3.3,2.1-5.4,5.3-5.4c0.9,0,1.8,0.2,2.7,0.5c0.8,0.3,1.1,1.2,0.7,2c0,0.1-0.1,0.1-0.1,0.2c-0.4,0.6-1.1,0.8-1.7,0.6    c-0.2-0.1-0.5-0.1-0.7-0.1c-1.1,0-1.9,0.7-1.9,2.2v0.8h3.2v3.6h-3.2v12h-4.1v-12h-2.6V175.1z"></path>			<path id="Fill_307_00000158718614526601491540000000111494127332649633_" class="st3" d="M328.9,190.7v-19.1c0-1.3,1-2.3,2.3-2.3    s2.3,1,2.3,2.3v15.1h9.1v4H328.9z"></path>			<path class="st3" d="M360.4,183.4c0-1.2-0.2-2.4-0.6-3.5c-0.3-1-0.9-1.9-1.6-2.7c-0.7-0.8-1.5-1.4-2.5-1.8    c-1-0.4-2.1-0.6-3.2-0.6c0,0,0,0,0,0c0,0,0,0,0,0c-1.1,0-2.2,0.2-3.3,0.6c-1,0.4-1.8,1-2.6,1.8c-1.5,1.6-2.3,3.6-2.3,5.8    c0,1.2,0.2,2.3,0.6,3.4c0.4,1,1,1.9,1.8,2.6c0.8,0.7,1.7,1.3,2.6,1.6c1.1,0.4,2.2,0.6,3.3,0.6c0,0,0,0,0,0c0,0,0,0,0,0    c2.6,0,5-0.8,6.4-2.2l-1.8-2.6c0,0,0,0,0,0l0,0c-1,1-2.9,1.5-4.2,1.6c-1.1,0-2.2-0.3-3.1-1.1c-0.7-0.7-1.2-1.6-1.4-2.5h11.6    V183.4z M355.4,179.2c0.6,0.6,0.9,1.4,0.9,2.3h-7.7c0.2-1.6,1.3-3.5,3.8-3.5C353.6,178,354.7,178.4,355.4,179.2z"></path>			<path id="Fill_311_00000011733932573473742440000014689620700241827497_" class="st3" d="M369.1,191.2c-0.9,0-1.9-0.2-2.8-0.5    c-0.8-0.4-1.6-0.9-2.2-1.6c-1.3-1.5-2-3.5-2-6c0-2.5,0.7-4.5,2-6c0.6-0.7,1.4-1.3,2.2-1.6c0.9-0.4,1.8-0.6,2.8-0.6    c1.9,0,3.7,0.9,4.8,2.4c0-1.1,0.9-2,2-2h0.2c1.1,0,2,0.9,2,2v13.6h-4.2v-2C372.8,190.3,371,191.2,369.1,191.2z M370.4,178.5    c-1.1,0-2.1,0.4-2.9,1.2c-0.8,0.9-1.2,2.1-1.1,3.3c0,1.2,0.3,2.4,1.1,3.3c0.3,0.4,0.8,0.7,1.3,0.9c0.5,0.2,1.1,0.3,1.6,0.3    c1.4,0,2.7-0.7,3.6-1.8v-5.5C373.1,179.1,371.8,178.5,370.4,178.5z"></path>			<path id="Fill_313_00000106149123722554170250000001217458791837770905_" class="st3" d="M383.8,175.2L383.8,175.2    c1.1,0,2.1,0.9,2.1,2c0,0,0,0,0,0v0.1c1.2-1.5,3-2.4,5-2.5v4c-0.4-0.1-0.8-0.1-1.1-0.1c-1.4,0-3.2,0.8-3.9,1.8v10.3h-4.1v-13.5    C381.7,176.1,382.6,175.2,383.8,175.2C383.8,175.2,383.8,175.2,383.8,175.2"></path>			<path id="Fill_315_00000182493137317030731300000006066653699825581247_" class="st3" d="M397.2,177.2L397.2,177.2    c1.4-1.6,3.4-2.4,5.4-2.4c3.4,0,5,1.9,5,5v11h-4.1v-9.4c0-2.2-1.1-2.9-2.9-2.9c-1.4,0-2.7,0.7-3.5,1.8v10.5h-4.1v-13.5    c0-1.1,0.9-2,2-2h0C396.3,175.2,397.2,176.1,397.2,177.2"></path>			<path id="Fill_317_00000072257002531421831470000001500073029844850346_" class="st3" d="M415.9,190.7h-4.2v-13.4    c0-1.1,1-2,2.1-2c1.1,0,2.1,0.9,2.1,2L415.9,190.7L415.9,190.7z M413.8,173.7c-0.7,0-1.3-0.3-1.8-0.7c-0.5-0.4-0.7-1.1-0.7-1.7    c0-0.6,0.3-1.3,0.7-1.7c0.5-0.4,1.1-0.7,1.8-0.7c0.7,0,1.3,0.2,1.8,0.7c0.5,0.4,0.7,1.1,0.7,1.7    C416.3,172.6,415.2,173.7,413.8,173.7z"></path>			<path id="Fill_319_00000026852224001914523640000004066668756122986415_" class="st3" d="M424,177.2L424,177.2    c1.4-1.6,3.4-2.4,5.4-2.4c3.4,0,5,1.9,5,5v11h-4.1v-9.4c0-2.2-1.1-2.9-2.9-2.9c-1.4,0-2.7,0.7-3.5,1.8v10.5H420v-13.5    c0-1.1,0.9-2,2-2h0C423.1,175.2,424,176.1,424,177.2"></path>			<path id="Fill_321_00000130646112370306226130000012432118777505192348_" class="st3" d="M444.9,197.1c-2.8,0-4.7-0.7-6.6-2.3    l1.8-3c1.2,1.3,2.7,1.9,4.8,1.9c1,0,2-0.3,2.8-0.8c0.9-0.7,1.4-1.7,1.4-3.1v-1.6c-0.6,0.7-1.3,1.4-2.1,1.8    c-0.8,0.4-1.7,0.6-2.6,0.6c-1.8,0.1-3.6-0.7-4.8-2c-1.3-1.4-1.9-3.4-1.9-5.9c0-2.4,0.7-4.5,1.9-5.9c0.6-0.7,1.3-1.2,2.1-1.5    c0.8-0.4,1.8-0.5,2.7-0.5c1.9,0,3.6,0.9,4.7,2.4c0-1.1,0.9-2,2-2h0.1c1.1,0,2,0.9,2,2v12.5c0,2.7-0.9,4.7-2.7,5.9    C448.7,196.8,446.5,197.1,444.9,197.1z M445.7,178.4c-2.3,0-3.9,1.7-3.9,4.3c0,2.6,1.5,4.3,3.9,4.3c0.7,0,1.4-0.2,2-0.5    c0.6-0.3,1.1-0.7,1.5-1.3v-5C448.3,179.1,447.1,178.4,445.7,178.4z"></path>			<path id="Fill_361_00000083057236899705626180000009786170100060598449_" class="st3" d="M187.1,200.4L187.1,200.4l-14.2-5.2    c-2.5-0.9-4.1-3.2-4.1-5.9v-17.1c0-0.7,0.4-1.3,1.1-1.6c0.2-0.1,0.4-0.1,0.7-0.1c0.1,0,0.2,0,0.3,0c1.5,0.2,3,0.6,4.4,1    c1.4,0.4,2.8,0.9,4.2,1.5c2.7,1.2,5.3,2.6,7.6,4.4c4.8-3.6,10.4-6,16.3-6.9c0.1,0,0.2,0,0.3,0c0.2,0,0.5,0,0.7,0.1    c0.6,0.3,1.1,0.9,1.1,1.6v17.1c0,2.6-1.6,5-4.1,5.9L187.1,200.4z M173.4,175.8v13.6c0,0.7,0.4,1.3,1.1,1.6l12.6,4.6l12.6-4.6    c0.7-0.2,1.1-0.9,1.1-1.6v-13.6c-4,1.1-7.7,2.9-11,5.3l-2.7,2.1l-2.7-2.1c-1.6-1.2-3.4-2.3-5.2-3.2    C177.3,177,175.4,176.3,173.4,175.8z"></path>			<path id="Fill_363_00000008836650829361622030000011801128064882371738_" class="st3" d="M216.3,167h-56c-0.6,0-1.2-0.5-1.2-1.2    v-2.2c0-0.6,0.5-1.2,1.2-1.2h56c0.6,0,1.2,0.5,1.2,1.2v2.2C217.5,166.5,216.9,167,216.3,167"></path>			<path id="Fill_365_00000073691944565379924590000013456343252872651949_" class="st3" d="M212.1,191.2l-2,0.7v-20    c0-1.3,1-2.3,2.3-2.3l0,0c1.3,0,2.3,1,2.3,2.3v15.7C214.7,189.2,213.7,190.6,212.1,191.2"></path>			<path class="st3" d="M458.7,174c0.4,0,0.8,0.1,1.2,0.3c0.4,0.2,0.7,0.5,0.9,0.9c0.2,0.4,0.3,0.8,0.3,1.2c0,0.4-0.1,0.8-0.3,1.2    c-0.2,0.4-0.5,0.7-0.9,0.9c-0.4,0.2-0.8,0.3-1.2,0.3s-0.8-0.1-1.2-0.3c-0.4-0.2-0.7-0.5-0.9-0.9c-0.2-0.4-0.3-0.8-0.3-1.2    c0-0.4,0.1-0.8,0.3-1.2c0.2-0.4,0.5-0.7,0.9-0.9C457.9,174.1,458.3,174,458.7,174z M458.7,174.4c-0.3,0-0.7,0.1-1,0.3    c-0.3,0.2-0.6,0.4-0.8,0.8c-0.2,0.3-0.3,0.7-0.3,1c0,0.4,0.1,0.7,0.3,1c0.2,0.3,0.4,0.6,0.8,0.8c0.3,0.2,0.7,0.3,1,0.3    c0.4,0,0.7-0.1,1-0.3c0.3-0.2,0.6-0.4,0.8-0.8c0.2-0.3,0.3-0.7,0.3-1c0-0.4-0.1-0.7-0.3-1c-0.2-0.3-0.4-0.6-0.8-0.8    C459.4,174.5,459.1,174.4,458.7,174.4z M457.7,177.8v-2.6h0.9c0.3,0,0.5,0,0.7,0.1c0.1,0,0.2,0.1,0.3,0.3    c0.1,0.1,0.1,0.3,0.1,0.4c0,0.2-0.1,0.4-0.2,0.5c-0.1,0.1-0.3,0.2-0.5,0.2c0.1,0,0.2,0.1,0.2,0.1c0.1,0.1,0.2,0.3,0.4,0.5    l0.3,0.5h-0.5l-0.2-0.4c-0.2-0.3-0.3-0.5-0.4-0.6c-0.1-0.1-0.2-0.1-0.3-0.1h-0.3v1.1H457.7z M458.1,176.4h0.5    c0.2,0,0.4,0,0.5-0.1c0.1-0.1,0.1-0.2,0.1-0.3c0-0.1,0-0.1-0.1-0.2c0-0.1-0.1-0.1-0.2-0.1c-0.1,0-0.2,0-0.4,0h-0.5V176.4z"></path>		</g>		<g>			<g>				<g>					<path class="st3" d="M168.7,213.9h34v9H179v10.2h23.2v9H179v10.9h23.7v9h-34V213.9z"></path>				</g>				<g>					<path class="st3" d="M234.5,257.5c-2.7,3.5-6.6,5.3-10.8,5.3c-8.7,0-15.4-6.6-15.4-18.2c0-11.4,6.6-18.3,15.4-18.3      c4.1,0,8,1.8,10.8,5.3v-17.7h9.1v48h-9.1V257.5z M234.4,238.4c-1.6-2.3-4.9-4-7.9-4c-5.3,0-8.8,4.1-8.8,10.2      c0,6,3.5,10.1,8.8,10.1c3,0,6.3-1.7,7.9-4V238.4z"></path>				</g>				<g>					<path class="st3" d="M276.2,257.6c-2.4,2.7-6.6,5.3-12.2,5.3c-7.7,0-11.3-4.2-11.3-10.9v-24.7h9.2v21.1c0,4.8,2.4,6.4,6.3,6.4      c3.6,0,6.3-1.9,7.9-4v-23.5h9.1v34.8h-9.1V257.6z"></path>				</g>				<g>					<path class="st3" d="M309.7,226.3c7.1,0,11.4,3.1,13.8,6.3l-6,5.6c-1.7-2.4-4.1-3.7-7.3-3.7c-5.5,0-9.4,4-9.4,10.1      c0,6,3.8,10.2,9.4,10.2c3.2,0,5.7-1.4,7.3-3.7l6,5.5c-2.3,3.2-6.6,6.3-13.8,6.3c-10.7,0-18.4-7.6-18.4-18.3      C291.3,233.9,299.1,226.3,309.7,226.3z"></path>				</g>				<g>					<path class="st3" d="M350.3,258.3c-2.4,2.8-6.5,4.5-11,4.5c-5.5,0-12-3.7-12-11.5c0-8.1,6.6-11.2,12-11.2c4.7,0,8.7,1.5,11,4.2      v-4.7c0-3.5-3-5.8-7.6-5.8c-3.7,0-7.1,1.4-10.1,4.1l-3.5-6.1c4.2-3.7,9.6-5.5,15.1-5.5c8,0,15.3,3.2,15.3,13.2v22.5h-9.2V258.3      z M350.3,249.3c-1.5-2-4.4-3-7.3-3c-3.6,0-6.6,1.9-6.6,5.3c0,3.2,3,5.1,6.6,5.1c3,0,5.8-1,7.3-3V249.3z"></path>				</g>				<g>					<path class="st3" d="M371.1,235.2h-5.8v-8h5.8v-9.5h9.1v9.5h7.1v8h-7.1v26.8h-9.1V235.2z"></path>				</g>				<g>					<path class="st3" d="M389.8,244.5c0-9.9,7-18.2,18.4-18.2c11.5,0,18.4,8.4,18.4,18.2c0,9.9-6.9,18.3-18.4,18.3      C396.8,262.8,389.8,254.5,389.8,244.5z M417,244.5c0-5.4-3.2-10.1-8.9-10.1c-5.7,0-8.9,4.7-8.9,10.1c0,5.5,3.2,10.2,8.9,10.2      C413.8,254.7,417,250,417,244.5z"></path>				</g>				<g>					<path class="st3" d="M432.9,227.2h9.2v4.8c2.4-3.1,6.7-5.5,11.1-5.5v8.9c-0.6-0.1-1.5-0.3-2.6-0.3c-3,0-7.1,1.7-8.5,4v23h-9.2      V227.2z"></path>				</g>				<g>					<path class="st3" d="M167.2,303.2c0-8.5,5.7-15.4,14.6-15.4c9,0,14.6,6.9,14.6,15.4s-5.6,15.5-14.6,15.5      C172.8,318.7,167.2,311.7,167.2,303.2z M191.5,303.2c0-6-3.5-11.3-9.8-11.3c-6.2,0-9.8,5.4-9.8,11.3c0,6,3.5,11.4,9.8,11.4      C188,314.6,191.5,309.2,191.5,303.2z"></path>				</g>				<g>					<path class="st3" d="M203.8,292.5h-4.9v-4h4.9v-2.3c0-6.1,3.4-9.6,8.5-9.6c1.7,0,3.3,0.3,4.5,1l-1.2,3.4      c-0.7-0.4-1.6-0.7-2.6-0.7c-3,0-4.7,2.1-4.7,5.8v2.3h6v4h-6v25.4h-4.6V292.5z"></path>				</g>				<g>					<path class="st3" d="M237.1,292.5h-4.9v-4h4.9v-8.1h4.6v8.1h6v4h-6v25.4h-4.6V292.5z"></path>				</g>				<g>					<path class="st3" d="M273.4,298.6c0-5.2-2.7-6.7-6.6-6.7c-3.5,0-7,2.2-8.7,4.6v21.5h-4.6v-40.7h4.6v15.5c2.1-2.4,6.1-5,10.6-5      c6.1,0,9.4,3,9.4,9.4v20.8h-4.6V298.6z"></path>				</g>				<g>					<path class="st3" d="M299.3,287.8c8.9,0,14.2,7,14.2,15.8v1.2h-23.8c0.4,5.6,4.2,10.2,10.6,10.2c3.4,0,6.8-1.3,9.2-3.7l2.2,3      c-3,2.9-7,4.5-11.7,4.5c-8.7,0-15.1-6.3-15.1-15.5C284.8,294.6,290.9,287.8,299.3,287.8z M289.6,301.4h19.3      c-0.1-4.4-3-9.8-9.7-9.8C292.9,291.5,289.8,296.8,289.6,301.4z"></path>				</g>				<g>					<path class="st3" d="M340.9,300l-16.8-25.9h10.6l10.9,17.6l10.8-17.6H367L350.2,300v17.9h-9.3V300z"></path>				</g>				<g>					<path class="st3" d="M377.1,285.4c9.5,0,15.9,7.1,15.9,17.5v1.8h-23.6c0.5,4,3.7,7.4,9.1,7.4c3,0,6.4-1.2,8.5-3.2l3.7,5.4      c-3.2,2.9-8.1,4.4-13.1,4.4c-9.7,0-16.9-6.5-16.9-16.7C360.7,292.9,367.5,285.4,377.1,285.4z M369.3,299.1h15.6      c-0.2-3-2.3-7-7.8-7C371.8,292.1,369.6,295.9,369.3,299.1z"></path>				</g>				<g>					<path class="st3" d="M418,314.7c-2.2,2.6-5.9,4.1-10,4.1c-5,0-11-3.4-11-10.5c0-7.4,6-10.2,11-10.2c4.3,0,7.9,1.4,10,3.9v-4.3      c0-3.2-2.7-5.3-7-5.3c-3.3,0-6.5,1.2-9.2,3.7l-3.2-5.6c3.8-3.4,8.8-5,13.8-5c7.3,0,13.9,2.9,13.9,12v20.5H418V314.7z       M418.1,306.4c-1.4-1.8-4-2.8-6.7-2.8c-3.3,0-6,1.7-6,4.8c0,3,2.7,4.7,6,4.7c2.7,0,5.3-0.9,6.7-2.8V306.4z"></path>				</g>				<g>					<path class="st3" d="M434.5,286.2h8.4v4.3c2.2-2.8,6.1-5.1,10.1-5.1v8.1c-0.6-0.1-1.4-0.3-2.4-0.3c-2.8,0-6.4,1.6-7.7,3.6v20.9      h-8.4V286.2z"></path>				</g>			</g>			<g>				<g>					<path class="st3" d="M267,358.9v-3.3c9.4-7.1,13.1-10.3,13.1-13.8c0-2.5-2.2-3.7-4.4-3.7c-2.8,0-5,1.2-6.5,2.9l-2.5-2.8      c2.1-2.6,5.6-3.9,8.9-3.9c4.7,0,8.8,2.7,8.8,7.5c0,4.5-4.1,8.5-10.6,13.4h10.8v3.7H267z"></path>				</g>				<g>					<path class="st3" d="M289.7,346.8c0-6.1,2.9-12.5,9.7-12.5s9.7,6.4,9.7,12.5s-2.9,12.6-9.7,12.6S289.7,352.9,289.7,346.8z       M304.8,346.8c0-4.6-1.4-8.7-5.4-8.7s-5.4,4.1-5.4,8.7c0,4.6,1.4,8.8,5.4,8.8S304.8,351.5,304.8,346.8z"></path>				</g>				<g>					<path class="st3" d="M313.9,358.9v-3.3c9.4-7.1,13.1-10.3,13.1-13.8c0-2.5-2.2-3.7-4.4-3.7c-2.8,0-5,1.2-6.5,2.9l-2.5-2.8      c2.1-2.6,5.6-3.9,8.9-3.9c4.7,0,8.8,2.7,8.8,7.5c0,4.5-4.1,8.5-10.6,13.4h10.8v3.7H313.9z"></path>				</g>				<g>					<path class="st3" d="M336.2,350l10-15.4h5.9v15h3.2v3.7h-3.2v5.5h-4.3v-5.5h-11.6V350z M347.8,349.7v-11.2l-7.4,11.2H347.8z"></path>				</g>			</g>			<g>				<g>					<rect x="168.7" y="345" class="st3" width="79.7" height="3"></rect>				</g>				<g>					<rect x="373.5" y="345" class="st3" width="79.7" height="3"></rect>				</g>			</g>		</g>	</g></g></svg>